%TF.GenerationSoftware,KiCad,Pcbnew,8.0.1*%
%TF.CreationDate,2024-03-26T11:55:02+01:00*%
%TF.ProjectId,main_board,6d61696e-5f62-46f6-9172-642e6b696361,v1.0.0*%
%TF.SameCoordinates,Original*%
%TF.FileFunction,Paste,Top*%
%TF.FilePolarity,Positive*%
%FSLAX46Y46*%
G04 Gerber Fmt 4.6, Leading zero omitted, Abs format (unit mm)*
G04 Created by KiCad (PCBNEW 8.0.1) date 2024-03-26 11:55:02*
%MOMM*%
%LPD*%
G01*
G04 APERTURE LIST*
G04 Aperture macros list*
%AMRotRect*
0 Rectangle, with rotation*
0 The origin of the aperture is its center*
0 $1 length*
0 $2 width*
0 $3 Rotation angle, in degrees counterclockwise*
0 Add horizontal line*
21,1,$1,$2,0,0,$3*%
G04 Aperture macros list end*
%ADD10R,0.900000X1.200000*%
%ADD11R,2.600000X2.600000*%
%ADD12RotRect,2.600000X2.600000X350.000000*%
%ADD13RotRect,0.900000X1.200000X335.000000*%
%ADD14RotRect,2.600000X2.600000X5.000000*%
%ADD15RotRect,0.900000X1.200000X350.000000*%
%ADD16RotRect,2.600000X2.600000X335.000000*%
%ADD17R,0.800000X1.000000*%
%ADD18R,1.500000X0.700000*%
%ADD19RotRect,0.900000X1.200000X5.000000*%
G04 APERTURE END LIST*
D10*
%TO.C,D3*%
X189350000Y-54250000D03*
X192650000Y-54250000D03*
%TD*%
D11*
%TO.C,S3*%
X194275000Y-43300000D03*
X182725000Y-45500000D03*
%TD*%
D12*
%TO.C,S17*%
X263976258Y-99576528D03*
X252219703Y-99737468D03*
%TD*%
D13*
%TO.C,D18*%
X277716906Y-115846469D03*
X280707722Y-117241109D03*
%TD*%
D11*
%TO.C,S1*%
X194275000Y-81300000D03*
X182725000Y-83500000D03*
%TD*%
D14*
%TO.C,S16*%
X240721714Y-97996910D03*
X229407408Y-101195188D03*
%TD*%
D11*
%TO.C,S15*%
X270275000Y-37300000D03*
X258725000Y-39500000D03*
%TD*%
D10*
%TO.C,D15*%
X265350000Y-48250000D03*
X268650000Y-48250000D03*
%TD*%
D11*
%TO.C,S14*%
X270275000Y-56300000D03*
X258725000Y-58500000D03*
%TD*%
%TO.C,S9*%
X232275000Y-32300000D03*
X220725000Y-34500000D03*
%TD*%
D15*
%TO.C,D17*%
X257224632Y-109504956D03*
X260474498Y-110077994D03*
%TD*%
D10*
%TO.C,D8*%
X227350000Y-62250000D03*
X230650000Y-62250000D03*
%TD*%
D11*
%TO.C,S10*%
X251275000Y-73300000D03*
X239725000Y-75500000D03*
%TD*%
D10*
%TO.C,D6*%
X208350000Y-48250000D03*
X211650000Y-48250000D03*
%TD*%
%TO.C,D4*%
X208350000Y-86250000D03*
X211650000Y-86250000D03*
%TD*%
D11*
%TO.C,S4*%
X213275000Y-75300000D03*
X201725000Y-77500000D03*
%TD*%
%TO.C,S6*%
X213275000Y-37300000D03*
X201725000Y-39500000D03*
%TD*%
D10*
%TO.C,D5*%
X208350000Y-67250000D03*
X211650000Y-67250000D03*
%TD*%
%TO.C,D12*%
X246350000Y-46250000D03*
X249650000Y-46250000D03*
%TD*%
D11*
%TO.C,S11*%
X251275000Y-54300000D03*
X239725000Y-56500000D03*
%TD*%
D10*
%TO.C,D1*%
X189350000Y-92250000D03*
X192650000Y-92250000D03*
%TD*%
%TO.C,D9*%
X227350000Y-43250000D03*
X230650000Y-43250000D03*
%TD*%
D11*
%TO.C,S8*%
X232275000Y-51300000D03*
X220725000Y-53500000D03*
%TD*%
D10*
%TO.C,D10*%
X246350000Y-84250000D03*
X249650000Y-84250000D03*
%TD*%
D11*
%TO.C,S7*%
X232275000Y-70300000D03*
X220725000Y-72500000D03*
%TD*%
D16*
%TO.C,S18*%
X286808142Y-108003793D03*
X275410527Y-105116430D03*
%TD*%
D10*
%TO.C,D14*%
X265350000Y-67250000D03*
X268650000Y-67250000D03*
%TD*%
%TO.C,D13*%
X265350000Y-86250000D03*
X268650000Y-86250000D03*
%TD*%
D11*
%TO.C,S13*%
X270275000Y-75300000D03*
X258725000Y-77500000D03*
%TD*%
D10*
%TO.C,D7*%
X227350000Y-81250000D03*
X230650000Y-81250000D03*
%TD*%
D11*
%TO.C,S2*%
X194275000Y-62300000D03*
X182725000Y-64500000D03*
%TD*%
D17*
%TO.C,T1*%
X298220000Y-81650000D03*
X300430000Y-81650000D03*
D18*
X297570000Y-75750000D03*
D17*
X298220000Y-74350000D03*
X300430000Y-74350000D03*
D18*
X297570000Y-80250000D03*
X297570000Y-77250000D03*
%TD*%
D10*
%TO.C,D2*%
X189350000Y-73250000D03*
X192650000Y-73250000D03*
%TD*%
D11*
%TO.C,S12*%
X251275000Y-35300000D03*
X239725000Y-37500000D03*
%TD*%
%TO.C,S5*%
X213275000Y-56300000D03*
X201725000Y-58500000D03*
%TD*%
D10*
%TO.C,D11*%
X246350000Y-65250000D03*
X249650000Y-65250000D03*
%TD*%
D19*
%TO.C,D16*%
X236769811Y-109334484D03*
X240057253Y-109046870D03*
%TD*%
M02*
