%TF.GenerationSoftware,KiCad,Pcbnew,8.0.1*%
%TF.CreationDate,2024-03-26T11:55:02+01:00*%
%TF.ProjectId,main_board,6d61696e-5f62-46f6-9172-642e6b696361,v1.0.0*%
%TF.SameCoordinates,Original*%
%TF.FileFunction,Copper,L2,Bot*%
%TF.FilePolarity,Positive*%
%FSLAX46Y46*%
G04 Gerber Fmt 4.6, Leading zero omitted, Abs format (unit mm)*
G04 Created by KiCad (PCBNEW 8.0.1) date 2024-03-26 11:55:02*
%MOMM*%
%LPD*%
G01*
G04 APERTURE LIST*
G04 Aperture macros list*
%AMRoundRect*
0 Rectangle with rounded corners*
0 $1 Rounding radius*
0 $2 $3 $4 $5 $6 $7 $8 $9 X,Y pos of 4 corners*
0 Add a 4 corners polygon primitive as box body*
4,1,4,$2,$3,$4,$5,$6,$7,$8,$9,$2,$3,0*
0 Add four circle primitives for the rounded corners*
1,1,$1+$1,$2,$3*
1,1,$1+$1,$4,$5*
1,1,$1+$1,$6,$7*
1,1,$1+$1,$8,$9*
0 Add four rect primitives between the rounded corners*
20,1,$1+$1,$2,$3,$4,$5,0*
20,1,$1+$1,$4,$5,$6,$7,0*
20,1,$1+$1,$6,$7,$8,$9,0*
20,1,$1+$1,$8,$9,$2,$3,0*%
%AMRotRect*
0 Rectangle, with rotation*
0 The origin of the aperture is its center*
0 $1 length*
0 $2 width*
0 $3 Rotation angle, in degrees counterclockwise*
0 Add horizontal line*
21,1,$1,$2,0,0,$3*%
G04 Aperture macros list end*
%TA.AperFunction,ComponentPad*%
%ADD10R,1.778000X1.778000*%
%TD*%
%TA.AperFunction,SMDPad,CuDef*%
%ADD11R,0.900000X1.200000*%
%TD*%
%TA.AperFunction,ComponentPad*%
%ADD12C,1.905000*%
%TD*%
%TA.AperFunction,ComponentPad*%
%ADD13R,3.200000X2.000000*%
%TD*%
%TA.AperFunction,ComponentPad*%
%ADD14C,1.500000*%
%TD*%
%TA.AperFunction,ComponentPad*%
%ADD15R,2.000000X2.000000*%
%TD*%
%TA.AperFunction,ComponentPad*%
%ADD16C,2.000000*%
%TD*%
%TA.AperFunction,SMDPad,CuDef*%
%ADD17R,2.600000X2.600000*%
%TD*%
%TA.AperFunction,SMDPad,CuDef*%
%ADD18RotRect,2.600000X2.600000X350.000000*%
%TD*%
%TA.AperFunction,ComponentPad*%
%ADD19RotRect,1.778000X1.778000X335.000000*%
%TD*%
%TA.AperFunction,SMDPad,CuDef*%
%ADD20RotRect,0.900000X1.200000X335.000000*%
%TD*%
%TA.AperFunction,SMDPad,CuDef*%
%ADD21RotRect,2.600000X2.600000X5.000000*%
%TD*%
%TA.AperFunction,ComponentPad*%
%ADD22RotRect,1.778000X1.778000X350.000000*%
%TD*%
%TA.AperFunction,SMDPad,CuDef*%
%ADD23RotRect,0.900000X1.200000X350.000000*%
%TD*%
%TA.AperFunction,ComponentPad*%
%ADD24R,1.400000X1.500000*%
%TD*%
%TA.AperFunction,ComponentPad*%
%ADD25R,1.752600X1.752600*%
%TD*%
%TA.AperFunction,ComponentPad*%
%ADD26C,1.752600*%
%TD*%
%TA.AperFunction,ComponentPad*%
%ADD27R,1.700000X1.700000*%
%TD*%
%TA.AperFunction,ComponentPad*%
%ADD28O,1.700000X1.700000*%
%TD*%
%TA.AperFunction,SMDPad,CuDef*%
%ADD29RotRect,2.600000X2.600000X335.000000*%
%TD*%
%TA.AperFunction,ComponentPad*%
%ADD30RoundRect,0.250000X0.625000X-0.350000X0.625000X0.350000X-0.625000X0.350000X-0.625000X-0.350000X0*%
%TD*%
%TA.AperFunction,ComponentPad*%
%ADD31O,1.750000X1.200000*%
%TD*%
%TA.AperFunction,SMDPad,CuDef*%
%ADD32R,0.800000X1.000000*%
%TD*%
%TA.AperFunction,SMDPad,CuDef*%
%ADD33R,1.500000X0.700000*%
%TD*%
%TA.AperFunction,ComponentPad*%
%ADD34RotRect,1.778000X1.778000X5.000000*%
%TD*%
%TA.AperFunction,SMDPad,CuDef*%
%ADD35RotRect,0.900000X1.200000X5.000000*%
%TD*%
%TA.AperFunction,ViaPad*%
%ADD36C,0.800000*%
%TD*%
%TA.AperFunction,Conductor*%
%ADD37C,0.250000*%
%TD*%
G04 APERTURE END LIST*
D10*
%TO.P,D3,1*%
%TO.N,P21*%
X187190000Y-54250000D03*
D11*
X189350000Y-54250000D03*
%TO.P,D3,2*%
%TO.N,pinky_top*%
X192650000Y-54250000D03*
D12*
X194810000Y-54250000D03*
%TD*%
D13*
%TO.P,ROT1,*%
%TO.N,*%
X287380000Y-79860000D03*
X287380000Y-91060000D03*
D14*
%TO.P,ROT1,1*%
%TO.N,P16*%
X294380000Y-82960000D03*
%TO.P,ROT1,2*%
%TO.N,GND*%
X294380000Y-87960000D03*
D15*
%TO.P,ROT1,A*%
%TO.N,P15*%
X279880000Y-82960000D03*
D16*
%TO.P,ROT1,B*%
%TO.N,P14*%
X279880000Y-87960000D03*
%TO.P,ROT1,C*%
%TO.N,GND*%
X279880000Y-85460000D03*
%TD*%
D17*
%TO.P,S3,1*%
%TO.N,P9*%
X187725000Y-43300000D03*
%TO.P,S3,2*%
%TO.N,pinky_top*%
X199275000Y-45500000D03*
%TD*%
D18*
%TO.P,S17,1*%
%TO.N,P6*%
X257525767Y-98439132D03*
%TO.P,S17,2*%
%TO.N,layer_cluster*%
X268518271Y-102611346D03*
%TD*%
D19*
%TO.P,D18,1*%
%TO.N,P18*%
X275759281Y-114933613D03*
D20*
X277716906Y-115846469D03*
%TO.P,D18,2*%
%TO.N,space_cluster*%
X280707722Y-117241109D03*
D12*
X282665347Y-118153965D03*
%TD*%
D17*
%TO.P,S1,1*%
%TO.N,P9*%
X187725000Y-81300000D03*
%TO.P,S1,2*%
%TO.N,pinky_bottom*%
X199275000Y-83500000D03*
%TD*%
D21*
%TO.P,S16,1*%
%TO.N,P7*%
X234196639Y-98567781D03*
%TO.P,S16,2*%
%TO.N,mod_cluster*%
X245894430Y-99752760D03*
%TD*%
D17*
%TO.P,S15,1*%
%TO.N,P5*%
X263725000Y-37300000D03*
%TO.P,S15,2*%
%TO.N,inner_top*%
X275275000Y-39500000D03*
%TD*%
D10*
%TO.P,D15,1*%
%TO.N,P21*%
X263190000Y-48250000D03*
D11*
X265350000Y-48250000D03*
%TO.P,D15,2*%
%TO.N,inner_top*%
X268650000Y-48250000D03*
D12*
X270810000Y-48250000D03*
%TD*%
D17*
%TO.P,S14,1*%
%TO.N,P5*%
X263725000Y-56300000D03*
%TO.P,S14,2*%
%TO.N,inner_home*%
X275275000Y-58500000D03*
%TD*%
%TO.P,S9,1*%
%TO.N,P7*%
X225725000Y-32300000D03*
%TO.P,S9,2*%
%TO.N,middle_top*%
X237275000Y-34500000D03*
%TD*%
D22*
%TO.P,D17,1*%
%TO.N,P18*%
X255097445Y-109129875D03*
D23*
X257224632Y-109504956D03*
%TO.P,D17,2*%
%TO.N,layer_cluster*%
X260474498Y-110077994D03*
D12*
X262601685Y-110453075D03*
%TD*%
D10*
%TO.P,D8,1*%
%TO.N,P20*%
X225190000Y-62250000D03*
D11*
X227350000Y-62250000D03*
%TO.P,D8,2*%
%TO.N,middle_home*%
X230650000Y-62250000D03*
D12*
X232810000Y-62250000D03*
%TD*%
D17*
%TO.P,S10,1*%
%TO.N,P6*%
X244725000Y-73300000D03*
%TO.P,S10,2*%
%TO.N,index_bottom*%
X256275000Y-75500000D03*
%TD*%
D10*
%TO.P,D6,1*%
%TO.N,P21*%
X206190000Y-48250000D03*
D11*
X208350000Y-48250000D03*
%TO.P,D6,2*%
%TO.N,ring_top*%
X211650000Y-48250000D03*
D12*
X213810000Y-48250000D03*
%TD*%
D10*
%TO.P,D4,1*%
%TO.N,P19*%
X206190000Y-86250000D03*
D11*
X208350000Y-86250000D03*
%TO.P,D4,2*%
%TO.N,ring_bottom*%
X211650000Y-86250000D03*
D12*
X213810000Y-86250000D03*
%TD*%
D17*
%TO.P,S4,1*%
%TO.N,P8*%
X206725000Y-75300000D03*
%TO.P,S4,2*%
%TO.N,ring_bottom*%
X218275000Y-77500000D03*
%TD*%
%TO.P,S6,1*%
%TO.N,P8*%
X206725000Y-37300000D03*
%TO.P,S6,2*%
%TO.N,ring_top*%
X218275000Y-39500000D03*
%TD*%
D10*
%TO.P,D5,1*%
%TO.N,P20*%
X206190000Y-67250000D03*
D11*
X208350000Y-67250000D03*
%TO.P,D5,2*%
%TO.N,ring_home*%
X211650000Y-67250000D03*
D12*
X213810000Y-67250000D03*
%TD*%
D10*
%TO.P,D12,1*%
%TO.N,P21*%
X244190000Y-46250000D03*
D11*
X246350000Y-46250000D03*
%TO.P,D12,2*%
%TO.N,index_top*%
X249650000Y-46250000D03*
D12*
X251810000Y-46250000D03*
%TD*%
D24*
%TO.P,S19,1*%
%TO.N,RST*%
X298500000Y-90750000D03*
%TO.P,S19,2*%
%TO.N,GND*%
X298500000Y-84250000D03*
%TD*%
D17*
%TO.P,S11,1*%
%TO.N,P6*%
X244725000Y-54300000D03*
%TO.P,S11,2*%
%TO.N,index_home*%
X256275000Y-56500000D03*
%TD*%
D10*
%TO.P,D1,1*%
%TO.N,P19*%
X187190000Y-92250000D03*
D11*
X189350000Y-92250000D03*
%TO.P,D1,2*%
%TO.N,pinky_bottom*%
X192650000Y-92250000D03*
D12*
X194810000Y-92250000D03*
%TD*%
D10*
%TO.P,D9,1*%
%TO.N,P21*%
X225190000Y-43250000D03*
D11*
X227350000Y-43250000D03*
%TO.P,D9,2*%
%TO.N,middle_top*%
X230650000Y-43250000D03*
D12*
X232810000Y-43250000D03*
%TD*%
D17*
%TO.P,S8,1*%
%TO.N,P7*%
X225725000Y-51300000D03*
%TO.P,S8,2*%
%TO.N,middle_home*%
X237275000Y-53500000D03*
%TD*%
D10*
%TO.P,D10,1*%
%TO.N,P19*%
X244190000Y-84250000D03*
D11*
X246350000Y-84250000D03*
%TO.P,D10,2*%
%TO.N,index_bottom*%
X249650000Y-84250000D03*
D12*
X251810000Y-84250000D03*
%TD*%
D25*
%TO.P,MCU1,1*%
%TO.N,RAW*%
X280980000Y-37780000D03*
D26*
%TO.P,MCU1,2*%
%TO.N,GND*%
X280980000Y-40320000D03*
%TO.P,MCU1,3*%
%TO.N,RST*%
X280980000Y-42860000D03*
%TO.P,MCU1,4*%
%TO.N,VCC*%
X280980000Y-45400000D03*
%TO.P,MCU1,5*%
%TO.N,P21*%
X280980000Y-47940000D03*
%TO.P,MCU1,6*%
%TO.N,P20*%
X280980000Y-50480000D03*
%TO.P,MCU1,7*%
%TO.N,P19*%
X280980000Y-53020000D03*
%TO.P,MCU1,8*%
%TO.N,P18*%
X280980000Y-55560000D03*
%TO.P,MCU1,9*%
%TO.N,P15*%
X280980000Y-58100000D03*
%TO.P,MCU1,10*%
%TO.N,P14*%
X280980000Y-60640000D03*
%TO.P,MCU1,11*%
%TO.N,P16*%
X280980000Y-63180000D03*
%TO.P,MCU1,12*%
%TO.N,P10*%
X280980000Y-65720000D03*
%TO.P,MCU1,13*%
%TO.N,P1*%
X296220000Y-37780000D03*
%TO.P,MCU1,14*%
%TO.N,P0*%
X296220000Y-40320000D03*
%TO.P,MCU1,15*%
%TO.N,GND*%
X296220000Y-42860000D03*
%TO.P,MCU1,16*%
X296220000Y-45400000D03*
%TO.P,MCU1,17*%
%TO.N,P2*%
X296220000Y-47940000D03*
%TO.P,MCU1,18*%
%TO.N,P3*%
X296220000Y-50480000D03*
%TO.P,MCU1,19*%
%TO.N,P4*%
X296220000Y-53020000D03*
%TO.P,MCU1,20*%
%TO.N,P5*%
X296220000Y-55560000D03*
%TO.P,MCU1,21*%
%TO.N,P6*%
X296220000Y-58100000D03*
%TO.P,MCU1,22*%
%TO.N,P7*%
X296220000Y-60640000D03*
%TO.P,MCU1,23*%
%TO.N,P8*%
X296220000Y-63180000D03*
%TO.P,MCU1,24*%
%TO.N,P9*%
X296220000Y-65720000D03*
%TO.P,MCU1,25*%
%TO.N,NN_101*%
X293680000Y-60640000D03*
%TO.P,MCU1,26*%
%TO.N,NN_102*%
X291140000Y-60640000D03*
%TO.P,MCU1,27*%
%TO.N,NN_107*%
X288600000Y-60640000D03*
%TD*%
D17*
%TO.P,S7,1*%
%TO.N,P7*%
X225725000Y-70300000D03*
%TO.P,S7,2*%
%TO.N,middle_bottom*%
X237275000Y-72500000D03*
%TD*%
D27*
%TO.P,OLED1,1*%
%TO.N,GND*%
X285380000Y-68500000D03*
D28*
%TO.P,OLED1,2*%
%TO.N,VCC*%
X287920000Y-68500000D03*
%TO.P,OLED1,3*%
%TO.N,P3*%
X290460000Y-68500000D03*
%TO.P,OLED1,4*%
%TO.N,P2*%
X293000000Y-68500000D03*
%TD*%
D29*
%TO.P,S18,1*%
%TO.N,P5*%
X280871826Y-105235644D03*
%TO.P,S18,2*%
%TO.N,space_cluster*%
X290409920Y-112110762D03*
%TD*%
D30*
%TO.P,_1,1*%
%TO.N,pos*%
X287050000Y-74500000D03*
D31*
%TO.P,_1,2*%
%TO.N,GND*%
X287050000Y-72500000D03*
%TD*%
D10*
%TO.P,D14,1*%
%TO.N,P20*%
X263190000Y-67250000D03*
D11*
X265350000Y-67250000D03*
%TO.P,D14,2*%
%TO.N,inner_home*%
X268650000Y-67250000D03*
D12*
X270810000Y-67250000D03*
%TD*%
D10*
%TO.P,D13,1*%
%TO.N,P19*%
X263190000Y-86250000D03*
D11*
X265350000Y-86250000D03*
%TO.P,D13,2*%
%TO.N,inner_bottom*%
X268650000Y-86250000D03*
D12*
X270810000Y-86250000D03*
%TD*%
D17*
%TO.P,S13,1*%
%TO.N,P5*%
X263725000Y-75300000D03*
%TO.P,S13,2*%
%TO.N,inner_bottom*%
X275275000Y-77500000D03*
%TD*%
D10*
%TO.P,D7,1*%
%TO.N,P19*%
X225190000Y-81250000D03*
D11*
X227350000Y-81250000D03*
%TO.P,D7,2*%
%TO.N,middle_bottom*%
X230650000Y-81250000D03*
D12*
X232810000Y-81250000D03*
%TD*%
D17*
%TO.P,S2,1*%
%TO.N,P9*%
X187725000Y-62300000D03*
%TO.P,S2,2*%
%TO.N,pinky_home*%
X199275000Y-64500000D03*
%TD*%
D32*
%TO.P,T1,*%
%TO.N,*%
X298220000Y-81650000D03*
X300430000Y-81650000D03*
D33*
X297570000Y-80250000D03*
D32*
X298220000Y-74350000D03*
X300430000Y-74350000D03*
D33*
%TO.P,T1,1*%
%TO.N,pos*%
X297570000Y-75750000D03*
%TO.P,T1,2*%
%TO.N,RAW*%
X297570000Y-78750000D03*
%TD*%
D10*
%TO.P,D2,1*%
%TO.N,P20*%
X187190000Y-73250000D03*
D11*
X189350000Y-73250000D03*
%TO.P,D2,2*%
%TO.N,pinky_home*%
X192650000Y-73250000D03*
D12*
X194810000Y-73250000D03*
%TD*%
D17*
%TO.P,S12,1*%
%TO.N,P6*%
X244725000Y-35300000D03*
%TO.P,S12,2*%
%TO.N,index_top*%
X256275000Y-37500000D03*
%TD*%
%TO.P,S5,1*%
%TO.N,P8*%
X206725000Y-56300000D03*
%TO.P,S5,2*%
%TO.N,ring_home*%
X218275000Y-58500000D03*
%TD*%
D10*
%TO.P,D11,1*%
%TO.N,P20*%
X244190000Y-65250000D03*
D11*
X246350000Y-65250000D03*
%TO.P,D11,2*%
%TO.N,index_home*%
X249650000Y-65250000D03*
D12*
X251810000Y-65250000D03*
%TD*%
D34*
%TO.P,D16,1*%
%TO.N,P18*%
X234618030Y-109522740D03*
D35*
X236769811Y-109334484D03*
%TO.P,D16,2*%
%TO.N,mod_cluster*%
X240057253Y-109046870D03*
D12*
X242209034Y-108858614D03*
%TD*%
D36*
%TO.N,P14*%
X281205000Y-73795000D03*
%TO.N,P16*%
X283000000Y-74000000D03*
X283000000Y-69000000D03*
%TO.N,P7*%
X236500000Y-31000000D03*
X226000000Y-74000000D03*
X234000000Y-95500000D03*
X226000000Y-54500000D03*
%TO.N,P9*%
X188000000Y-65500000D03*
X191000000Y-40000000D03*
X186000000Y-79500000D03*
%TO.N,RAW*%
X294000000Y-77500000D03*
%TO.N,RST*%
X290500000Y-54500000D03*
%TO.N,P5*%
X263908902Y-40942671D03*
X281000000Y-103000000D03*
X264000000Y-78500000D03*
X264000000Y-58500000D03*
%TO.N,P6*%
X254000000Y-34000000D03*
X245500000Y-56500000D03*
X257500000Y-95500000D03*
X245000000Y-76000000D03*
%TO.N,P8*%
X210000000Y-34000000D03*
X207000000Y-59000000D03*
X204500000Y-73000000D03*
%TO.N,pos*%
X296000000Y-74500000D03*
%TD*%
D37*
%TO.N,*%
X297570000Y-80250000D02*
X287770000Y-80250000D01*
X287770000Y-80250000D02*
X287380000Y-79860000D01*
X298220000Y-74350000D02*
X300430000Y-74350000D01*
X298220000Y-81650000D02*
X300430000Y-81650000D01*
X297570000Y-81000000D02*
X298220000Y-81650000D01*
X297570000Y-80250000D02*
X297570000Y-81000000D01*
X300430000Y-74350000D02*
X300430000Y-81650000D01*
%TO.N,P14*%
X281205000Y-73795000D02*
X281205000Y-86635000D01*
X281205000Y-86635000D02*
X279880000Y-87960000D01*
%TO.N,pinky_bottom*%
X192650000Y-92250000D02*
X194810000Y-92250000D01*
X199275000Y-87785000D02*
X194810000Y-92250000D01*
X199275000Y-83500000D02*
X199275000Y-87785000D01*
%TO.N,pinky_home*%
X199275000Y-64500000D02*
X199275000Y-68785000D01*
X192650000Y-73250000D02*
X194810000Y-73250000D01*
X199275000Y-68785000D02*
X194810000Y-73250000D01*
%TO.N,pinky_top*%
X199275000Y-49785000D02*
X194810000Y-54250000D01*
X192650000Y-54250000D02*
X194810000Y-54250000D01*
X199275000Y-45500000D02*
X199275000Y-49785000D01*
%TO.N,P16*%
X287230000Y-82960000D02*
X283000000Y-78730000D01*
X283000000Y-78730000D02*
X283000000Y-74000000D01*
X294380000Y-82960000D02*
X287230000Y-82960000D01*
X280980000Y-63180000D02*
X283000000Y-65200000D01*
X283000000Y-65200000D02*
X283000000Y-69000000D01*
%TO.N,ring_bottom*%
X218275000Y-81785000D02*
X213810000Y-86250000D01*
X213810000Y-86250000D02*
X211650000Y-86250000D01*
X218275000Y-77500000D02*
X218275000Y-81785000D01*
%TO.N,ring_home*%
X211650000Y-67250000D02*
X213810000Y-67250000D01*
X218275000Y-62785000D02*
X213810000Y-67250000D01*
X218275000Y-58500000D02*
X218275000Y-62785000D01*
%TO.N,ring_top*%
X218275000Y-43785000D02*
X213810000Y-48250000D01*
X218275000Y-39500000D02*
X218275000Y-43785000D01*
X211650000Y-48250000D02*
X213810000Y-48250000D01*
%TO.N,middle_bottom*%
X230650000Y-81250000D02*
X232810000Y-81250000D01*
X237275000Y-72500000D02*
X237275000Y-76785000D01*
X237275000Y-76785000D02*
X232810000Y-81250000D01*
%TO.N,middle_home*%
X237275000Y-53500000D02*
X237275000Y-57785000D01*
X232810000Y-62250000D02*
X230650000Y-62250000D01*
X237275000Y-57785000D02*
X232810000Y-62250000D01*
%TO.N,middle_top*%
X237275000Y-38785000D02*
X232810000Y-43250000D01*
X230650000Y-43250000D02*
X232810000Y-43250000D01*
X237275000Y-34500000D02*
X237275000Y-38785000D01*
%TO.N,P7*%
X234196639Y-95303361D02*
X234000000Y-95500000D01*
X225875000Y-54625000D02*
X225875000Y-59137000D01*
X223976000Y-42036000D02*
X223976000Y-49551000D01*
X225725000Y-32300000D02*
X225875000Y-32450000D01*
X227600000Y-30425000D02*
X236425000Y-30425000D01*
X226000000Y-54500000D02*
X225875000Y-54625000D01*
X236425000Y-30425000D02*
X236500000Y-30500000D01*
X225875000Y-54375000D02*
X226000000Y-54500000D01*
X294386687Y-32975000D02*
X298450000Y-37038313D01*
X225875000Y-74125000D02*
X225875000Y-78075000D01*
X225875000Y-51450000D02*
X225875000Y-54375000D01*
X236500000Y-30500000D02*
X236500000Y-31000000D01*
X234000000Y-95500000D02*
X234196639Y-95696639D01*
X225875000Y-73875000D02*
X226000000Y-74000000D01*
X237000000Y-31000000D02*
X239500000Y-33500000D01*
X225875000Y-70450000D02*
X225875000Y-73875000D01*
X298450000Y-37038313D02*
X298450000Y-58410000D01*
X225725000Y-51300000D02*
X225875000Y-51450000D01*
X234196639Y-95696639D02*
X234196639Y-98567781D01*
X225725000Y-70300000D02*
X225875000Y-70450000D01*
X223976000Y-68551000D02*
X225725000Y-70300000D01*
X225875000Y-59137000D02*
X223976000Y-61036000D01*
X234196639Y-86396639D02*
X234196639Y-95303361D01*
X223976000Y-61036000D02*
X223976000Y-68551000D01*
X226000000Y-74000000D02*
X225875000Y-74125000D01*
X236500000Y-31000000D02*
X237000000Y-31000000D01*
X239500000Y-33500000D02*
X240025000Y-32975000D01*
X298450000Y-58410000D02*
X296220000Y-60640000D01*
X225875000Y-40137000D02*
X223976000Y-42036000D01*
X223976000Y-49551000D02*
X225725000Y-51300000D01*
X240025000Y-32975000D02*
X294386687Y-32975000D01*
X225875000Y-78075000D02*
X234196639Y-86396639D01*
X225725000Y-32300000D02*
X227600000Y-30425000D01*
X225875000Y-32450000D02*
X225875000Y-40137000D01*
%TO.N,index_bottom*%
X256275000Y-79785000D02*
X251810000Y-84250000D01*
X249650000Y-84250000D02*
X251810000Y-84250000D01*
X256275000Y-75500000D02*
X256275000Y-79785000D01*
%TO.N,index_home*%
X256275000Y-56500000D02*
X256275000Y-60785000D01*
X251810000Y-65250000D02*
X249650000Y-65250000D01*
X256275000Y-60785000D02*
X251810000Y-65250000D01*
%TO.N,index_top*%
X256275000Y-41785000D02*
X251810000Y-46250000D01*
X249650000Y-46250000D02*
X251810000Y-46250000D01*
X256275000Y-37500000D02*
X256275000Y-41785000D01*
%TO.N,P9*%
X299500000Y-36815521D02*
X299500000Y-62440000D01*
X253450000Y-29525000D02*
X256000000Y-32075000D01*
X188000000Y-65500000D02*
X187875000Y-65625000D01*
X187725000Y-43300000D02*
X191000000Y-40025000D01*
X191000000Y-40000000D02*
X191025000Y-40000000D01*
X187875000Y-62875000D02*
X187875000Y-65375000D01*
X186000000Y-79500000D02*
X185976000Y-79524000D01*
X191025000Y-40000000D02*
X198500000Y-40000000D01*
X294759479Y-32075000D02*
X299500000Y-36815521D01*
X187725000Y-43300000D02*
X187875000Y-43450000D01*
X187875000Y-70137000D02*
X185976000Y-72036000D01*
X256000000Y-32075000D02*
X294759479Y-32075000D01*
X185976000Y-60551000D02*
X187725000Y-62300000D01*
X185976000Y-79551000D02*
X187725000Y-81300000D01*
X299500000Y-62440000D02*
X296220000Y-65720000D01*
X191000000Y-40025000D02*
X191000000Y-40000000D01*
X187875000Y-43450000D02*
X187875000Y-51125000D01*
X206568198Y-31931802D02*
X219431802Y-31931802D01*
X187875000Y-65375000D02*
X188000000Y-65500000D01*
X185976000Y-79524000D02*
X185976000Y-79551000D01*
X198500000Y-40000000D02*
X206568198Y-31931802D01*
X191025000Y-40000000D02*
X191025000Y-40000000D01*
X185976000Y-53024000D02*
X185976000Y-60551000D01*
X187725000Y-62725000D02*
X187875000Y-62875000D01*
X221838604Y-29525000D02*
X253450000Y-29525000D01*
X187875000Y-51125000D02*
X185976000Y-53024000D01*
X219431802Y-31931802D02*
X221838604Y-29525000D01*
X187725000Y-62300000D02*
X187725000Y-62725000D01*
X187875000Y-65625000D02*
X187875000Y-70137000D01*
X185976000Y-72036000D02*
X185976000Y-79476000D01*
X185976000Y-79476000D02*
X186000000Y-79500000D01*
%TO.N,inner_bottom*%
X268650000Y-86250000D02*
X270810000Y-86250000D01*
X275275000Y-77500000D02*
X275275000Y-81785000D01*
X275275000Y-81785000D02*
X270810000Y-86250000D01*
%TO.N,inner_home*%
X275275000Y-62785000D02*
X270810000Y-67250000D01*
X270810000Y-67250000D02*
X268650000Y-67250000D01*
X275275000Y-58500000D02*
X275275000Y-62785000D01*
%TO.N,inner_top*%
X275275000Y-39500000D02*
X275275000Y-43785000D01*
X275275000Y-43785000D02*
X270810000Y-48250000D01*
X268650000Y-48250000D02*
X270810000Y-48250000D01*
%TO.N,mod_cluster*%
X245894430Y-105173218D02*
X242209034Y-108858614D01*
X240057253Y-109046870D02*
X242020778Y-109046870D01*
X242020778Y-109046870D02*
X242209034Y-108858614D01*
X245894430Y-99752760D02*
X245894430Y-105173218D01*
%TO.N,layer_cluster*%
X268518271Y-102611346D02*
X268518271Y-104536489D01*
X260474498Y-110077994D02*
X262226604Y-110077994D01*
X262226604Y-110077994D02*
X262601685Y-110453075D01*
X268518271Y-104536489D02*
X262601685Y-110453075D01*
%TO.N,space_cluster*%
X281620578Y-118153965D02*
X280707722Y-117241109D01*
X290409920Y-112110762D02*
X284366717Y-118153965D01*
X284366717Y-118153965D02*
X282665347Y-118153965D01*
X282665347Y-118153965D02*
X281620578Y-118153965D01*
%TO.N,RAW*%
X277500000Y-37500000D02*
X277780000Y-37780000D01*
X288254900Y-77500000D02*
X277000000Y-66245100D01*
X295250000Y-78750000D02*
X294000000Y-77500000D01*
X294000000Y-77500000D02*
X288254900Y-77500000D01*
X277000000Y-66245100D02*
X277000000Y-37500000D01*
X297570000Y-78750000D02*
X295250000Y-78750000D01*
X277000000Y-37500000D02*
X277500000Y-37500000D01*
X277780000Y-37780000D02*
X280980000Y-37780000D01*
%TO.N,RST*%
X290500000Y-52380000D02*
X280980000Y-42860000D01*
X290500000Y-54500000D02*
X290500000Y-52380000D01*
%TO.N,VCC*%
X287070000Y-67650000D02*
X287070000Y-51490000D01*
X287070000Y-51490000D02*
X280980000Y-45400000D01*
X287920000Y-68500000D02*
X287070000Y-67650000D01*
%TO.N,P21*%
X206190000Y-48250000D02*
X208350000Y-48250000D01*
X263190000Y-48250000D02*
X265350000Y-48250000D01*
X187190000Y-54250000D02*
X189350000Y-54250000D01*
X244190000Y-46250000D02*
X246350000Y-46250000D01*
X225190000Y-43250000D02*
X227350000Y-43250000D01*
%TO.N,P20*%
X187190000Y-73250000D02*
X189350000Y-73250000D01*
X263190000Y-67250000D02*
X265350000Y-67250000D01*
X225190000Y-62250000D02*
X227350000Y-62250000D01*
X244190000Y-65250000D02*
X246350000Y-65250000D01*
X206190000Y-67250000D02*
X208350000Y-67250000D01*
%TO.N,P19*%
X208350000Y-86250000D02*
X206190000Y-86250000D01*
X263190000Y-86250000D02*
X265350000Y-86250000D01*
X244190000Y-84250000D02*
X246350000Y-84250000D01*
X225190000Y-81250000D02*
X227350000Y-81250000D01*
X187190000Y-92250000D02*
X189350000Y-92250000D01*
%TO.N,P18*%
X256849551Y-109129875D02*
X257224632Y-109504956D01*
X234618030Y-109522740D02*
X236581555Y-109522740D01*
X275759281Y-114933613D02*
X276804050Y-114933613D01*
X236581555Y-109522740D02*
X236769811Y-109334484D01*
X276804050Y-114933613D02*
X277716906Y-115846469D01*
X255097445Y-109129875D02*
X256849551Y-109129875D01*
%TO.N,P3*%
X292478700Y-54221300D02*
X292478700Y-66481300D01*
X296220000Y-50480000D02*
X292478700Y-54221300D01*
X292478700Y-66481300D02*
X290460000Y-68500000D01*
%TO.N,P5*%
X263875000Y-58625000D02*
X263875000Y-64137000D01*
X263875000Y-37450000D02*
X263875000Y-40908769D01*
X263725000Y-37300000D02*
X265600000Y-35425000D01*
X263725000Y-56300000D02*
X263875000Y-56450000D01*
X261976000Y-47036000D02*
X261976000Y-54551000D01*
X261976000Y-54551000D02*
X263725000Y-56300000D01*
X263875000Y-78625000D02*
X263875000Y-83075000D01*
X280871826Y-100071826D02*
X280871826Y-102871826D01*
X261500000Y-66512000D02*
X261500000Y-73075000D01*
X281000000Y-103000000D02*
X280871826Y-103128174D01*
X263875000Y-83075000D02*
X280871826Y-100071826D01*
X263875000Y-78375000D02*
X264000000Y-78500000D01*
X265600000Y-35425000D02*
X295563895Y-35425000D01*
X264000000Y-58500000D02*
X263875000Y-58625000D01*
X263875000Y-40976573D02*
X263875000Y-45137000D01*
X280871826Y-103128174D02*
X280871826Y-105235644D01*
X297421300Y-37282405D02*
X297421300Y-54358700D01*
X261500000Y-73075000D02*
X263725000Y-75300000D01*
X263875000Y-58375000D02*
X264000000Y-58500000D01*
X295563895Y-35425000D02*
X297421300Y-37282405D01*
X263875000Y-40908769D02*
X263908902Y-40942671D01*
X263875000Y-56450000D02*
X263875000Y-58375000D01*
X263875000Y-75450000D02*
X263875000Y-78375000D01*
X263875000Y-64137000D02*
X261500000Y-66512000D01*
X263725000Y-37300000D02*
X263875000Y-37450000D01*
X263875000Y-45137000D02*
X261976000Y-47036000D01*
X264000000Y-78500000D02*
X263875000Y-78625000D01*
X297421300Y-54358700D02*
X296220000Y-55560000D01*
X263908902Y-40942671D02*
X263875000Y-40976573D01*
X263725000Y-75300000D02*
X263875000Y-75450000D01*
X280871826Y-102871826D02*
X281000000Y-103000000D01*
%TO.N,P6*%
X244725000Y-35300000D02*
X244875000Y-35450000D01*
X245575000Y-56575000D02*
X245575000Y-61437000D01*
X244725000Y-54300000D02*
X245575000Y-55150000D01*
X242976000Y-45036000D02*
X242976000Y-52551000D01*
X242976000Y-52551000D02*
X244725000Y-54300000D01*
X253425000Y-33425000D02*
X254000000Y-34000000D01*
X242976000Y-71551000D02*
X244725000Y-73300000D01*
X244875000Y-43137000D02*
X242976000Y-45036000D01*
X245004999Y-81179999D02*
X257525767Y-93700767D01*
X295750291Y-34975000D02*
X298000000Y-37224709D01*
X245004999Y-75995001D02*
X245000000Y-76000000D01*
X244725000Y-73300000D02*
X245004999Y-73579999D01*
X245575000Y-56425000D02*
X245500000Y-56500000D01*
X254000000Y-34000000D02*
X255000000Y-35000000D01*
X255025000Y-34975000D02*
X295750291Y-34975000D01*
X246600000Y-33425000D02*
X253425000Y-33425000D01*
X298000000Y-37224709D02*
X298000000Y-56320000D01*
X245004999Y-76004999D02*
X245004999Y-81179999D01*
X257525767Y-95525767D02*
X257525767Y-98439132D01*
X244875000Y-35450000D02*
X244875000Y-43137000D01*
X257525767Y-95474233D02*
X257500000Y-95500000D01*
X245575000Y-61437000D02*
X242976000Y-64036000D01*
X245500000Y-56500000D02*
X245575000Y-56575000D01*
X257525767Y-93700767D02*
X257525767Y-95474233D01*
X245004999Y-73579999D02*
X245004999Y-75995001D01*
X298000000Y-56320000D02*
X296220000Y-58100000D01*
X257500000Y-95500000D02*
X257525767Y-95525767D01*
X245000000Y-76000000D02*
X245004999Y-76004999D01*
X245575000Y-55150000D02*
X245575000Y-56425000D01*
X242976000Y-64036000D02*
X242976000Y-71551000D01*
X255000000Y-35000000D02*
X255025000Y-34975000D01*
X244725000Y-35300000D02*
X246600000Y-33425000D01*
%TO.N,P8*%
X210025000Y-34000000D02*
X210000000Y-34000000D01*
X218000000Y-34000000D02*
X210025000Y-34000000D01*
X239161396Y-32525000D02*
X294573083Y-32525000D01*
X204500000Y-54075000D02*
X206725000Y-56300000D01*
X226713604Y-30675000D02*
X227413604Y-29975000D01*
X298900000Y-60500000D02*
X296220000Y-63180000D01*
X227413604Y-29975000D02*
X236611396Y-29975000D01*
X210000000Y-34025000D02*
X206725000Y-37300000D01*
X210025000Y-34000000D02*
X210025000Y-34000000D01*
X207000000Y-59000000D02*
X206875000Y-59125000D01*
X204500000Y-47500000D02*
X204500000Y-54075000D01*
X206875000Y-64075000D02*
X204500000Y-66450000D01*
X206725000Y-56300000D02*
X206875000Y-56450000D01*
X221325000Y-30675000D02*
X218000000Y-34000000D01*
X206725000Y-37300000D02*
X206875000Y-37450000D01*
X206875000Y-58875000D02*
X207000000Y-59000000D01*
X204500000Y-73000000D02*
X204500000Y-73075000D01*
X206875000Y-56450000D02*
X206875000Y-58875000D01*
X204500000Y-73075000D02*
X206725000Y-75300000D01*
X298900000Y-36851917D02*
X298900000Y-60500000D01*
X226713604Y-30675000D02*
X221325000Y-30675000D01*
X206875000Y-45125000D02*
X204500000Y-47500000D01*
X206875000Y-59125000D02*
X206875000Y-64075000D01*
X294573083Y-32525000D02*
X298900000Y-36851917D01*
X210000000Y-34000000D02*
X210000000Y-34025000D01*
X206875000Y-37450000D02*
X206875000Y-45125000D01*
X204500000Y-66450000D02*
X204500000Y-73000000D01*
X236611396Y-29975000D02*
X239161396Y-32525000D01*
%TO.N,pos*%
X287050000Y-74500000D02*
X296000000Y-74500000D01*
X296320000Y-74500000D02*
X297570000Y-75750000D01*
X296000000Y-74500000D02*
X296320000Y-74500000D01*
%TD*%
M02*
