%TF.GenerationSoftware,KiCad,Pcbnew,8.0.1*%
%TF.CreationDate,2024-03-26T11:55:02+01:00*%
%TF.ProjectId,main_board,6d61696e-5f62-46f6-9172-642e6b696361,v1.0.0*%
%TF.SameCoordinates,Original*%
%TF.FileFunction,Copper,L1,Top*%
%TF.FilePolarity,Positive*%
%FSLAX46Y46*%
G04 Gerber Fmt 4.6, Leading zero omitted, Abs format (unit mm)*
G04 Created by KiCad (PCBNEW 8.0.1) date 2024-03-26 11:55:02*
%MOMM*%
%LPD*%
G01*
G04 APERTURE LIST*
G04 Aperture macros list*
%AMRoundRect*
0 Rectangle with rounded corners*
0 $1 Rounding radius*
0 $2 $3 $4 $5 $6 $7 $8 $9 X,Y pos of 4 corners*
0 Add a 4 corners polygon primitive as box body*
4,1,4,$2,$3,$4,$5,$6,$7,$8,$9,$2,$3,0*
0 Add four circle primitives for the rounded corners*
1,1,$1+$1,$2,$3*
1,1,$1+$1,$4,$5*
1,1,$1+$1,$6,$7*
1,1,$1+$1,$8,$9*
0 Add four rect primitives between the rounded corners*
20,1,$1+$1,$2,$3,$4,$5,0*
20,1,$1+$1,$4,$5,$6,$7,0*
20,1,$1+$1,$6,$7,$8,$9,0*
20,1,$1+$1,$8,$9,$2,$3,0*%
%AMRotRect*
0 Rectangle, with rotation*
0 The origin of the aperture is its center*
0 $1 length*
0 $2 width*
0 $3 Rotation angle, in degrees counterclockwise*
0 Add horizontal line*
21,1,$1,$2,0,0,$3*%
G04 Aperture macros list end*
%TA.AperFunction,ComponentPad*%
%ADD10R,1.778000X1.778000*%
%TD*%
%TA.AperFunction,SMDPad,CuDef*%
%ADD11R,0.900000X1.200000*%
%TD*%
%TA.AperFunction,ComponentPad*%
%ADD12C,1.905000*%
%TD*%
%TA.AperFunction,ComponentPad*%
%ADD13R,3.200000X2.000000*%
%TD*%
%TA.AperFunction,ComponentPad*%
%ADD14C,1.500000*%
%TD*%
%TA.AperFunction,ComponentPad*%
%ADD15R,2.000000X2.000000*%
%TD*%
%TA.AperFunction,ComponentPad*%
%ADD16C,2.000000*%
%TD*%
%TA.AperFunction,SMDPad,CuDef*%
%ADD17R,2.600000X2.600000*%
%TD*%
%TA.AperFunction,SMDPad,CuDef*%
%ADD18RotRect,2.600000X2.600000X350.000000*%
%TD*%
%TA.AperFunction,ComponentPad*%
%ADD19RotRect,1.778000X1.778000X335.000000*%
%TD*%
%TA.AperFunction,SMDPad,CuDef*%
%ADD20RotRect,0.900000X1.200000X335.000000*%
%TD*%
%TA.AperFunction,SMDPad,CuDef*%
%ADD21RotRect,2.600000X2.600000X5.000000*%
%TD*%
%TA.AperFunction,ComponentPad*%
%ADD22RotRect,1.778000X1.778000X350.000000*%
%TD*%
%TA.AperFunction,SMDPad,CuDef*%
%ADD23RotRect,0.900000X1.200000X350.000000*%
%TD*%
%TA.AperFunction,ComponentPad*%
%ADD24R,1.400000X1.500000*%
%TD*%
%TA.AperFunction,ComponentPad*%
%ADD25R,1.752600X1.752600*%
%TD*%
%TA.AperFunction,ComponentPad*%
%ADD26C,1.752600*%
%TD*%
%TA.AperFunction,ComponentPad*%
%ADD27R,1.700000X1.700000*%
%TD*%
%TA.AperFunction,ComponentPad*%
%ADD28O,1.700000X1.700000*%
%TD*%
%TA.AperFunction,SMDPad,CuDef*%
%ADD29RotRect,2.600000X2.600000X335.000000*%
%TD*%
%TA.AperFunction,ComponentPad*%
%ADD30RoundRect,0.250000X0.625000X-0.350000X0.625000X0.350000X-0.625000X0.350000X-0.625000X-0.350000X0*%
%TD*%
%TA.AperFunction,ComponentPad*%
%ADD31O,1.750000X1.200000*%
%TD*%
%TA.AperFunction,SMDPad,CuDef*%
%ADD32R,0.800000X1.000000*%
%TD*%
%TA.AperFunction,SMDPad,CuDef*%
%ADD33R,1.500000X0.700000*%
%TD*%
%TA.AperFunction,ComponentPad*%
%ADD34RotRect,1.778000X1.778000X5.000000*%
%TD*%
%TA.AperFunction,SMDPad,CuDef*%
%ADD35RotRect,0.900000X1.200000X5.000000*%
%TD*%
%TA.AperFunction,ViaPad*%
%ADD36C,0.800000*%
%TD*%
%TA.AperFunction,Conductor*%
%ADD37C,0.250000*%
%TD*%
G04 APERTURE END LIST*
D10*
%TO.P,D3,1*%
%TO.N,P21*%
X187190000Y-54250000D03*
D11*
X189350000Y-54250000D03*
%TO.P,D3,2*%
%TO.N,pinky_top*%
X192650000Y-54250000D03*
D12*
X194810000Y-54250000D03*
%TD*%
D13*
%TO.P,ROT1,*%
%TO.N,*%
X287380000Y-79860000D03*
X287380000Y-91060000D03*
D14*
%TO.P,ROT1,1*%
%TO.N,P16*%
X294380000Y-82960000D03*
%TO.P,ROT1,2*%
%TO.N,GND*%
X294380000Y-87960000D03*
D15*
%TO.P,ROT1,A*%
%TO.N,P15*%
X279880000Y-82960000D03*
D16*
%TO.P,ROT1,B*%
%TO.N,P14*%
X279880000Y-87960000D03*
%TO.P,ROT1,C*%
%TO.N,GND*%
X279880000Y-85460000D03*
%TD*%
D17*
%TO.P,S3,1*%
%TO.N,P9*%
X194275000Y-43300000D03*
%TO.P,S3,2*%
%TO.N,pinky_top*%
X182725000Y-45500000D03*
%TD*%
D18*
%TO.P,S17,1*%
%TO.N,P6*%
X263976258Y-99576528D03*
%TO.P,S17,2*%
%TO.N,layer_cluster*%
X252219703Y-99737468D03*
%TD*%
D19*
%TO.P,D18,1*%
%TO.N,P18*%
X275759281Y-114933613D03*
D20*
X277716906Y-115846469D03*
%TO.P,D18,2*%
%TO.N,space_cluster*%
X280707722Y-117241109D03*
D12*
X282665347Y-118153965D03*
%TD*%
D17*
%TO.P,S1,1*%
%TO.N,P9*%
X194275000Y-81300000D03*
%TO.P,S1,2*%
%TO.N,pinky_bottom*%
X182725000Y-83500000D03*
%TD*%
D21*
%TO.P,S16,1*%
%TO.N,P7*%
X240721714Y-97996910D03*
%TO.P,S16,2*%
%TO.N,mod_cluster*%
X229407408Y-101195188D03*
%TD*%
D17*
%TO.P,S15,1*%
%TO.N,P5*%
X270275000Y-37300000D03*
%TO.P,S15,2*%
%TO.N,inner_top*%
X258725000Y-39500000D03*
%TD*%
D10*
%TO.P,D15,1*%
%TO.N,P21*%
X263190000Y-48250000D03*
D11*
X265350000Y-48250000D03*
%TO.P,D15,2*%
%TO.N,inner_top*%
X268650000Y-48250000D03*
D12*
X270810000Y-48250000D03*
%TD*%
D17*
%TO.P,S14,1*%
%TO.N,P5*%
X270275000Y-56300000D03*
%TO.P,S14,2*%
%TO.N,inner_home*%
X258725000Y-58500000D03*
%TD*%
%TO.P,S9,1*%
%TO.N,P7*%
X232275000Y-32300000D03*
%TO.P,S9,2*%
%TO.N,middle_top*%
X220725000Y-34500000D03*
%TD*%
D22*
%TO.P,D17,1*%
%TO.N,P18*%
X255097445Y-109129875D03*
D23*
X257224632Y-109504956D03*
%TO.P,D17,2*%
%TO.N,layer_cluster*%
X260474498Y-110077994D03*
D12*
X262601685Y-110453075D03*
%TD*%
D10*
%TO.P,D8,1*%
%TO.N,P20*%
X225190000Y-62250000D03*
D11*
X227350000Y-62250000D03*
%TO.P,D8,2*%
%TO.N,middle_home*%
X230650000Y-62250000D03*
D12*
X232810000Y-62250000D03*
%TD*%
D17*
%TO.P,S10,1*%
%TO.N,P6*%
X251275000Y-73300000D03*
%TO.P,S10,2*%
%TO.N,index_bottom*%
X239725000Y-75500000D03*
%TD*%
D10*
%TO.P,D6,1*%
%TO.N,P21*%
X206190000Y-48250000D03*
D11*
X208350000Y-48250000D03*
%TO.P,D6,2*%
%TO.N,ring_top*%
X211650000Y-48250000D03*
D12*
X213810000Y-48250000D03*
%TD*%
D10*
%TO.P,D4,1*%
%TO.N,P19*%
X206190000Y-86250000D03*
D11*
X208350000Y-86250000D03*
%TO.P,D4,2*%
%TO.N,ring_bottom*%
X211650000Y-86250000D03*
D12*
X213810000Y-86250000D03*
%TD*%
D17*
%TO.P,S4,1*%
%TO.N,P8*%
X213275000Y-75300000D03*
%TO.P,S4,2*%
%TO.N,ring_bottom*%
X201725000Y-77500000D03*
%TD*%
%TO.P,S6,1*%
%TO.N,P8*%
X213275000Y-37300000D03*
%TO.P,S6,2*%
%TO.N,ring_top*%
X201725000Y-39500000D03*
%TD*%
D10*
%TO.P,D5,1*%
%TO.N,P20*%
X206190000Y-67250000D03*
D11*
X208350000Y-67250000D03*
%TO.P,D5,2*%
%TO.N,ring_home*%
X211650000Y-67250000D03*
D12*
X213810000Y-67250000D03*
%TD*%
D10*
%TO.P,D12,1*%
%TO.N,P21*%
X244190000Y-46250000D03*
D11*
X246350000Y-46250000D03*
%TO.P,D12,2*%
%TO.N,index_top*%
X249650000Y-46250000D03*
D12*
X251810000Y-46250000D03*
%TD*%
D24*
%TO.P,S19,1*%
%TO.N,RST*%
X298500000Y-90750000D03*
%TO.P,S19,2*%
%TO.N,GND*%
X298500000Y-84250000D03*
%TD*%
D17*
%TO.P,S11,1*%
%TO.N,P6*%
X251275000Y-54300000D03*
%TO.P,S11,2*%
%TO.N,index_home*%
X239725000Y-56500000D03*
%TD*%
D10*
%TO.P,D1,1*%
%TO.N,P19*%
X187190000Y-92250000D03*
D11*
X189350000Y-92250000D03*
%TO.P,D1,2*%
%TO.N,pinky_bottom*%
X192650000Y-92250000D03*
D12*
X194810000Y-92250000D03*
%TD*%
D10*
%TO.P,D9,1*%
%TO.N,P21*%
X225190000Y-43250000D03*
D11*
X227350000Y-43250000D03*
%TO.P,D9,2*%
%TO.N,middle_top*%
X230650000Y-43250000D03*
D12*
X232810000Y-43250000D03*
%TD*%
D17*
%TO.P,S8,1*%
%TO.N,P7*%
X232275000Y-51300000D03*
%TO.P,S8,2*%
%TO.N,middle_home*%
X220725000Y-53500000D03*
%TD*%
D10*
%TO.P,D10,1*%
%TO.N,P19*%
X244190000Y-84250000D03*
D11*
X246350000Y-84250000D03*
%TO.P,D10,2*%
%TO.N,index_bottom*%
X249650000Y-84250000D03*
D12*
X251810000Y-84250000D03*
%TD*%
D25*
%TO.P,MCU1,1*%
%TO.N,RAW*%
X280980000Y-37780000D03*
D26*
%TO.P,MCU1,2*%
%TO.N,GND*%
X280980000Y-40320000D03*
%TO.P,MCU1,3*%
%TO.N,RST*%
X280980000Y-42860000D03*
%TO.P,MCU1,4*%
%TO.N,VCC*%
X280980000Y-45400000D03*
%TO.P,MCU1,5*%
%TO.N,P21*%
X280980000Y-47940000D03*
%TO.P,MCU1,6*%
%TO.N,P20*%
X280980000Y-50480000D03*
%TO.P,MCU1,7*%
%TO.N,P19*%
X280980000Y-53020000D03*
%TO.P,MCU1,8*%
%TO.N,P18*%
X280980000Y-55560000D03*
%TO.P,MCU1,9*%
%TO.N,P15*%
X280980000Y-58100000D03*
%TO.P,MCU1,10*%
%TO.N,P14*%
X280980000Y-60640000D03*
%TO.P,MCU1,11*%
%TO.N,P16*%
X280980000Y-63180000D03*
%TO.P,MCU1,12*%
%TO.N,P10*%
X280980000Y-65720000D03*
%TO.P,MCU1,13*%
%TO.N,P1*%
X296220000Y-37780000D03*
%TO.P,MCU1,14*%
%TO.N,P0*%
X296220000Y-40320000D03*
%TO.P,MCU1,15*%
%TO.N,GND*%
X296220000Y-42860000D03*
%TO.P,MCU1,16*%
X296220000Y-45400000D03*
%TO.P,MCU1,17*%
%TO.N,P2*%
X296220000Y-47940000D03*
%TO.P,MCU1,18*%
%TO.N,P3*%
X296220000Y-50480000D03*
%TO.P,MCU1,19*%
%TO.N,P4*%
X296220000Y-53020000D03*
%TO.P,MCU1,20*%
%TO.N,P5*%
X296220000Y-55560000D03*
%TO.P,MCU1,21*%
%TO.N,P6*%
X296220000Y-58100000D03*
%TO.P,MCU1,22*%
%TO.N,P7*%
X296220000Y-60640000D03*
%TO.P,MCU1,23*%
%TO.N,P8*%
X296220000Y-63180000D03*
%TO.P,MCU1,24*%
%TO.N,P9*%
X296220000Y-65720000D03*
%TO.P,MCU1,25*%
%TO.N,NN_101*%
X293680000Y-60640000D03*
%TO.P,MCU1,26*%
%TO.N,NN_102*%
X291140000Y-60640000D03*
%TO.P,MCU1,27*%
%TO.N,NN_107*%
X288600000Y-60640000D03*
%TD*%
D17*
%TO.P,S7,1*%
%TO.N,P7*%
X232275000Y-70300000D03*
%TO.P,S7,2*%
%TO.N,middle_bottom*%
X220725000Y-72500000D03*
%TD*%
D27*
%TO.P,OLED1,1*%
%TO.N,GND*%
X285380000Y-68500000D03*
D28*
%TO.P,OLED1,2*%
%TO.N,VCC*%
X287920000Y-68500000D03*
%TO.P,OLED1,3*%
%TO.N,P3*%
X290460000Y-68500000D03*
%TO.P,OLED1,4*%
%TO.N,P2*%
X293000000Y-68500000D03*
%TD*%
D29*
%TO.P,S18,1*%
%TO.N,P5*%
X286808142Y-108003793D03*
%TO.P,S18,2*%
%TO.N,space_cluster*%
X275410527Y-105116430D03*
%TD*%
D30*
%TO.P,_1,1*%
%TO.N,pos*%
X287050000Y-74500000D03*
D31*
%TO.P,_1,2*%
%TO.N,GND*%
X287050000Y-72500000D03*
%TD*%
D10*
%TO.P,D14,1*%
%TO.N,P20*%
X263190000Y-67250000D03*
D11*
X265350000Y-67250000D03*
%TO.P,D14,2*%
%TO.N,inner_home*%
X268650000Y-67250000D03*
D12*
X270810000Y-67250000D03*
%TD*%
D10*
%TO.P,D13,1*%
%TO.N,P19*%
X263190000Y-86250000D03*
D11*
X265350000Y-86250000D03*
%TO.P,D13,2*%
%TO.N,inner_bottom*%
X268650000Y-86250000D03*
D12*
X270810000Y-86250000D03*
%TD*%
D17*
%TO.P,S13,1*%
%TO.N,P5*%
X270275000Y-75300000D03*
%TO.P,S13,2*%
%TO.N,inner_bottom*%
X258725000Y-77500000D03*
%TD*%
D10*
%TO.P,D7,1*%
%TO.N,P19*%
X225190000Y-81250000D03*
D11*
X227350000Y-81250000D03*
%TO.P,D7,2*%
%TO.N,middle_bottom*%
X230650000Y-81250000D03*
D12*
X232810000Y-81250000D03*
%TD*%
D17*
%TO.P,S2,1*%
%TO.N,P9*%
X194275000Y-62300000D03*
%TO.P,S2,2*%
%TO.N,pinky_home*%
X182725000Y-64500000D03*
%TD*%
D32*
%TO.P,T1,*%
%TO.N,*%
X298220000Y-81650000D03*
X300430000Y-81650000D03*
D33*
X297570000Y-75750000D03*
D32*
X298220000Y-74350000D03*
X300430000Y-74350000D03*
D33*
%TO.P,T1,1*%
%TO.N,pos*%
X297570000Y-80250000D03*
%TO.P,T1,2*%
%TO.N,RAW*%
X297570000Y-77250000D03*
%TD*%
D10*
%TO.P,D2,1*%
%TO.N,P20*%
X187190000Y-73250000D03*
D11*
X189350000Y-73250000D03*
%TO.P,D2,2*%
%TO.N,pinky_home*%
X192650000Y-73250000D03*
D12*
X194810000Y-73250000D03*
%TD*%
D17*
%TO.P,S12,1*%
%TO.N,P6*%
X251275000Y-35300000D03*
%TO.P,S12,2*%
%TO.N,index_top*%
X239725000Y-37500000D03*
%TD*%
%TO.P,S5,1*%
%TO.N,P8*%
X213275000Y-56300000D03*
%TO.P,S5,2*%
%TO.N,ring_home*%
X201725000Y-58500000D03*
%TD*%
D10*
%TO.P,D11,1*%
%TO.N,P20*%
X244190000Y-65250000D03*
D11*
X246350000Y-65250000D03*
%TO.P,D11,2*%
%TO.N,index_home*%
X249650000Y-65250000D03*
D12*
X251810000Y-65250000D03*
%TD*%
D34*
%TO.P,D16,1*%
%TO.N,P18*%
X234618030Y-109522740D03*
D35*
X236769811Y-109334484D03*
%TO.P,D16,2*%
%TO.N,mod_cluster*%
X240057253Y-109046870D03*
D12*
X242209034Y-108858614D03*
%TD*%
D36*
%TO.N,P14*%
X281205000Y-73795000D03*
%TO.N,P16*%
X283000000Y-74000000D03*
X283000000Y-69000000D03*
%TO.N,P7*%
X236500000Y-31000000D03*
X226000000Y-74000000D03*
X234000000Y-95500000D03*
X226000000Y-54500000D03*
%TO.N,P9*%
X188000000Y-65500000D03*
X191000000Y-40000000D03*
X186000000Y-79500000D03*
%TO.N,RAW*%
X294000000Y-77500000D03*
%TO.N,RST*%
X290500000Y-54500000D03*
%TO.N,P5*%
X263908902Y-40942671D03*
X281000000Y-103000000D03*
X264000000Y-78500000D03*
X264000000Y-58500000D03*
%TO.N,P6*%
X254000000Y-34000000D03*
X245500000Y-56500000D03*
X257500000Y-95500000D03*
X245000000Y-76000000D03*
%TO.N,P8*%
X210000000Y-34000000D03*
X207000000Y-59000000D03*
X204500000Y-73000000D03*
%TO.N,pos*%
X296000000Y-74500000D03*
%TD*%
D37*
%TO.N,P14*%
X282181300Y-61841300D02*
X280980000Y-60640000D01*
X282181300Y-72818700D02*
X282181300Y-61841300D01*
X281205000Y-73795000D02*
X282181300Y-72818700D01*
%TO.N,pinky_bottom*%
X182725000Y-83500000D02*
X184600000Y-85375000D01*
X192650000Y-92250000D02*
X194810000Y-92250000D01*
X185775000Y-85375000D02*
X192650000Y-92250000D01*
X184600000Y-85375000D02*
X185775000Y-85375000D01*
%TO.N,pinky_home*%
X185249100Y-67024100D02*
X186424100Y-67024100D01*
X182725000Y-64500000D02*
X185249100Y-67024100D01*
X194810000Y-73250000D02*
X192650000Y-73250000D01*
X186424100Y-67024100D02*
X192650000Y-73250000D01*
%TO.N,pinky_top*%
X185249100Y-48024100D02*
X186424100Y-48024100D01*
X186424100Y-48024100D02*
X192650000Y-54250000D01*
X182725000Y-45500000D02*
X185249100Y-48024100D01*
X192650000Y-54250000D02*
X194810000Y-54250000D01*
%TO.N,P16*%
X283000000Y-74000000D02*
X283000000Y-73500000D01*
X283000000Y-73500000D02*
X283000000Y-69000000D01*
%TO.N,ring_bottom*%
X205424100Y-80024100D02*
X211650000Y-86250000D01*
X201725000Y-77500000D02*
X204249100Y-80024100D01*
X211650000Y-86250000D02*
X213810000Y-86250000D01*
X204249100Y-80024100D02*
X205424100Y-80024100D01*
%TO.N,ring_home*%
X203600000Y-60375000D02*
X205170001Y-60375000D01*
X212045001Y-67250000D02*
X211650000Y-67250000D01*
X211650000Y-67250000D02*
X213810000Y-67250000D01*
X201725000Y-58500000D02*
X203600000Y-60375000D01*
X205170001Y-60375000D02*
X212045001Y-67250000D01*
%TO.N,ring_top*%
X204249100Y-42024100D02*
X205424100Y-42024100D01*
X211650000Y-48250000D02*
X213810000Y-48250000D01*
X201725000Y-39500000D02*
X204249100Y-42024100D01*
X205424100Y-42024100D02*
X211650000Y-48250000D01*
%TO.N,middle_bottom*%
X224424100Y-75024100D02*
X230650000Y-81250000D01*
X223249100Y-75024100D02*
X224424100Y-75024100D01*
X230650000Y-81250000D02*
X232810000Y-81250000D01*
X220725000Y-72500000D02*
X223249100Y-75024100D01*
%TO.N,middle_home*%
X230650000Y-62250000D02*
X232810000Y-62250000D01*
X220725000Y-53500000D02*
X223249100Y-56024100D01*
X223249100Y-56024100D02*
X224424100Y-56024100D01*
X224424100Y-56024100D02*
X230650000Y-62250000D01*
%TO.N,middle_top*%
X222600000Y-36375000D02*
X223775000Y-36375000D01*
X230650000Y-43250000D02*
X232810000Y-43250000D01*
X223775000Y-36375000D02*
X230650000Y-43250000D01*
X220725000Y-34500000D02*
X222600000Y-36375000D01*
%TO.N,P7*%
X237724804Y-95000000D02*
X240721714Y-97996910D01*
X234000000Y-95500000D02*
X234500000Y-95000000D01*
X235200000Y-32300000D02*
X232275000Y-32300000D01*
X229075000Y-54500000D02*
X232275000Y-51300000D01*
X236500000Y-31000000D02*
X235200000Y-32300000D01*
X226000000Y-54500000D02*
X229075000Y-54500000D01*
X234500000Y-95000000D02*
X237724804Y-95000000D01*
X232275000Y-70300000D02*
X228575000Y-74000000D01*
X228575000Y-74000000D02*
X226000000Y-74000000D01*
%TO.N,index_bottom*%
X242249100Y-78024100D02*
X243819101Y-78024100D01*
X250045001Y-84250000D02*
X249650000Y-84250000D01*
X243819101Y-78024100D02*
X250045001Y-84250000D01*
X249650000Y-84250000D02*
X251810000Y-84250000D01*
X239725000Y-75500000D02*
X242249100Y-78024100D01*
%TO.N,index_home*%
X241600000Y-58375000D02*
X242775000Y-58375000D01*
X239725000Y-56500000D02*
X241600000Y-58375000D01*
X249650000Y-65250000D02*
X251810000Y-65250000D01*
X242775000Y-58375000D02*
X249650000Y-65250000D01*
%TO.N,index_top*%
X239725000Y-37500000D02*
X241600000Y-39375000D01*
X249650000Y-46250000D02*
X251810000Y-46250000D01*
X242775000Y-39375000D02*
X249650000Y-46250000D01*
X241600000Y-39375000D02*
X242775000Y-39375000D01*
%TO.N,P9*%
X194275000Y-43275000D02*
X194275000Y-43300000D01*
X192400000Y-79425000D02*
X186075000Y-79425000D01*
X191075000Y-65500000D02*
X194275000Y-62300000D01*
X191000000Y-40000000D02*
X194275000Y-43275000D01*
X194275000Y-81300000D02*
X192400000Y-79425000D01*
X186075000Y-79425000D02*
X186000000Y-79500000D01*
X188000000Y-65500000D02*
X191075000Y-65500000D01*
%TO.N,inner_bottom*%
X258725000Y-77500000D02*
X260600000Y-79375000D01*
X260600000Y-79375000D02*
X261775000Y-79375000D01*
X268650000Y-86250000D02*
X270810000Y-86250000D01*
X261775000Y-79375000D02*
X268650000Y-86250000D01*
%TO.N,inner_home*%
X261775000Y-60375000D02*
X268650000Y-67250000D01*
X270810000Y-67250000D02*
X268650000Y-67250000D01*
X260600000Y-60375000D02*
X261775000Y-60375000D01*
X258725000Y-58500000D02*
X260600000Y-60375000D01*
%TO.N,inner_top*%
X261249100Y-42024100D02*
X262424100Y-42024100D01*
X268650000Y-48250000D02*
X270810000Y-48250000D01*
X258725000Y-39500000D02*
X261249100Y-42024100D01*
X262424100Y-42024100D02*
X268650000Y-48250000D01*
%TO.N,mod_cluster*%
X230996973Y-102784753D02*
X233597803Y-102784753D01*
X233597803Y-102784753D02*
X239859920Y-109046870D01*
X242020778Y-109046870D02*
X242209034Y-108858614D01*
X239859920Y-109046870D02*
X240057253Y-109046870D01*
X240057253Y-109046870D02*
X242020778Y-109046870D01*
X229407408Y-101195188D02*
X230996973Y-102784753D01*
%TO.N,layer_cluster*%
X255527263Y-103045028D02*
X255527263Y-105130759D01*
X260474498Y-110077994D02*
X262226604Y-110077994D01*
X262226604Y-110077994D02*
X262601685Y-110453075D01*
X255527263Y-105130759D02*
X260474498Y-110077994D01*
X252219703Y-99737468D02*
X255527263Y-103045028D01*
%TO.N,space_cluster*%
X280707722Y-117241109D02*
X281752491Y-117241109D01*
X275410527Y-107023981D02*
X279000000Y-110613454D01*
X279000000Y-110613454D02*
X279000000Y-115533387D01*
X281752491Y-117241109D02*
X282665347Y-118153965D01*
X279000000Y-115533387D02*
X280707722Y-117241109D01*
X275410527Y-105116430D02*
X275410527Y-107023981D01*
%TO.N,RAW*%
X297570000Y-77250000D02*
X294250000Y-77250000D01*
X294250000Y-77250000D02*
X294000000Y-77500000D01*
%TO.N,GND*%
X280980000Y-40320000D02*
X293680000Y-40320000D01*
X298090000Y-84250000D02*
X294380000Y-87960000D01*
X279880000Y-85460000D02*
X285455000Y-79885000D01*
X296220000Y-45400000D02*
X285380000Y-56240000D01*
X285455000Y-74095000D02*
X287050000Y-72500000D01*
X279880000Y-85460000D02*
X291880000Y-85460000D01*
X285380000Y-68500000D02*
X285380000Y-70830000D01*
X285380000Y-56240000D02*
X285380000Y-68500000D01*
X291880000Y-85460000D02*
X294380000Y-87960000D01*
X293680000Y-40320000D02*
X296220000Y-42860000D01*
X298500000Y-84250000D02*
X298090000Y-84250000D01*
X285455000Y-79885000D02*
X285455000Y-74095000D01*
X285380000Y-70830000D02*
X287050000Y-72500000D01*
X296220000Y-42860000D02*
X296220000Y-45400000D01*
%TO.N,RST*%
X299705000Y-80295000D02*
X300155000Y-79845000D01*
X299705000Y-89545000D02*
X299705000Y-80295000D01*
X298945000Y-48966105D02*
X296717595Y-46738700D01*
X296717595Y-46738700D02*
X295722405Y-46738700D01*
X300155000Y-79845000D02*
X300155000Y-75655000D01*
X300155000Y-75655000D02*
X298945000Y-74445000D01*
X298945000Y-74445000D02*
X298945000Y-48966105D01*
X295722405Y-46738700D02*
X290500000Y-51961105D01*
X298500000Y-90750000D02*
X299705000Y-89545000D01*
X290500000Y-51961105D02*
X290500000Y-54500000D01*
%TO.N,P21*%
X207467500Y-49527500D02*
X218912500Y-49527500D01*
X263190000Y-48250000D02*
X265350000Y-48250000D01*
X225250000Y-43250000D02*
X228250000Y-46250000D01*
X228250000Y-46250000D02*
X244190000Y-46250000D01*
X225190000Y-43250000D02*
X225250000Y-43250000D01*
X244190000Y-46250000D02*
X246190000Y-48250000D01*
X187190000Y-54250000D02*
X189350000Y-54250000D01*
X264922405Y-49982405D02*
X278937595Y-49982405D01*
X263190000Y-48250000D02*
X264922405Y-49982405D01*
X188467500Y-55527500D02*
X198912500Y-55527500D01*
X278937595Y-49982405D02*
X280980000Y-47940000D01*
X244190000Y-46250000D02*
X246350000Y-46250000D01*
X206190000Y-48250000D02*
X207467500Y-49527500D01*
X218912500Y-49527500D02*
X225190000Y-43250000D01*
X198912500Y-55527500D02*
X206190000Y-48250000D01*
X206190000Y-48250000D02*
X208350000Y-48250000D01*
X225190000Y-43250000D02*
X227350000Y-43250000D01*
X187190000Y-54250000D02*
X188467500Y-55527500D01*
X246190000Y-48250000D02*
X263190000Y-48250000D01*
%TO.N,P20*%
X246190000Y-67250000D02*
X263190000Y-67250000D01*
X276500000Y-50500000D02*
X277000000Y-50500000D01*
X244190000Y-65250000D02*
X246190000Y-67250000D01*
X206190000Y-67250000D02*
X207467500Y-68527500D01*
X187190000Y-73250000D02*
X189350000Y-73250000D01*
X244190000Y-65250000D02*
X246350000Y-65250000D01*
X263190000Y-67250000D02*
X265350000Y-67250000D01*
X218912500Y-68527500D02*
X225190000Y-62250000D01*
X225190000Y-62250000D02*
X227350000Y-62250000D01*
X276500000Y-63366658D02*
X276500000Y-50500000D01*
X225190000Y-62250000D02*
X228190000Y-65250000D01*
X277020000Y-50480000D02*
X280980000Y-50480000D01*
X263190000Y-67250000D02*
X264467500Y-68527500D01*
X206190000Y-67250000D02*
X208350000Y-67250000D01*
X187190000Y-73250000D02*
X188467500Y-74527500D01*
X228190000Y-65250000D02*
X244190000Y-65250000D01*
X271339158Y-68527500D02*
X276500000Y-63366658D01*
X188467500Y-74527500D02*
X198912500Y-74527500D01*
X207467500Y-68527500D02*
X218912500Y-68527500D01*
X264467500Y-68527500D02*
X271339158Y-68527500D01*
X198912500Y-74527500D02*
X206190000Y-67250000D01*
X277000000Y-50500000D02*
X277020000Y-50480000D01*
%TO.N,P19*%
X246190000Y-86250000D02*
X263190000Y-86250000D01*
X264467500Y-87527500D02*
X271472500Y-87527500D01*
X263190000Y-86250000D02*
X265350000Y-86250000D01*
X277520000Y-53020000D02*
X280980000Y-53020000D01*
X206190000Y-86250000D02*
X208350000Y-86250000D01*
X207467500Y-87527500D02*
X218912500Y-87527500D01*
X187190000Y-92250000D02*
X189350000Y-92250000D01*
X187190000Y-92250000D02*
X188467500Y-93527500D01*
X206190000Y-86250000D02*
X207467500Y-87527500D01*
X271472500Y-87527500D02*
X277000000Y-82000000D01*
X244190000Y-84250000D02*
X246350000Y-84250000D01*
X277000000Y-52500000D02*
X277520000Y-53020000D01*
X188467500Y-93527500D02*
X198912500Y-93527500D01*
X277000000Y-82000000D02*
X277000000Y-52500000D01*
X225190000Y-81250000D02*
X228190000Y-84250000D01*
X225190000Y-81250000D02*
X227350000Y-81250000D01*
X263190000Y-86250000D02*
X264467500Y-87527500D01*
X218912500Y-87527500D02*
X225190000Y-81250000D01*
X198912500Y-93527500D02*
X206190000Y-86250000D01*
X228190000Y-84250000D02*
X244190000Y-84250000D01*
X244190000Y-84250000D02*
X246190000Y-86250000D01*
%TO.N,P18*%
X256849551Y-109129875D02*
X257224632Y-109504956D01*
X279328700Y-80671300D02*
X279328700Y-57211300D01*
X275759281Y-114933613D02*
X273357923Y-112532255D01*
X279328700Y-57211300D02*
X280980000Y-55560000D01*
X236581555Y-109522740D02*
X236769811Y-109334484D01*
X234618030Y-109522740D02*
X235231404Y-110136114D01*
X276804050Y-114933613D02*
X277716906Y-115846469D01*
X273357923Y-86642077D02*
X279328700Y-80671300D01*
X260901183Y-114933613D02*
X275759281Y-114933613D01*
X235231404Y-110136114D02*
X254091206Y-110136114D01*
X275759281Y-114933613D02*
X276804050Y-114933613D01*
X255097445Y-109129875D02*
X256849551Y-109129875D01*
X234618030Y-109522740D02*
X236581555Y-109522740D01*
X255097445Y-109129875D02*
X260901183Y-114933613D01*
X273357923Y-112532255D02*
X273357923Y-86642077D01*
X254091206Y-110136114D02*
X255097445Y-109129875D01*
%TO.N,P15*%
X279880000Y-82960000D02*
X279778700Y-82858700D01*
X279778700Y-59301300D02*
X280980000Y-58100000D01*
X279778700Y-82858700D02*
X279778700Y-59301300D01*
%TO.N,P2*%
X294881300Y-66618700D02*
X294881300Y-49278700D01*
X294881300Y-49278700D02*
X296220000Y-47940000D01*
X293000000Y-68500000D02*
X294881300Y-66618700D01*
%TO.N,P5*%
X266632329Y-40942671D02*
X263908902Y-40942671D01*
X281000000Y-103000000D02*
X283238740Y-103000000D01*
X268075000Y-58500000D02*
X264000000Y-58500000D01*
X270275000Y-56300000D02*
X268075000Y-58500000D01*
X286808142Y-106569402D02*
X286808142Y-108003793D01*
X283238740Y-103000000D02*
X286808142Y-106569402D01*
X270275000Y-37300000D02*
X266632329Y-40942671D01*
X267075000Y-78500000D02*
X264000000Y-78500000D01*
X270275000Y-75300000D02*
X267075000Y-78500000D01*
%TO.N,P6*%
X249075000Y-56500000D02*
X251275000Y-54300000D01*
X251275000Y-73300000D02*
X248575000Y-76000000D01*
X257500000Y-95500000D02*
X259899730Y-95500000D01*
X251275000Y-35300000D02*
X252700000Y-35300000D01*
X248575000Y-76000000D02*
X245000000Y-76000000D01*
X245500000Y-56500000D02*
X249075000Y-56500000D01*
X252700000Y-35300000D02*
X254000000Y-34000000D01*
X259899730Y-95500000D02*
X263976258Y-99576528D01*
%TO.N,P8*%
X213275000Y-37275000D02*
X210000000Y-34000000D01*
X207000000Y-59000000D02*
X210575000Y-59000000D01*
X213275000Y-37300000D02*
X213275000Y-37275000D01*
X204925000Y-73425000D02*
X204500000Y-73000000D01*
X213275000Y-75300000D02*
X211400000Y-73425000D01*
X211400000Y-73425000D02*
X204925000Y-73425000D01*
X210575000Y-59000000D02*
X213275000Y-56300000D01*
%TO.N,pos*%
X296000000Y-74500000D02*
X295974695Y-74500000D01*
X295724695Y-80250000D02*
X297570000Y-80250000D01*
X295974695Y-74500000D02*
X293275000Y-77199695D01*
X293275000Y-77800305D02*
X295724695Y-80250000D01*
X293275000Y-77199695D02*
X293275000Y-77800305D01*
%TD*%
M02*
