M48
; DRILL file {KiCad 8.0.1} date 2024-03-26T11:54:56+0100
; FORMAT={-:-/ absolute / inch / decimal}
; #@! TF.CreationDate,2024-03-26T11:54:56+01:00
; #@! TF.GenerationSoftware,Kicad,Pcbnew,8.0.1
; #@! TF.FileFunction,NonPlated,1,2,NPTH
FMAT,2
INCH
; #@! TA.AperFunction,NonPlated,NPTH,ComponentDrill
T1C0.0354
; #@! TA.AperFunction,NonPlated,NPTH,ComponentDrill
T2C0.0670
; #@! TA.AperFunction,NonPlated,NPTH,ComponentDrill
T3C0.1181
; #@! TA.AperFunction,NonPlated,NPTH,ComponentDrill
T4C0.1350
%
G90
G05
T1
X11.7846Y-3.0118
X11.7846Y-3.0118
X11.7846Y-3.1299
X11.7846Y-3.1299
T2
X7.3031Y-1.939
X7.3031Y-2.687
X7.3031Y-3.435
X7.7362Y-1.939
X7.7362Y-2.687
X7.7362Y-3.435
X8.0512Y-1.7028
X8.0512Y-2.4508
X8.0512Y-3.1988
X8.4843Y-1.7028
X8.4843Y-2.4508
X8.4843Y-3.1988
X8.7992Y-1.5059
X8.7992Y-2.2539
X8.7992Y-3.002
X9.1535Y-4.1216
X9.2323Y-1.5059
X9.2323Y-2.2539
X9.2323Y-3.002
X9.5472Y-1.624
X9.5472Y-2.372
X9.5472Y-3.1201
X9.5849Y-4.0839
X9.9803Y-1.624
X9.9803Y-2.372
X9.9803Y-3.1201
X10.0119Y-4.091
X10.2953Y-1.7028
X10.2953Y-2.4508
X10.2953Y-3.1988
X10.4384Y-4.1662
X10.7283Y-1.7028
X10.7283Y-2.4508
X10.7283Y-3.1988
X10.8796Y-4.3184
X11.2721Y-4.5014
T3
X7.3228Y-1.7913
X7.3228Y-2.5394
X7.3228Y-3.2874
X7.5197Y-1.7047
X7.5197Y-1.7047
X7.5197Y-2.4528
X7.5197Y-2.4528
X7.5197Y-3.2008
X7.5197Y-3.2008
X7.7165Y-1.7913
X7.7165Y-2.5394
X7.7165Y-3.2874
X8.0709Y-1.5551
X8.0709Y-2.3031
X8.0709Y-3.0512
X8.2677Y-1.4685
X8.2677Y-1.4685
X8.2677Y-2.2165
X8.2677Y-2.2165
X8.2677Y-2.9646
X8.2677Y-2.9646
X8.4646Y-1.5551
X8.4646Y-2.3031
X8.4646Y-3.0512
X8.8189Y-1.3583
X8.8189Y-2.1063
X8.8189Y-2.8543
X9.0157Y-1.2717
X9.0157Y-1.2717
X9.0157Y-2.0197
X9.0157Y-2.0197
X9.0157Y-2.7677
X9.0157Y-2.7677
X9.1602Y-3.9728
X9.2126Y-1.3583
X9.2126Y-2.1063
X9.2126Y-2.8543
X9.3488Y-3.8694
X9.3488Y-3.8694
X9.5524Y-3.9385
X9.5669Y-1.4764
X9.5669Y-2.2244
X9.5669Y-2.9724
X9.7638Y-1.3898
X9.7638Y-1.3898
X9.7638Y-2.1378
X9.7638Y-2.1378
X9.7638Y-2.8858
X9.7638Y-2.8858
X9.9606Y-1.4764
X9.9606Y-2.2244
X9.9606Y-2.9724
X10.0569Y-3.9491
X10.2658Y-3.8979
X10.2658Y-3.8979
X10.315Y-1.5551
X10.315Y-2.3031
X10.315Y-3.0512
X10.4446Y-4.0174
X10.5118Y-1.4685
X10.5118Y-1.4685
X10.5118Y-2.2165
X10.5118Y-2.2165
X10.5118Y-2.9646
X10.5118Y-2.9646
X10.7087Y-1.5551
X10.7087Y-2.3031
X10.7087Y-3.0512
X10.9598Y-4.1929
X11.1748Y-4.1976
X11.1748Y-4.1976
X11.3166Y-4.3593
T4
X7.5197Y-1.939
X7.5197Y-2.687
X7.5197Y-3.435
X8.2677Y-1.7028
X8.2677Y-2.4508
X8.2677Y-3.1988
X9.0157Y-1.5059
X9.0157Y-2.2539
X9.0157Y-3.002
X9.3692Y-4.1027
X9.7638Y-1.624
X9.7638Y-2.372
X9.7638Y-3.1201
X10.2251Y-4.1286
X10.5118Y-1.7028
X10.5118Y-2.4508
X10.5118Y-3.1988
X11.0758Y-4.4099
M30
