0
SECTION
2
HEADER
9
$INSUNITS
70
4
0
ENDSEC
0
SECTION
2
TABLES
0
TABLE
2
LTYPE
0
LTYPE
72
65
70
64
2
CONTINUOUS
3
______
73
0
40
0
0
ENDTAB
0
TABLE
2
LAYER
0
ENDTAB
0
ENDSEC
0
SECTION
2
ENTITIES
0
LINE
8
0
10
209.8411212
20
-106.619414
11
222.6884583
21
-110.3584149
0
LINE
8
0
10
198.9702293
20
-147.5574556
11
223.7476134
21
-113.4543121
0
LINE
8
0
10
196.3511556
20
-148.1133351
11
176.3370702
21
-136.5421688
0
LINE
8
0
10
175.1237508
20
-136.2849164
11
147.1520313
21
-139.2706941
0
LINE
8
0
10
144.9425012
20
-137.3868265
11
143.4994764
21
-109.8951652
0
LINE
8
0
10
141.5022259
20
-108
11
135.5768068
21
-108
0
LINE
8
0
10
133.8284921
20
-106.9712858
11
133.4
21
-106.2
0
LINE
8
0
10
133.4
20
-106.2
11
119.7479501
21
-106.2
0
LINE
8
0
10
118.4355927
20
-106.690789
11
114.9644074
21
-109.709211
0
LINE
8
0
10
91.2
20
-110.2
11
113.65205
21
-110.2
0
LINE
8
0
10
89.2
20
-108.2
11
89.2
21
-53.8
0
LINE
8
0
10
91.2
20
-51.8
11
106.1586889
21
-51.8
0
LINE
8
0
10
107.7971528
20
-50.9469246
11
109.4028472
21
-48.6530754
0
LINE
8
0
10
111.0413111
20
-47.8
11
125.3223539
21
-47.8
0
LINE
8
0
10
126.794216
20
-47.154113
11
130.205784
21
-43.445887
0
LINE
8
0
10
131.6776461
20
-42.8
11
144.6054586
21
-42.8
0
LINE
8
0
10
145.6979942
20
-43.1247788
11
149.3020058
21
-45.4752212
0
LINE
8
0
10
150.3945414
20
-45.8
11
161.7590699
21
-45.8
0
LINE
8
0
10
162.9215463
20
-46.1725331
11
164.6784537
21
-47.4274669
0
LINE
8
0
10
165.8409301
20
-47.8
11
206.4
21
-47.8
0
LINE
8
0
10
208.4
20
-49.8
11
208.4
21
-104.6990874
0
ARC
8
0
10
222.1295795
20
-112.2787415
40
2
50
323.999998
51
73.7732503
0
ARC
8
0
10
197.3521954
20
-146.3818851
40
2
50
239.9655968
51
323.999998
0
ARC
8
0
10
175.3360304
20
-138.2736188
40
2
50
59.9655968
51
96.0928394
0
ARC
8
0
10
146.9397517
20
-137.2819917
40
2
50
183.0046727
51
276.0928394
0
ARC
8
0
10
141.5022259
20
-110
40
2
50
3.0046727
51
90
0
ARC
8
0
10
135.5768068
20
-106
40
2
50
209.0546019
51
270
0
ARC
8
0
10
119.7479501
20
-108.2
40
2
50
90
51
131.0090871
0
ARC
8
0
10
113.65205
20
-108.2
40
2
50
270
51
311.0090871
0
ARC
8
0
10
91.2
20
-108.2
40
2
50
180
51
270
0
ARC
8
0
10
91.2
20
-53.8
40
2
50
90
51
180
0
ARC
8
0
10
106.1586889
20
-49.8
40
2
50
270
51
325.0079812
0
ARC
8
0
10
111.0413111
20
-49.8
40
2
50
90
51
145.0079812
0
ARC
8
0
10
125.3223539
20
-45.8
40
2
50
270
51
317.3859449
0
ARC
8
0
10
131.6776461
20
-44.8
40
2
50
90
51
137.3859449
0
ARC
8
0
10
144.6054586
20
-44.8
40
2
50
56.8886572
51
90
0
ARC
8
0
10
150.3945414
20
-43.8
40
2
50
236.8886572
51
270
0
ARC
8
0
10
161.7590699
20
-47.8
40
2
50
54.4623229
51
90
0
ARC
8
0
10
165.8409301
20
-45.8
40
2
50
234.4623229
51
270
0
ARC
8
0
10
206.4
20
-49.8
40
2
50
0
51
90
0
ARC
8
0
10
210.4
20
-104.6990874
40
2
50
180
51
253.7732503
0
ENDSEC
0
EOF