0
SECTION
2
HEADER
9
$INSUNITS
70
4
0
ENDSEC
0
SECTION
2
TABLES
0
TABLE
2
LTYPE
0
LTYPE
72
65
70
64
2
CONTINUOUS
3
______
73
0
40
0
0
ENDTAB
0
TABLE
2
LAYER
0
ENDTAB
0
ENDSEC
0
SECTION
2
ENTITIES
0
LINE
8
0
10
175.9726586
20
-132.0222559
11
192.6299018
21
-139.8802254
0
LINE
8
0
10
199.294707
20
-137.4712405
11
207.6798617
21
-119.4892183
0
LINE
8
0
10
208.0648195
20
-118.2861054
11
210.1164966
21
-107.2011581
0
LINE
8
0
10
210.2
20
-106.2911796
11
210.2
21
-48.25
0
LINE
8
0
10
205.2
20
-43.25
11
171.9950977
21
-43.25
0
LINE
8
0
10
171.0145172
20
-43.1529034
11
161.9854828
21
-41.3470966
0
LINE
8
0
10
161.0049023
20
-41.25
11
153.7749702
21
-41.25
0
LINE
8
0
10
151.3807097
20
-40.639478
11
147
21
-38.25
0
LINE
8
0
10
147
20
-38.25
11
130.9330344
21
-38.25
0
LINE
8
0
10
127.5696705
20
-39.5502996
11
124.9303295
21
-41.9497004
0
LINE
8
0
10
121.5669656
20
-43.25
11
112.1995085
21
-43.25
0
LINE
8
0
10
108.5137379
20
-44.8713769
11
105.9862621
21
-47.6286231
0
LINE
8
0
10
102.3004915
20
-49.25
11
91.5
21
-49.25
0
LINE
8
0
10
86.5
20
-54.25
11
86.5
21
-107.75
0
LINE
8
0
10
91.5
20
-112.75
11
106.8004915
21
-112.75
0
LINE
8
0
10
110.4862621
20
-111.1286231
11
113.0137379
21
-108.3713769
0
LINE
8
0
10
116.6995085
20
-106.75
11
127.9245833
21
-106.75
0
LINE
8
0
10
132.9049607
20
-111.3074605
11
134.1943125
21
-125.8179309
0
LINE
8
0
10
139.6565394
20
-130.3521194
11
156.9618838
21
-128.6766072
0
LINE
8
0
10
158.3119743
20
-128.7292964
11
174.7076331
21
-131.6202934
0
ARC
8
0
10
194.7631682
20
-135.3581491
40
5
50
244.7446441
51
334.9999983
0
ARC
8
0
10
203.1483229
20
-117.3761269
40
5
50
334.9999983
51
349.5139744
0
ARC
8
0
10
205.2
20
-106.2911796
40
5
50
349.5139744
51
0
0
ARC
8
0
10
205.2
20
-48.25
40
5
50
0
51
90
0
ARC
8
0
10
171.9950977
20
-38.25
40
5
50
258.6900698
51
270
0
ARC
8
0
10
161.0049023
20
-46.25
40
5
50
78.6900698
51
90
0
ARC
8
0
10
153.7749702
20
-36.25
40
5
50
241.3895426
51
270
0
ARC
8
0
10
130.9330344
20
-43.25
40
5
50
90
51
132.2736882
0
ARC
8
0
10
121.5669656
20
-38.25
40
5
50
270
51
312.2736882
0
ARC
8
0
10
112.1995085
20
-48.25
40
5
50
90
51
137.4895526
0
ARC
8
0
10
102.3004915
20
-44.25
40
5
50
270
51
317.4895526
0
ARC
8
0
10
91.5
20
-54.25
40
5
50
90
51
180
0
ARC
8
0
10
91.5
20
-107.75
40
5
50
180
51
270
0
ARC
8
0
10
106.8004915
20
-107.75
40
5
50
270
51
317.4895526
0
ARC
8
0
10
116.6995085
20
-111.75
40
5
50
90
51
137.4895526
0
ARC
8
0
10
127.9245833
20
-111.75
40
5
50
5.0777734
51
90
0
ARC
8
0
10
139.1746899
20
-125.3753914
40
5
50
185.0777734
51
275.530171
0
ARC
8
0
10
157.4437333
20
-133.6533352
40
5
50
79.9999992
51
95.530171
0
ARC
8
0
10
173.8393922
20
-136.5443322
40
5
50
64.7446441
51
79.9999992
0
LINE
8
0
10
91.25
20
-108.25
11
108.75
21
-108.25
0
LINE
8
0
10
108.75
20
-108.25
11
108.75
21
-91.75
0
LINE
8
0
10
108.75
20
-91.75
11
91.25
21
-91.75
0
LINE
8
0
10
91.25
20
-91.75
11
91.25
21
-108.25
0
LINE
8
0
10
91.25
20
-89.25
11
108.75
21
-89.25
0
LINE
8
0
10
108.75
20
-89.25
11
108.75
21
-72.75
0
LINE
8
0
10
108.75
20
-72.75
11
91.25
21
-72.75
0
LINE
8
0
10
91.25
20
-72.75
11
91.25
21
-89.25
0
LINE
8
0
10
91.25
20
-70.25
11
108.75
21
-70.25
0
LINE
8
0
10
108.75
20
-70.25
11
108.75
21
-53.75
0
LINE
8
0
10
108.75
20
-53.75
11
91.25
21
-53.75
0
LINE
8
0
10
91.25
20
-53.75
11
91.25
21
-70.25
0
LINE
8
0
10
110.25
20
-102.25
11
127.75
21
-102.25
0
LINE
8
0
10
127.75
20
-102.25
11
127.75
21
-85.75
0
LINE
8
0
10
127.75
20
-85.75
11
110.25
21
-85.75
0
LINE
8
0
10
110.25
20
-85.75
11
110.25
21
-102.25
0
LINE
8
0
10
110.25
20
-83.25
11
127.75
21
-83.25
0
LINE
8
0
10
127.75
20
-83.25
11
127.75
21
-66.75
0
LINE
8
0
10
127.75
20
-66.75
11
110.25
21
-66.75
0
LINE
8
0
10
110.25
20
-66.75
11
110.25
21
-83.25
0
LINE
8
0
10
110.25
20
-64.25
11
127.75
21
-64.25
0
LINE
8
0
10
127.75
20
-64.25
11
127.75
21
-47.75
0
LINE
8
0
10
127.75
20
-47.75
11
110.25
21
-47.75
0
LINE
8
0
10
110.25
20
-47.75
11
110.25
21
-64.25
0
LINE
8
0
10
129.25
20
-97.25
11
146.75
21
-97.25
0
LINE
8
0
10
146.75
20
-97.25
11
146.75
21
-80.75
0
LINE
8
0
10
146.75
20
-80.75
11
129.25
21
-80.75
0
LINE
8
0
10
129.25
20
-80.75
11
129.25
21
-97.25
0
LINE
8
0
10
129.25
20
-78.25
11
146.75
21
-78.25
0
LINE
8
0
10
146.75
20
-78.25
11
146.75
21
-61.75
0
LINE
8
0
10
146.75
20
-61.75
11
129.25
21
-61.75
0
LINE
8
0
10
129.25
20
-61.75
11
129.25
21
-78.25
0
LINE
8
0
10
129.25
20
-59.25
11
146.75
21
-59.25
0
LINE
8
0
10
146.75
20
-59.25
11
146.75
21
-42.75
0
LINE
8
0
10
146.75
20
-42.75
11
129.25
21
-42.75
0
LINE
8
0
10
129.25
20
-42.75
11
129.25
21
-59.25
0
LINE
8
0
10
148.25
20
-100.25
11
165.75
21
-100.25
0
LINE
8
0
10
165.75
20
-100.25
11
165.75
21
-83.75
0
LINE
8
0
10
165.75
20
-83.75
11
148.25
21
-83.75
0
LINE
8
0
10
148.25
20
-83.75
11
148.25
21
-100.25
0
LINE
8
0
10
148.25
20
-81.25
11
165.75
21
-81.25
0
LINE
8
0
10
165.75
20
-81.25
11
165.75
21
-64.75
0
LINE
8
0
10
165.75
20
-64.75
11
148.25
21
-64.75
0
LINE
8
0
10
148.25
20
-64.75
11
148.25
21
-81.25
0
LINE
8
0
10
148.25
20
-62.25
11
165.75
21
-62.25
0
LINE
8
0
10
165.75
20
-62.25
11
165.75
21
-45.75
0
LINE
8
0
10
165.75
20
-45.75
11
148.25
21
-45.75
0
LINE
8
0
10
148.25
20
-45.75
11
148.25
21
-62.25
0
LINE
8
0
10
167.25
20
-102.25
11
184.75
21
-102.25
0
LINE
8
0
10
184.75
20
-102.25
11
184.75
21
-85.75
0
LINE
8
0
10
184.75
20
-85.75
11
167.25
21
-85.75
0
LINE
8
0
10
167.25
20
-85.75
11
167.25
21
-102.25
0
LINE
8
0
10
167.25
20
-83.25
11
184.75
21
-83.25
0
LINE
8
0
10
184.75
20
-83.25
11
184.75
21
-66.75
0
LINE
8
0
10
184.75
20
-66.75
11
167.25
21
-66.75
0
LINE
8
0
10
167.25
20
-66.75
11
167.25
21
-83.25
0
LINE
8
0
10
167.25
20
-64.25
11
184.75
21
-64.25
0
LINE
8
0
10
184.75
20
-64.25
11
184.75
21
-47.75
0
LINE
8
0
10
184.75
20
-47.75
11
167.25
21
-47.75
0
LINE
8
0
10
167.25
20
-47.75
11
167.25
21
-64.25
0
LINE
8
0
10
138.9800842
20
-125.9409225
11
156.4134914
21
-124.415697
0
LINE
8
0
10
156.4134914
20
-124.415697
11
154.9754216
21
-107.9784845
0
LINE
8
0
10
154.9754216
20
-107.9784845
11
137.5420144
21
-109.50371
0
LINE
8
0
10
137.5420144
20
-109.50371
11
138.9800842
21
-125.9409225
0
LINE
8
0
10
158.6681402
20
-124.2226783
11
175.9022759
21
-127.2615214
0
LINE
8
0
10
175.9022759
20
-127.2615214
11
178.7674708
21
-111.0121935
0
LINE
8
0
10
178.7674708
20
-111.0121935
11
161.5333351
21
-107.9733504
0
LINE
8
0
10
161.5333351
20
-107.9733504
11
158.6681402
21
-124.2226783
0
LINE
8
0
10
178.908611
20
-128.5413793
11
194.7689973
21
-135.9371988
0
LINE
8
0
10
194.7689973
20
-135.9371988
11
201.7421986
21
-120.9831203
0
LINE
8
0
10
201.7421986
20
-120.9831203
11
185.8818123
21
-113.5873008
0
LINE
8
0
10
185.8818123
20
-113.5873008
11
178.908611
21
-128.5413793
0
ENDSEC
0
EOF