0
SECTION
2
HEADER
9
$INSUNITS
70
4
0
ENDSEC
0
SECTION
2
TABLES
0
TABLE
2
LTYPE
0
LTYPE
72
65
70
64
2
CONTINUOUS
3
______
73
0
40
0
0
ENDTAB
0
TABLE
2
LAYER
0
ENDTAB
0
ENDSEC
0
SECTION
2
ENTITIES
0
LINE
8
0
10
91.25
20
-108.25
11
108.75
21
-108.25
0
LINE
8
0
10
108.75
20
-108.25
11
108.75
21
-91.75
0
LINE
8
0
10
108.75
20
-91.75
11
91.25
21
-91.75
0
LINE
8
0
10
91.25
20
-91.75
11
91.25
21
-108.25
0
LINE
8
0
10
91.25
20
-89.25
11
108.75
21
-89.25
0
LINE
8
0
10
108.75
20
-89.25
11
108.75
21
-72.75
0
LINE
8
0
10
108.75
20
-72.75
11
91.25
21
-72.75
0
LINE
8
0
10
91.25
20
-72.75
11
91.25
21
-89.25
0
LINE
8
0
10
91.25
20
-70.25
11
108.75
21
-70.25
0
LINE
8
0
10
108.75
20
-70.25
11
108.75
21
-53.75
0
LINE
8
0
10
108.75
20
-53.75
11
91.25
21
-53.75
0
LINE
8
0
10
91.25
20
-53.75
11
91.25
21
-70.25
0
LINE
8
0
10
110.25
20
-102.25
11
127.75
21
-102.25
0
LINE
8
0
10
127.75
20
-102.25
11
127.75
21
-85.75
0
LINE
8
0
10
127.75
20
-85.75
11
110.25
21
-85.75
0
LINE
8
0
10
110.25
20
-85.75
11
110.25
21
-102.25
0
LINE
8
0
10
110.25
20
-83.25
11
127.75
21
-83.25
0
LINE
8
0
10
127.75
20
-83.25
11
127.75
21
-66.75
0
LINE
8
0
10
127.75
20
-66.75
11
110.25
21
-66.75
0
LINE
8
0
10
110.25
20
-66.75
11
110.25
21
-83.25
0
LINE
8
0
10
110.25
20
-64.25
11
127.75
21
-64.25
0
LINE
8
0
10
127.75
20
-64.25
11
127.75
21
-47.75
0
LINE
8
0
10
127.75
20
-47.75
11
110.25
21
-47.75
0
LINE
8
0
10
110.25
20
-47.75
11
110.25
21
-64.25
0
LINE
8
0
10
129.25
20
-97.25
11
146.75
21
-97.25
0
LINE
8
0
10
146.75
20
-97.25
11
146.75
21
-80.75
0
LINE
8
0
10
146.75
20
-80.75
11
129.25
21
-80.75
0
LINE
8
0
10
129.25
20
-80.75
11
129.25
21
-97.25
0
LINE
8
0
10
129.25
20
-78.25
11
146.75
21
-78.25
0
LINE
8
0
10
146.75
20
-78.25
11
146.75
21
-61.75
0
LINE
8
0
10
146.75
20
-61.75
11
129.25
21
-61.75
0
LINE
8
0
10
129.25
20
-61.75
11
129.25
21
-78.25
0
LINE
8
0
10
129.25
20
-59.25
11
146.75
21
-59.25
0
LINE
8
0
10
146.75
20
-59.25
11
146.75
21
-42.75
0
LINE
8
0
10
146.75
20
-42.75
11
129.25
21
-42.75
0
LINE
8
0
10
129.25
20
-42.75
11
129.25
21
-59.25
0
LINE
8
0
10
148.25
20
-100.25
11
165.75
21
-100.25
0
LINE
8
0
10
165.75
20
-100.25
11
165.75
21
-83.75
0
LINE
8
0
10
165.75
20
-83.75
11
148.25
21
-83.75
0
LINE
8
0
10
148.25
20
-83.75
11
148.25
21
-100.25
0
LINE
8
0
10
148.25
20
-81.25
11
165.75
21
-81.25
0
LINE
8
0
10
165.75
20
-81.25
11
165.75
21
-64.75
0
LINE
8
0
10
165.75
20
-64.75
11
148.25
21
-64.75
0
LINE
8
0
10
148.25
20
-64.75
11
148.25
21
-81.25
0
LINE
8
0
10
148.25
20
-62.25
11
165.75
21
-62.25
0
LINE
8
0
10
165.75
20
-62.25
11
165.75
21
-45.75
0
LINE
8
0
10
165.75
20
-45.75
11
148.25
21
-45.75
0
LINE
8
0
10
148.25
20
-45.75
11
148.25
21
-62.25
0
LINE
8
0
10
167.25
20
-102.25
11
184.75
21
-102.25
0
LINE
8
0
10
184.75
20
-102.25
11
184.75
21
-85.75
0
LINE
8
0
10
184.75
20
-85.75
11
167.25
21
-85.75
0
LINE
8
0
10
167.25
20
-85.75
11
167.25
21
-102.25
0
LINE
8
0
10
167.25
20
-83.25
11
184.75
21
-83.25
0
LINE
8
0
10
184.75
20
-83.25
11
184.75
21
-66.75
0
LINE
8
0
10
184.75
20
-66.75
11
167.25
21
-66.75
0
LINE
8
0
10
167.25
20
-66.75
11
167.25
21
-83.25
0
LINE
8
0
10
167.25
20
-64.25
11
184.75
21
-64.25
0
LINE
8
0
10
184.75
20
-64.25
11
184.75
21
-47.75
0
LINE
8
0
10
184.75
20
-47.75
11
167.25
21
-47.75
0
LINE
8
0
10
167.25
20
-47.75
11
167.25
21
-64.25
0
LINE
8
0
10
138.9800842
20
-125.9409225
11
156.4134914
21
-124.415697
0
LINE
8
0
10
156.4134914
20
-124.415697
11
154.9754216
21
-107.9784845
0
LINE
8
0
10
154.9754216
20
-107.9784845
11
137.5420144
21
-109.50371
0
LINE
8
0
10
137.5420144
20
-109.50371
11
138.9800842
21
-125.9409225
0
LINE
8
0
10
158.6681402
20
-124.2226783
11
175.9022759
21
-127.2615214
0
LINE
8
0
10
175.9022759
20
-127.2615214
11
178.7674708
21
-111.0121935
0
LINE
8
0
10
178.7674708
20
-111.0121935
11
161.5333351
21
-107.9733504
0
LINE
8
0
10
161.5333351
20
-107.9733504
11
158.6681402
21
-124.2226783
0
LINE
8
0
10
178.908611
20
-128.5413793
11
194.7689973
21
-135.9371988
0
LINE
8
0
10
194.7689973
20
-135.9371988
11
201.7421986
21
-120.9831203
0
LINE
8
0
10
201.7421986
20
-120.9831203
11
185.8818123
21
-113.5873008
0
LINE
8
0
10
185.8818123
20
-113.5873008
11
178.908611
21
-128.5413793
0
ENDSEC
0
EOF