0
SECTION
2
HEADER
9
$INSUNITS
70
4
0
ENDSEC
0
SECTION
2
TABLES
0
TABLE
2
LTYPE
0
LTYPE
72
65
70
64
2
CONTINUOUS
3
______
73
0
40
0
0
ENDTAB
0
TABLE
2
LAYER
0
ENDTAB
0
ENDSEC
0
SECTION
2
ENTITIES
0
LINE
8
0
10
89
20
-110.5
11
111
21
-110.5
0
LINE
8
0
10
111
20
-110.5
11
111
21
-104.5
0
LINE
8
0
10
89
20
-110.5
11
89
21
-51.5
0
LINE
8
0
10
89
20
-51.5
11
108
21
-51.5
0
LINE
8
0
10
111
20
-104.5
11
130
21
-104.5
0
LINE
8
0
10
130
20
-104.5
11
130
21
-99.5
0
LINE
8
0
10
108
20
-45.5
11
127
21
-45.5
0
LINE
8
0
10
108
20
-45.5
11
108
21
-51.5
0
LINE
8
0
10
130
20
-99.5
11
146
21
-99.5
0
LINE
8
0
10
149
20
-43.5
11
149
21
-40.5
0
LINE
8
0
10
149
20
-40.5
11
127
21
-40.5
0
LINE
8
0
10
127
20
-40.5
11
127
21
-45.5
0
LINE
8
0
10
146
20
-102.5
11
165
21
-102.5
0
LINE
8
0
10
146
20
-99.5
11
146
21
-102.5
0
LINE
8
0
10
168
20
-45.5
11
168
21
-43.5
0
LINE
8
0
10
149
20
-43.5
11
168
21
-43.5
0
LINE
8
0
10
165
20
-104.5
11
187
21
-104.5
0
LINE
8
0
10
187
20
-104.5
11
187
21
-45.5
0
LINE
8
0
10
165
20
-102.5
11
165
21
-104.5
0
LINE
8
0
10
168
20
-45.5
11
187
21
-45.5
0
LINE
8
0
10
136.9347465
20
-128.378461
11
158.5530873
21
-126.4871013
0
LINE
8
0
10
157.9018169
20
-115.6114803
11
157.0207593
21
-105.540946
0
LINE
8
0
10
157.0207593
20
-105.540946
11
135.1044759
21
-107.4583723
0
LINE
8
0
10
135.1044759
20
-107.4583723
11
136.9347465
21
-128.378461
0
LINE
8
0
10
158.5530873
20
-126.4871013
11
175.9532493
21
-129.5552193
0
LINE
8
0
10
178.8948748
20
-123.2468832
11
181.3739966
21
-109.1870844
0
LINE
8
0
10
181.3739966
20
-109.1870844
11
159.7082261
21
-105.3668245
0
LINE
8
0
10
159.7082261
20
-105.3668245
11
157.9018169
21
-115.6114803
0
LINE
8
0
10
175.9185274
20
-129.6296807
11
195.8572987
21
-138.9272824
0
LINE
8
0
10
195.8572987
20
-138.9272824
11
204.7322822
21
-119.8948189
0
LINE
8
0
10
204.7322822
20
-119.8948189
11
184.7935109
21
-110.5972172
0
LINE
8
0
10
184.7935109
20
-110.5972172
11
178.8948748
21
-123.2468832
0
LINE
8
0
10
175.9532493
20
-129.5552193
11
175.9185274
21
-129.6296807
0
ENDSEC
0
EOF