0
SECTION
2
HEADER
9
$INSUNITS
70
4
0
ENDSEC
0
SECTION
2
TABLES
0
TABLE
2
LTYPE
0
LTYPE
72
65
70
64
2
CONTINUOUS
3
______
73
0
40
0
0
ENDTAB
0
TABLE
2
LAYER
0
ENDTAB
0
ENDSEC
0
SECTION
2
ENTITIES
0
LINE
8
0
10
227.411241
20
-56.0636647
11
234.5749794
21
-60.6445581
0
LINE
8
0
10
218.5236842
20
-102.7242793
11
235.3385325
21
-63.1109793
0
LINE
8
0
10
215.8335933
20
-103.7536349
11
195.4043356
21
-94.1744828
0
LINE
8
0
10
193.9010548
20
-94.0953211
11
167.0145797
21
-103.4018337
0
LINE
8
0
10
164.6414339
20
-102.534216
11
151.0347753
21
-79.6566836
0
LINE
8
0
10
113.6521562
20
-86.8600449
11
148.8659269
21
-78.7303054
0
LINE
8
0
10
111.2535139
20
-85.361207
11
99.0161764
21
-32.3554755
0
LINE
8
0
10
100.5150143
20
-29.9568332
11
115.0903132
21
-26.5918603
0
LINE
8
0
10
116.494883
20
-25.3920752
11
117.5434201
21
-22.7958142
0
LINE
8
0
10
118.9479899
20
-21.5960291
11
132.8436115
21
-18.387972
0
LINE
8
0
10
134.1486543
20
-17.398486
11
136.5999557
21
-12.913856
0
LINE
8
0
10
137.9280343
20
-11.9191947
11
150.538127
21
-9.164303
0
LINE
8
0
10
151.6526846
20
-9.2401659
11
155.7051041
21
-10.7240506
0
LINE
8
0
10
156.8426975
20
-10.7947383
11
172.048189
21
-7.284274
0
LINE
8
0
10
172.048189
20
-7.284274
11
171.493644
21
-8.4386048
0
LINE
8
0
10
171.493644
20
-8.4386048
11
211.6376906
21
0.8293786
0
LINE
8
0
10
214.0363329
20
-0.6694593
11
226.5399576
21
-54.8286077
0
ARC
8
0
10
233.4975227
20
-62.3295172
40
2
50
337.0000025
51
57.4028874
0
ARC
8
0
10
216.6826745
20
-101.9428171
40
2
50
244.8784116
51
337.0000025
0
ARC
8
0
10
194.5552544
20
-95.9853006
40
2
50
64.8784116
51
109.0928394
0
ARC
8
0
10
166.3603801
20
-101.5118541
40
2
50
210.7425223
51
289.0928394
0
ARC
8
0
10
149.315829
20
-80.6790455
40
2
50
30.7425223
51
103.0000021
0
ARC
8
0
10
113.202254
20
-84.9113048
40
2
50
193.0000021
51
283.0000021
0
ARC
8
0
10
100.9649165
20
-31.9055733
40
2
50
103.0000021
51
193.0000021
0
ARC
8
0
10
114.640411
20
-24.6431202
40
2
50
283.0000021
51
338.0079771
0
ARC
8
0
10
119.3978921
20
-23.5447692
40
2
50
103.0000021
51
158.0079771
0
ARC
8
0
10
132.3937093
20
-16.439232
40
2
50
283.0000021
51
331.3389571
0
ARC
8
0
10
138.3549007
20
-13.87311
40
2
50
102.3236223
51
151.3389571
0
ARC
8
0
10
150.9649934
20
-11.1182183
40
2
50
69.8886572
51
102.3236223
0
ARC
8
0
10
156.3927953
20
-8.8459982
40
2
50
249.8886572
51
283.0000021
0
ARC
8
0
10
212.0875928
20
-1.1193615
40
2
50
13.0000021
51
103.0000021
0
ARC
8
0
10
228.4886977
20
-54.3787056
40
2
50
193.0000021
51
237.4028874
0
ENDSEC
0
EOF