M48
; DRILL file {KiCad 8.0.1} date 2024-03-26T11:54:56+0100
; FORMAT={-:-/ absolute / inch / decimal}
; #@! TF.CreationDate,2024-03-26T11:54:56+01:00
; #@! TF.GenerationSoftware,Kicad,Pcbnew,8.0.1
; #@! TF.FileFunction,Plated,1,2,PTH
FMAT,2
INCH
; #@! TA.AperFunction,Plated,PTH,ComponentDrill
T1C0.0118
; #@! TA.AperFunction,Plated,PTH,ViaDrill
T2C0.0157
; #@! TA.AperFunction,Plated,PTH,ComponentDrill
T3C0.0295
; #@! TA.AperFunction,Plated,PTH,ComponentDrill
T4C0.0390
; #@! TA.AperFunction,Plated,PTH,ComponentDrill
T5C0.0394
; #@! TA.AperFunction,Plated,PTH,ComponentDrill
T6C0.0430
; #@! TA.AperFunction,Plated,PTH,ComponentDrill
T7C0.0591
%
G90
G05
T1
X11.752Y-3.3169
X11.752Y-3.5728
T2
X7.3228Y-3.1299
X7.4016Y-2.5787
X7.5197Y-1.5748
X8.0512Y-2.874
X8.1496Y-2.3228
X8.2677Y-1.3386
X8.8976Y-2.1457
X8.8976Y-2.9134
X9.2126Y-3.7598
X9.311Y-1.2205
X9.6457Y-2.9921
X9.6654Y-2.2244
X10.0Y-1.3386
X10.1378Y-3.7598
X10.3901Y-1.6119
X10.3937Y-2.3031
X10.3937Y-3.0906
X11.063Y-4.0551
X11.0711Y-2.9053
X11.1417Y-2.7165
X11.1417Y-2.9134
X11.437Y-2.1457
X11.5748Y-3.0512
X11.6535Y-2.9331
T3
X11.3012Y-2.8543
X11.3012Y-2.9331
T4
X7.3697Y-2.1358
X7.3697Y-2.8839
X7.3697Y-3.6319
X7.6697Y-2.1358
X7.6697Y-2.8839
X7.6697Y-3.6319
X8.1177Y-1.8996
X8.1177Y-2.6476
X8.1177Y-3.3957
X8.4177Y-1.8996
X8.4177Y-2.6476
X8.4177Y-3.3957
X8.8657Y-1.7028
X8.8657Y-2.4508
X8.8657Y-3.1988
X9.1657Y-1.7028
X9.1657Y-2.4508
X9.1657Y-3.1988
X9.2369Y-4.3119
X9.5358Y-4.2858
X9.6138Y-1.8209
X9.6138Y-2.5689
X9.6138Y-3.3169
X9.9138Y-1.8209
X9.9138Y-2.5689
X9.9138Y-3.3169
X10.0432Y-4.2965
X10.3386Y-4.3485
X10.3618Y-1.8996
X10.3618Y-2.6476
X10.3618Y-3.3957
X10.6618Y-1.8996
X10.6618Y-2.6476
X10.6618Y-3.3957
X10.8567Y-4.5249
X11.1286Y-4.6517
T5
X11.0189Y-3.2661
X11.0189Y-3.3646
X11.0189Y-3.463
X11.2354Y-2.6969
X11.3354Y-2.6969
X11.4354Y-2.6969
X11.5354Y-2.6969
X11.5898Y-3.2661
X11.5898Y-3.463
T6
X11.0622Y-1.4874
X11.0622Y-1.5874
X11.0622Y-1.6874
X11.0622Y-1.7874
X11.0622Y-1.8874
X11.0622Y-1.9874
X11.0622Y-2.0874
X11.0622Y-2.1874
X11.0622Y-2.2874
X11.0622Y-2.3874
X11.0622Y-2.4874
X11.0622Y-2.5874
X11.3622Y-2.3874
X11.4622Y-2.3874
X11.5622Y-2.3874
X11.6622Y-1.4874
X11.6622Y-1.5874
X11.6622Y-1.6874
X11.6622Y-1.7874
X11.6622Y-1.8874
X11.6622Y-1.9874
X11.6622Y-2.0874
X11.6622Y-2.1874
X11.6622Y-2.2874
X11.6622Y-2.3874
X11.6622Y-2.4874
X11.6622Y-2.5874
T7
G00X11.2886Y-3.1441
M15
G01X11.3398Y-3.1441
M16
G05
G00X11.2886Y-3.585
M15
G01X11.3398Y-3.585
M16
G05
M30
