%TF.GenerationSoftware,KiCad,Pcbnew,8.0.1*%
%TF.CreationDate,2024-03-26T11:55:02+01:00*%
%TF.ProjectId,main_board,6d61696e-5f62-46f6-9172-642e6b696361,v1.0.0*%
%TF.SameCoordinates,Original*%
%TF.FileFunction,Profile,NP*%
%FSLAX46Y46*%
G04 Gerber Fmt 4.6, Leading zero omitted, Abs format (unit mm)*
G04 Created by KiCad (PCBNEW 8.0.1) date 2024-03-26 11:55:02*
%MOMM*%
%LPD*%
G01*
G04 APERTURE LIST*
%TA.AperFunction,Profile*%
%ADD10C,0.150000*%
%TD*%
G04 APERTURE END LIST*
D10*
X290294706Y-124721240D02*
G75*
G02*
X283629930Y-127130165I-4531506J2113140D01*
G01*
X223904961Y-98557461D02*
X225194312Y-113067931D01*
X177500000Y-41500000D02*
X177500000Y-95000000D01*
X252004902Y-28500000D02*
X244774970Y-28500000D01*
X262995097Y-30500000D02*
G75*
G02*
X262014517Y-30402901I3J4999900D01*
G01*
X215930329Y-29199699D02*
G75*
G02*
X212566966Y-30499976I-3363329J3699699D01*
G01*
X218569671Y-26800301D02*
G75*
G02*
X221933034Y-25500024I3363329J-3699699D01*
G01*
X207699509Y-94000000D02*
X218924583Y-94000000D01*
X199513738Y-32121377D02*
G75*
G02*
X203199509Y-30500007I3685762J-3378623D01*
G01*
X244774970Y-28500000D02*
G75*
G02*
X242380717Y-27889466I30J5000000D01*
G01*
X262014517Y-30402903D02*
X252985483Y-28597097D01*
X230656540Y-117602120D02*
G75*
G02*
X225194331Y-113067929I-481840J4976720D01*
G01*
X266972659Y-119272256D02*
X283629902Y-127130225D01*
X218569670Y-26800300D02*
X215930330Y-29199700D01*
X196986262Y-34878623D02*
G75*
G02*
X193300491Y-36499993I-3685762J3378623D01*
G01*
X296200000Y-30500000D02*
X262995098Y-30500000D01*
X290294707Y-124721241D02*
X298679862Y-106739218D01*
X247961883Y-115926607D02*
G75*
G02*
X249311972Y-115979305I481817J-4976693D01*
G01*
X242380710Y-27889478D02*
X238000000Y-25500000D01*
X301200000Y-93541180D02*
X301200000Y-35500000D01*
X212566966Y-30500000D02*
X203199509Y-30500000D01*
X204013738Y-95621377D02*
G75*
G02*
X207699509Y-94000007I3685762J-3378623D01*
G01*
X249311974Y-115979296D02*
X265707633Y-118870293D01*
X182500000Y-100000000D02*
X197800491Y-100000000D01*
X265707634Y-118870293D02*
G75*
G02*
X266972656Y-119272263I-868234J-4923907D01*
G01*
X301200000Y-93541179D02*
G75*
G02*
X301116502Y-94451159I-5000100J-21D01*
G01*
X299064819Y-105536105D02*
G75*
G02*
X298679857Y-106739216I-4916519J910005D01*
G01*
X230656539Y-117602119D02*
X247961884Y-115926607D01*
X296200000Y-30500000D02*
G75*
G02*
X301200000Y-35500000I0J-5000000D01*
G01*
X193300491Y-36500000D02*
X182500000Y-36500000D01*
X201486262Y-98378623D02*
G75*
G02*
X197800491Y-99999993I-3685762J3378623D01*
G01*
X177500000Y-41500000D02*
G75*
G02*
X182500000Y-36500000I5000000J0D01*
G01*
X238000000Y-25500000D02*
X221933034Y-25500000D01*
X218924584Y-93999999D02*
G75*
G02*
X223904978Y-98557459I16J-5000001D01*
G01*
X201486262Y-98378623D02*
X204013738Y-95621377D01*
X199513738Y-32121377D02*
X196986262Y-34878623D01*
X182500000Y-100000000D02*
G75*
G02*
X177500000Y-95000000I0J5000000D01*
G01*
X299064819Y-105536105D02*
X301116497Y-94451158D01*
X252004903Y-28500000D02*
G75*
G02*
X252985483Y-28597099I-3J-4999900D01*
G01*
M02*
