%TF.GenerationSoftware,KiCad,Pcbnew,8.0.1*%
%TF.CreationDate,2024-03-26T11:55:02+01:00*%
%TF.ProjectId,main_board,6d61696e-5f62-46f6-9172-642e6b696361,v1.0.0*%
%TF.SameCoordinates,Original*%
%TF.FileFunction,Soldermask,Bot*%
%TF.FilePolarity,Negative*%
%FSLAX46Y46*%
G04 Gerber Fmt 4.6, Leading zero omitted, Abs format (unit mm)*
G04 Created by KiCad (PCBNEW 8.0.1) date 2024-03-26 11:55:02*
%MOMM*%
%LPD*%
G01*
G04 APERTURE LIST*
G04 Aperture macros list*
%AMRoundRect*
0 Rectangle with rounded corners*
0 $1 Rounding radius*
0 $2 $3 $4 $5 $6 $7 $8 $9 X,Y pos of 4 corners*
0 Add a 4 corners polygon primitive as box body*
4,1,4,$2,$3,$4,$5,$6,$7,$8,$9,$2,$3,0*
0 Add four circle primitives for the rounded corners*
1,1,$1+$1,$2,$3*
1,1,$1+$1,$4,$5*
1,1,$1+$1,$6,$7*
1,1,$1+$1,$8,$9*
0 Add four rect primitives between the rounded corners*
20,1,$1+$1,$2,$3,$4,$5,0*
20,1,$1+$1,$4,$5,$6,$7,0*
20,1,$1+$1,$6,$7,$8,$9,0*
20,1,$1+$1,$8,$9,$2,$3,0*%
G04 Aperture macros list end*
%ADD10RoundRect,0.050000X-0.889000X-0.889000X0.889000X-0.889000X0.889000X0.889000X-0.889000X0.889000X0*%
%ADD11RoundRect,0.050000X-0.450000X-0.600000X0.450000X-0.600000X0.450000X0.600000X-0.450000X0.600000X0*%
%ADD12C,2.005000*%
%ADD13RoundRect,0.050000X-1.600000X-1.000000X1.600000X-1.000000X1.600000X1.000000X-1.600000X1.000000X0*%
%ADD14C,1.600000*%
%ADD15RoundRect,0.050000X-1.000000X-1.000000X1.000000X-1.000000X1.000000X1.000000X-1.000000X1.000000X0*%
%ADD16C,2.100000*%
%ADD17C,1.801800*%
%ADD18C,3.100000*%
%ADD19C,3.529000*%
%ADD20RoundRect,0.050000X-1.300000X-1.300000X1.300000X-1.300000X1.300000X1.300000X-1.300000X1.300000X0*%
%ADD21RoundRect,0.050000X-1.505993X-1.054507X1.054507X-1.505993X1.505993X1.054507X-1.054507X1.505993X0*%
%ADD22RoundRect,0.050000X-1.181415X-0.430000X0.430000X-1.181415X1.181415X0.430000X-0.430000X1.181415X0*%
%ADD23RoundRect,0.050000X-0.661409X-0.353606X0.154268X-0.733963X0.661409X0.353606X-0.154268X0.733963X0*%
%ADD24RoundRect,0.050000X-1.181751X-1.408356X1.408356X-1.181751X1.181751X1.408356X-1.408356X1.181751X0*%
%ADD25RoundRect,0.050000X-1.029867X-0.721121X0.721121X-1.029867X1.029867X0.721121X-0.721121X1.029867X0*%
%ADD26RoundRect,0.050000X-0.547352X-0.512743X0.338975X-0.669026X0.547352X0.512743X-0.338975X0.669026X0*%
%ADD27RoundRect,0.050000X0.700000X-0.750000X0.700000X0.750000X-0.700000X0.750000X-0.700000X-0.750000X0*%
%ADD28RoundRect,0.050000X-0.876300X0.876300X-0.876300X-0.876300X0.876300X-0.876300X0.876300X0.876300X0*%
%ADD29C,1.852600*%
%ADD30RoundRect,0.050000X0.850000X0.850000X-0.850000X0.850000X-0.850000X-0.850000X0.850000X-0.850000X0*%
%ADD31O,1.800000X1.800000*%
%ADD32RoundRect,0.050000X-1.727604X-0.628796X0.628796X-1.727604X1.727604X0.628796X-0.628796X1.727604X0*%
%ADD33RoundRect,0.270833X0.654167X-0.379167X0.654167X0.379167X-0.654167X0.379167X-0.654167X-0.379167X0*%
%ADD34O,1.850000X1.300000*%
%ADD35RoundRect,0.050000X0.400000X-0.500000X0.400000X0.500000X-0.400000X0.500000X-0.400000X-0.500000X0*%
%ADD36RoundRect,0.050000X0.750000X-0.350000X0.750000X0.350000X-0.750000X0.350000X-0.750000X-0.350000X0*%
%ADD37C,1.000000*%
%ADD38RoundRect,0.050000X-0.808136X-0.963099X0.963099X-0.808136X0.808136X0.963099X-0.963099X0.808136X0*%
%ADD39RoundRect,0.050000X-0.395994X-0.636937X0.500581X-0.558497X0.395994X0.636937X-0.500581X0.558497X0*%
G04 APERTURE END LIST*
D10*
%TO.C,D3*%
X187190000Y-54250000D03*
D11*
X189350000Y-54250000D03*
X192650000Y-54250000D03*
D12*
X194810000Y-54250000D03*
%TD*%
D13*
%TO.C,ROT1*%
X287380000Y-79860000D03*
X287380000Y-91060000D03*
D14*
X294380000Y-82960000D03*
X294380000Y-87960000D03*
D15*
X279880000Y-82960000D03*
D16*
X279880000Y-87960000D03*
X279880000Y-85460000D03*
%TD*%
D17*
%TO.C,S3*%
X185500000Y-49250000D03*
D18*
X186000000Y-45500000D03*
X191000000Y-43300000D03*
X191000000Y-43300000D03*
D19*
X191000000Y-49250000D03*
D18*
X196000000Y-45500000D03*
D17*
X196500000Y-49250000D03*
D20*
X187725000Y-43300000D03*
X199275000Y-45500000D03*
%TD*%
D17*
%TO.C,S17*%
X254301363Y-103912371D03*
D18*
X255444948Y-100306166D03*
X260751013Y-99007830D03*
X260751013Y-99007830D03*
D19*
X259717806Y-104867436D03*
D18*
X265293025Y-102042648D03*
D17*
X265134249Y-105822501D03*
D21*
X257525767Y-98439132D03*
X268518271Y-102611346D03*
%TD*%
D22*
%TO.C,D18*%
X275759281Y-114933613D03*
D23*
X277716906Y-115846469D03*
X280707722Y-117241109D03*
D12*
X282665347Y-118153965D03*
%TD*%
D17*
%TO.C,S1*%
X185500000Y-87250000D03*
D18*
X186000000Y-83500000D03*
X191000000Y-81300000D03*
X191000000Y-81300000D03*
D19*
X191000000Y-87250000D03*
D18*
X196000000Y-83500000D03*
D17*
X196500000Y-87250000D03*
D20*
X187725000Y-81300000D03*
X199275000Y-83500000D03*
%TD*%
D17*
%TO.C,S16*%
X232498682Y-104689061D03*
D18*
X232669942Y-100909753D03*
X237459176Y-98282346D03*
X237459176Y-98282346D03*
D19*
X237977753Y-104209704D03*
D18*
X242631892Y-100038195D03*
D17*
X243456824Y-103730347D03*
D24*
X234196639Y-98567781D03*
X245894430Y-99752760D03*
%TD*%
D17*
%TO.C,S15*%
X261500000Y-43250000D03*
D18*
X262000000Y-39500000D03*
X267000000Y-37300000D03*
X267000000Y-37300000D03*
D19*
X267000000Y-43250000D03*
D18*
X272000000Y-39500000D03*
D17*
X272500000Y-43250000D03*
D20*
X263725000Y-37300000D03*
X275275000Y-39500000D03*
%TD*%
D10*
%TO.C,D15*%
X263190000Y-48250000D03*
D11*
X265350000Y-48250000D03*
X268650000Y-48250000D03*
D12*
X270810000Y-48250000D03*
%TD*%
D17*
%TO.C,S14*%
X261500000Y-62250000D03*
D18*
X262000000Y-58500000D03*
X267000000Y-56300000D03*
X267000000Y-56300000D03*
D19*
X267000000Y-62250000D03*
D18*
X272000000Y-58500000D03*
D17*
X272500000Y-62250000D03*
D20*
X263725000Y-56300000D03*
X275275000Y-58500000D03*
%TD*%
D17*
%TO.C,S9*%
X223500000Y-38250000D03*
D18*
X224000000Y-34500000D03*
X229000000Y-32300000D03*
X229000000Y-32300000D03*
D19*
X229000000Y-38250000D03*
D18*
X234000000Y-34500000D03*
D17*
X234500000Y-38250000D03*
D20*
X225725000Y-32300000D03*
X237275000Y-34500000D03*
%TD*%
D25*
%TO.C,D17*%
X255097445Y-109129875D03*
D26*
X257224632Y-109504956D03*
X260474498Y-110077994D03*
D12*
X262601685Y-110453075D03*
%TD*%
D10*
%TO.C,D8*%
X225190000Y-62250000D03*
D11*
X227350000Y-62250000D03*
X230650000Y-62250000D03*
D12*
X232810000Y-62250000D03*
%TD*%
D17*
%TO.C,S10*%
X242500000Y-79250000D03*
D18*
X243000000Y-75500000D03*
X248000000Y-73300000D03*
X248000000Y-73300000D03*
D19*
X248000000Y-79250000D03*
D18*
X253000000Y-75500000D03*
D17*
X253500000Y-79250000D03*
D20*
X244725000Y-73300000D03*
X256275000Y-75500000D03*
%TD*%
D10*
%TO.C,D6*%
X206190000Y-48250000D03*
D11*
X208350000Y-48250000D03*
X211650000Y-48250000D03*
D12*
X213810000Y-48250000D03*
%TD*%
D10*
%TO.C,D4*%
X206190000Y-86250000D03*
D11*
X208350000Y-86250000D03*
X211650000Y-86250000D03*
D12*
X213810000Y-86250000D03*
%TD*%
D17*
%TO.C,S4*%
X204500000Y-81250000D03*
D18*
X205000000Y-77500000D03*
X210000000Y-75300000D03*
X210000000Y-75300000D03*
D19*
X210000000Y-81250000D03*
D18*
X215000000Y-77500000D03*
D17*
X215500000Y-81250000D03*
D20*
X206725000Y-75300000D03*
X218275000Y-77500000D03*
%TD*%
D17*
%TO.C,S6*%
X204500000Y-43250000D03*
D18*
X205000000Y-39500000D03*
X210000000Y-37300000D03*
X210000000Y-37300000D03*
D19*
X210000000Y-43250000D03*
D18*
X215000000Y-39500000D03*
D17*
X215500000Y-43250000D03*
D20*
X206725000Y-37300000D03*
X218275000Y-39500000D03*
%TD*%
D10*
%TO.C,D5*%
X206190000Y-67250000D03*
D11*
X208350000Y-67250000D03*
X211650000Y-67250000D03*
D12*
X213810000Y-67250000D03*
%TD*%
D10*
%TO.C,D12*%
X244190000Y-46250000D03*
D11*
X246350000Y-46250000D03*
X249650000Y-46250000D03*
D12*
X251810000Y-46250000D03*
%TD*%
D27*
%TO.C,S19*%
X298500000Y-90750000D03*
X298500000Y-84250000D03*
%TD*%
D17*
%TO.C,S11*%
X242500000Y-60250000D03*
D18*
X243000000Y-56500000D03*
X248000000Y-54300000D03*
X248000000Y-54300000D03*
D19*
X248000000Y-60250000D03*
D18*
X253000000Y-56500000D03*
D17*
X253500000Y-60250000D03*
D20*
X244725000Y-54300000D03*
X256275000Y-56500000D03*
%TD*%
D10*
%TO.C,D1*%
X187190000Y-92250000D03*
D11*
X189350000Y-92250000D03*
X192650000Y-92250000D03*
D12*
X194810000Y-92250000D03*
%TD*%
D10*
%TO.C,D9*%
X225190000Y-43250000D03*
D11*
X227350000Y-43250000D03*
X230650000Y-43250000D03*
D12*
X232810000Y-43250000D03*
%TD*%
D17*
%TO.C,S8*%
X223500000Y-57250000D03*
D18*
X224000000Y-53500000D03*
X229000000Y-51300000D03*
X229000000Y-51300000D03*
D19*
X229000000Y-57250000D03*
D18*
X234000000Y-53500000D03*
D17*
X234500000Y-57250000D03*
D20*
X225725000Y-51300000D03*
X237275000Y-53500000D03*
%TD*%
D10*
%TO.C,D10*%
X244190000Y-84250000D03*
D11*
X246350000Y-84250000D03*
X249650000Y-84250000D03*
D12*
X251810000Y-84250000D03*
%TD*%
D28*
%TO.C,MCU1*%
X280980000Y-37780000D03*
D29*
X280980000Y-40320000D03*
X280980000Y-42860000D03*
X280980000Y-45400000D03*
X280980000Y-47940000D03*
X280980000Y-50480000D03*
X280980000Y-53020000D03*
X280980000Y-55560000D03*
X280980000Y-58100000D03*
X280980000Y-60640000D03*
X280980000Y-63180000D03*
X280980000Y-65720000D03*
X296220000Y-37780000D03*
X296220000Y-40320000D03*
X296220000Y-42860000D03*
X296220000Y-45400000D03*
X296220000Y-47940000D03*
X296220000Y-50480000D03*
X296220000Y-53020000D03*
X296220000Y-55560000D03*
X296220000Y-58100000D03*
X296220000Y-60640000D03*
X296220000Y-63180000D03*
X296220000Y-65720000D03*
X293680000Y-60640000D03*
X291140000Y-60640000D03*
X288600000Y-60640000D03*
%TD*%
D17*
%TO.C,S7*%
X223500000Y-76250000D03*
D18*
X224000000Y-72500000D03*
X229000000Y-70300000D03*
X229000000Y-70300000D03*
D19*
X229000000Y-76250000D03*
D18*
X234000000Y-72500000D03*
D17*
X234500000Y-76250000D03*
D20*
X225725000Y-70300000D03*
X237275000Y-72500000D03*
%TD*%
D30*
%TO.C,OLED1*%
X285380000Y-68500000D03*
D31*
X287920000Y-68500000D03*
X290460000Y-68500000D03*
X293000000Y-68500000D03*
%TD*%
D17*
%TO.C,S18*%
X276340712Y-109687850D03*
D18*
X278378685Y-106500504D03*
X283839984Y-106619719D03*
X283839984Y-106619719D03*
D19*
X281325405Y-112012250D03*
D18*
X287441762Y-110726687D03*
D17*
X286310098Y-114336650D03*
D32*
X280871826Y-105235644D03*
X290409920Y-112110762D03*
%TD*%
D33*
%TO.C,_1*%
X287050000Y-74500000D03*
D34*
X287050000Y-72500000D03*
%TD*%
D10*
%TO.C,D14*%
X263190000Y-67250000D03*
D11*
X265350000Y-67250000D03*
X268650000Y-67250000D03*
D12*
X270810000Y-67250000D03*
%TD*%
D10*
%TO.C,D13*%
X263190000Y-86250000D03*
D11*
X265350000Y-86250000D03*
X268650000Y-86250000D03*
D12*
X270810000Y-86250000D03*
%TD*%
D17*
%TO.C,S13*%
X261500000Y-81250000D03*
D18*
X262000000Y-77500000D03*
X267000000Y-75300000D03*
X267000000Y-75300000D03*
D19*
X267000000Y-81250000D03*
D18*
X272000000Y-77500000D03*
D17*
X272500000Y-81250000D03*
D20*
X263725000Y-75300000D03*
X275275000Y-77500000D03*
%TD*%
D10*
%TO.C,D7*%
X225190000Y-81250000D03*
D11*
X227350000Y-81250000D03*
X230650000Y-81250000D03*
D12*
X232810000Y-81250000D03*
%TD*%
D17*
%TO.C,S2*%
X185500000Y-68250000D03*
D18*
X186000000Y-64500000D03*
X191000000Y-62300000D03*
X191000000Y-62300000D03*
D19*
X191000000Y-68250000D03*
D18*
X196000000Y-64500000D03*
D17*
X196500000Y-68250000D03*
D20*
X187725000Y-62300000D03*
X199275000Y-64500000D03*
%TD*%
D35*
%TO.C,T1*%
X298220000Y-81650000D03*
X300430000Y-81650000D03*
D36*
X297570000Y-80250000D03*
D37*
X299330000Y-79500000D03*
X299330000Y-79500000D03*
X299330000Y-76500000D03*
X299330000Y-76500000D03*
D35*
X298220000Y-74350000D03*
X300430000Y-74350000D03*
D36*
X297570000Y-75750000D03*
X297570000Y-78750000D03*
%TD*%
D10*
%TO.C,D2*%
X187190000Y-73250000D03*
D11*
X189350000Y-73250000D03*
X192650000Y-73250000D03*
D12*
X194810000Y-73250000D03*
%TD*%
D17*
%TO.C,S12*%
X242500000Y-41250000D03*
D18*
X243000000Y-37500000D03*
X248000000Y-35300000D03*
X248000000Y-35300000D03*
D19*
X248000000Y-41250000D03*
D18*
X253000000Y-37500000D03*
D17*
X253500000Y-41250000D03*
D20*
X244725000Y-35300000D03*
X256275000Y-37500000D03*
%TD*%
D17*
%TO.C,S5*%
X204500000Y-62250000D03*
D18*
X205000000Y-58500000D03*
X210000000Y-56300000D03*
X210000000Y-56300000D03*
D19*
X210000000Y-62250000D03*
D18*
X215000000Y-58500000D03*
D17*
X215500000Y-62250000D03*
D20*
X206725000Y-56300000D03*
X218275000Y-58500000D03*
%TD*%
D10*
%TO.C,D11*%
X244190000Y-65250000D03*
D11*
X246350000Y-65250000D03*
X249650000Y-65250000D03*
D12*
X251810000Y-65250000D03*
%TD*%
D38*
%TO.C,D16*%
X234618030Y-109522740D03*
D39*
X236769811Y-109334484D03*
X240057253Y-109046870D03*
D12*
X242209034Y-108858614D03*
%TD*%
M02*
