%TF.GenerationSoftware,KiCad,Pcbnew,8.0.1*%
%TF.CreationDate,2024-03-26T11:55:02+01:00*%
%TF.ProjectId,main_board,6d61696e-5f62-46f6-9172-642e6b696361,v1.0.0*%
%TF.SameCoordinates,Original*%
%TF.FileFunction,Legend,Bot*%
%TF.FilePolarity,Positive*%
%FSLAX46Y46*%
G04 Gerber Fmt 4.6, Leading zero omitted, Abs format (unit mm)*
G04 Created by KiCad (PCBNEW 8.0.1) date 2024-03-26 11:55:02*
%MOMM*%
%LPD*%
G01*
G04 APERTURE LIST*
%ADD10C,0.100000*%
%ADD11C,0.200000*%
%ADD12C,0.120000*%
%ADD13R,1.752600X1.752600*%
%ADD14C,1.752600*%
G04 APERTURE END LIST*
D10*
%TO.C,D3*%
X190250000Y-54250000D02*
X190650000Y-54250000D01*
X190650000Y-54250000D02*
X190650000Y-53700000D01*
X190650000Y-54250000D02*
X190650000Y-54800000D01*
X190650000Y-54250000D02*
X191250000Y-53850000D01*
X191250000Y-53850000D02*
X191250000Y-54650000D01*
X191250000Y-54250000D02*
X191750000Y-54250000D01*
X191250000Y-54650000D02*
X190650000Y-54250000D01*
%TO.C,D18*%
X278532583Y-116226825D02*
X278895106Y-116395873D01*
X278895106Y-116395873D02*
X278662666Y-116894342D01*
X278895106Y-116395873D02*
X279127546Y-115897403D01*
X278895106Y-116395873D02*
X279607938Y-116286920D01*
X279269844Y-117011967D02*
X278895106Y-116395873D01*
X279438891Y-116649444D02*
X279892045Y-116860753D01*
X279607938Y-116286920D02*
X279269844Y-117011967D01*
%TO.C,D15*%
X266250000Y-48250000D02*
X266650000Y-48250000D01*
X266650000Y-48250000D02*
X266650000Y-47700000D01*
X266650000Y-48250000D02*
X266650000Y-48800000D01*
X266650000Y-48250000D02*
X267250000Y-47850000D01*
X267250000Y-47850000D02*
X267250000Y-48650000D01*
X267250000Y-48250000D02*
X267750000Y-48250000D01*
X267250000Y-48650000D02*
X266650000Y-48250000D01*
%TO.C,D17*%
X258110959Y-109661239D02*
X258504882Y-109730698D01*
X258504882Y-109730698D02*
X258409376Y-110272342D01*
X258504882Y-109730698D02*
X258600389Y-109189054D01*
X258504882Y-109730698D02*
X259165226Y-109440964D01*
X259026308Y-110228810D02*
X258504882Y-109730698D01*
X259095767Y-109834887D02*
X259588171Y-109921711D01*
X259165226Y-109440964D02*
X259026308Y-110228810D01*
%TO.C,D8*%
X228250000Y-62250000D02*
X228650000Y-62250000D01*
X228650000Y-62250000D02*
X228650000Y-61700000D01*
X228650000Y-62250000D02*
X228650000Y-62800000D01*
X228650000Y-62250000D02*
X229250000Y-61850000D01*
X229250000Y-61850000D02*
X229250000Y-62650000D01*
X229250000Y-62250000D02*
X229750000Y-62250000D01*
X229250000Y-62650000D02*
X228650000Y-62250000D01*
%TO.C,D6*%
X209250000Y-48250000D02*
X209650000Y-48250000D01*
X209650000Y-48250000D02*
X209650000Y-47700000D01*
X209650000Y-48250000D02*
X209650000Y-48800000D01*
X209650000Y-48250000D02*
X210250000Y-47850000D01*
X210250000Y-47850000D02*
X210250000Y-48650000D01*
X210250000Y-48250000D02*
X210750000Y-48250000D01*
X210250000Y-48650000D02*
X209650000Y-48250000D01*
%TO.C,D4*%
X209250000Y-86250000D02*
X209650000Y-86250000D01*
X209650000Y-86250000D02*
X209650000Y-85700000D01*
X209650000Y-86250000D02*
X209650000Y-86800000D01*
X209650000Y-86250000D02*
X210250000Y-85850000D01*
X210250000Y-85850000D02*
X210250000Y-86650000D01*
X210250000Y-86250000D02*
X210750000Y-86250000D01*
X210250000Y-86650000D02*
X209650000Y-86250000D01*
%TO.C,D5*%
X209250000Y-67250000D02*
X209650000Y-67250000D01*
X209650000Y-67250000D02*
X209650000Y-66700000D01*
X209650000Y-67250000D02*
X209650000Y-67800000D01*
X209650000Y-67250000D02*
X210250000Y-66850000D01*
X210250000Y-66850000D02*
X210250000Y-67650000D01*
X210250000Y-67250000D02*
X210750000Y-67250000D01*
X210250000Y-67650000D02*
X209650000Y-67250000D01*
%TO.C,D12*%
X247250000Y-46250000D02*
X247650000Y-46250000D01*
X247650000Y-46250000D02*
X247650000Y-45700000D01*
X247650000Y-46250000D02*
X247650000Y-46800000D01*
X247650000Y-46250000D02*
X248250000Y-45850000D01*
X248250000Y-45850000D02*
X248250000Y-46650000D01*
X248250000Y-46250000D02*
X248750000Y-46250000D01*
X248250000Y-46650000D02*
X247650000Y-46250000D01*
D11*
%TO.C,S19*%
X296450000Y-84400000D02*
X297400000Y-84400000D01*
X296450000Y-90600000D02*
X296450000Y-84400000D01*
X297400000Y-90600000D02*
X296450000Y-90600000D01*
X299600000Y-90600000D02*
X300550000Y-90600000D01*
X300550000Y-84400000D02*
X299600000Y-84400000D01*
X300550000Y-90600000D02*
X300550000Y-84400000D01*
X299800000Y-84900000D02*
G75*
G02*
X299600000Y-84900000I-100000J0D01*
G01*
X299600000Y-84900000D02*
G75*
G02*
X299800000Y-84900000I100000J0D01*
G01*
D10*
%TO.C,D1*%
X190250000Y-92250000D02*
X190650000Y-92250000D01*
X190650000Y-92250000D02*
X190650000Y-91700000D01*
X190650000Y-92250000D02*
X190650000Y-92800000D01*
X190650000Y-92250000D02*
X191250000Y-91850000D01*
X191250000Y-91850000D02*
X191250000Y-92650000D01*
X191250000Y-92250000D02*
X191750000Y-92250000D01*
X191250000Y-92650000D02*
X190650000Y-92250000D01*
%TO.C,D9*%
X228250000Y-43250000D02*
X228650000Y-43250000D01*
X228650000Y-43250000D02*
X228650000Y-42700000D01*
X228650000Y-43250000D02*
X228650000Y-43800000D01*
X228650000Y-43250000D02*
X229250000Y-42850000D01*
X229250000Y-42850000D02*
X229250000Y-43650000D01*
X229250000Y-43250000D02*
X229750000Y-43250000D01*
X229250000Y-43650000D02*
X228650000Y-43250000D01*
%TO.C,D10*%
X247250000Y-84250000D02*
X247650000Y-84250000D01*
X247650000Y-84250000D02*
X247650000Y-83700000D01*
X247650000Y-84250000D02*
X247650000Y-84800000D01*
X247650000Y-84250000D02*
X248250000Y-83850000D01*
X248250000Y-83850000D02*
X248250000Y-84650000D01*
X248250000Y-84250000D02*
X248750000Y-84250000D01*
X248250000Y-84650000D02*
X247650000Y-84250000D01*
D12*
%TO.C,_1*%
X285590000Y-70440000D02*
X285590000Y-71360000D01*
X285590000Y-71360000D02*
X287190000Y-71360000D01*
X285590000Y-75640000D02*
X285590000Y-76560000D01*
X285590000Y-76560000D02*
X293410000Y-76560000D01*
X287190000Y-70440000D02*
X287190000Y-71360000D01*
X287190000Y-71360000D02*
X287190000Y-71640000D01*
X287190000Y-75360000D02*
X285975000Y-75360000D01*
X287190000Y-75360000D02*
X287190000Y-75640000D01*
X287190000Y-75640000D02*
X285590000Y-75640000D01*
X287190000Y-76560000D02*
X287190000Y-75640000D01*
X289050000Y-73000000D02*
X293410000Y-73000000D01*
X289050000Y-74000000D02*
X289050000Y-73000000D01*
X289550000Y-71200000D02*
X291150000Y-71200000D01*
X289550000Y-72200000D02*
X289550000Y-71200000D01*
X289550000Y-74800000D02*
X289550000Y-75800000D01*
X289550000Y-75800000D02*
X291150000Y-75800000D01*
X291150000Y-71200000D02*
X291150000Y-72200000D01*
X291150000Y-72200000D02*
X289550000Y-72200000D01*
X291150000Y-74800000D02*
X289550000Y-74800000D01*
X291150000Y-74800000D02*
X293410000Y-74800000D01*
X291150000Y-75300000D02*
X293410000Y-75300000D01*
X291150000Y-75800000D02*
X291150000Y-74800000D01*
X293410000Y-70440000D02*
X285590000Y-70440000D01*
X293410000Y-74000000D02*
X289050000Y-74000000D01*
X293410000Y-76560000D02*
X293410000Y-70440000D01*
D10*
%TO.C,D14*%
X266250000Y-67250000D02*
X266650000Y-67250000D01*
X266650000Y-67250000D02*
X266650000Y-66700000D01*
X266650000Y-67250000D02*
X266650000Y-67800000D01*
X266650000Y-67250000D02*
X267250000Y-66850000D01*
X267250000Y-66850000D02*
X267250000Y-67650000D01*
X267250000Y-67250000D02*
X267750000Y-67250000D01*
X267250000Y-67650000D02*
X266650000Y-67250000D01*
%TO.C,D13*%
X266250000Y-86250000D02*
X266650000Y-86250000D01*
X266650000Y-86250000D02*
X266650000Y-85700000D01*
X266650000Y-86250000D02*
X266650000Y-86800000D01*
X266650000Y-86250000D02*
X267250000Y-85850000D01*
X267250000Y-85850000D02*
X267250000Y-86650000D01*
X267250000Y-86250000D02*
X267750000Y-86250000D01*
X267250000Y-86650000D02*
X266650000Y-86250000D01*
%TO.C,D7*%
X228250000Y-81250000D02*
X228650000Y-81250000D01*
X228650000Y-81250000D02*
X228650000Y-80700000D01*
X228650000Y-81250000D02*
X228650000Y-81800000D01*
X228650000Y-81250000D02*
X229250000Y-80850000D01*
X229250000Y-80850000D02*
X229250000Y-81650000D01*
X229250000Y-81250000D02*
X229750000Y-81250000D01*
X229250000Y-81650000D02*
X228650000Y-81250000D01*
%TO.C,D2*%
X190250000Y-73250000D02*
X190650000Y-73250000D01*
X190650000Y-73250000D02*
X190650000Y-72700000D01*
X190650000Y-73250000D02*
X190650000Y-73800000D01*
X190650000Y-73250000D02*
X191250000Y-72850000D01*
X191250000Y-72850000D02*
X191250000Y-73650000D01*
X191250000Y-73250000D02*
X191750000Y-73250000D01*
X191250000Y-73650000D02*
X190650000Y-73250000D01*
%TO.C,D11*%
X247250000Y-65250000D02*
X247650000Y-65250000D01*
X247650000Y-65250000D02*
X247650000Y-64700000D01*
X247650000Y-65250000D02*
X247650000Y-65800000D01*
X247650000Y-65250000D02*
X248250000Y-64850000D01*
X248250000Y-64850000D02*
X248250000Y-65650000D01*
X248250000Y-65250000D02*
X248750000Y-65250000D01*
X248250000Y-65650000D02*
X247650000Y-65250000D01*
%TO.C,D16*%
X237666386Y-109256044D02*
X238064864Y-109221183D01*
X238064864Y-109221183D02*
X238016928Y-108673274D01*
X238064864Y-109221183D02*
X238112800Y-109769089D01*
X238064864Y-109221183D02*
X238627718Y-108770410D01*
X238627718Y-108770410D02*
X238697443Y-109567366D01*
X238662581Y-109168888D02*
X239160678Y-109125310D01*
X238697443Y-109567366D02*
X238064864Y-109221183D01*
%TD*%
D13*
%TO.C,MCU1*%
X280980000Y-37780000D03*
D14*
X280980000Y-40320000D03*
X280980000Y-42860000D03*
X280980000Y-45400000D03*
X280980000Y-47940000D03*
X280980000Y-50480000D03*
X280980000Y-53020000D03*
X280980000Y-55560000D03*
X280980000Y-58100000D03*
X280980000Y-60640000D03*
X280980000Y-63180000D03*
X280980000Y-65720000D03*
X296220000Y-37780000D03*
X296220000Y-40320000D03*
X296220000Y-42860000D03*
X296220000Y-45400000D03*
X296220000Y-47940000D03*
X296220000Y-50480000D03*
X296220000Y-53020000D03*
X296220000Y-55560000D03*
X296220000Y-58100000D03*
X296220000Y-60640000D03*
X296220000Y-63180000D03*
X296220000Y-65720000D03*
X293680000Y-60640000D03*
X291140000Y-60640000D03*
X288600000Y-60640000D03*
%TD*%
M02*
