%TF.GenerationSoftware,KiCad,Pcbnew,8.0.1*%
%TF.CreationDate,2024-03-26T11:55:02+01:00*%
%TF.ProjectId,main_board,6d61696e-5f62-46f6-9172-642e6b696361,v1.0.0*%
%TF.SameCoordinates,Original*%
%TF.FileFunction,Legend,Top*%
%TF.FilePolarity,Positive*%
%FSLAX46Y46*%
G04 Gerber Fmt 4.6, Leading zero omitted, Abs format (unit mm)*
G04 Created by KiCad (PCBNEW 8.0.1) date 2024-03-26 11:55:02*
%MOMM*%
%LPD*%
G01*
G04 APERTURE LIST*
%ADD10C,0.150000*%
%ADD11C,0.100000*%
%ADD12C,0.120000*%
%ADD13C,0.200000*%
%ADD14R,1.752600X1.752600*%
%ADD15C,1.752600*%
G04 APERTURE END LIST*
D10*
X282828571Y-55922295D02*
X282828571Y-55122295D01*
X282828571Y-55122295D02*
X283133333Y-55122295D01*
X283133333Y-55122295D02*
X283209523Y-55160390D01*
X283209523Y-55160390D02*
X283247618Y-55198485D01*
X283247618Y-55198485D02*
X283285714Y-55274676D01*
X283285714Y-55274676D02*
X283285714Y-55388961D01*
X283285714Y-55388961D02*
X283247618Y-55465152D01*
X283247618Y-55465152D02*
X283209523Y-55503247D01*
X283209523Y-55503247D02*
X283133333Y-55541342D01*
X283133333Y-55541342D02*
X282828571Y-55541342D01*
X284047618Y-55922295D02*
X283590475Y-55922295D01*
X283819047Y-55922295D02*
X283819047Y-55122295D01*
X283819047Y-55122295D02*
X283742856Y-55236580D01*
X283742856Y-55236580D02*
X283666666Y-55312771D01*
X283666666Y-55312771D02*
X283590475Y-55350866D01*
X284504761Y-55465152D02*
X284428571Y-55427057D01*
X284428571Y-55427057D02*
X284390476Y-55388961D01*
X284390476Y-55388961D02*
X284352380Y-55312771D01*
X284352380Y-55312771D02*
X284352380Y-55274676D01*
X284352380Y-55274676D02*
X284390476Y-55198485D01*
X284390476Y-55198485D02*
X284428571Y-55160390D01*
X284428571Y-55160390D02*
X284504761Y-55122295D01*
X284504761Y-55122295D02*
X284657142Y-55122295D01*
X284657142Y-55122295D02*
X284733333Y-55160390D01*
X284733333Y-55160390D02*
X284771428Y-55198485D01*
X284771428Y-55198485D02*
X284809523Y-55274676D01*
X284809523Y-55274676D02*
X284809523Y-55312771D01*
X284809523Y-55312771D02*
X284771428Y-55388961D01*
X284771428Y-55388961D02*
X284733333Y-55427057D01*
X284733333Y-55427057D02*
X284657142Y-55465152D01*
X284657142Y-55465152D02*
X284504761Y-55465152D01*
X284504761Y-55465152D02*
X284428571Y-55503247D01*
X284428571Y-55503247D02*
X284390476Y-55541342D01*
X284390476Y-55541342D02*
X284352380Y-55617533D01*
X284352380Y-55617533D02*
X284352380Y-55769914D01*
X284352380Y-55769914D02*
X284390476Y-55846104D01*
X284390476Y-55846104D02*
X284428571Y-55884200D01*
X284428571Y-55884200D02*
X284504761Y-55922295D01*
X284504761Y-55922295D02*
X284657142Y-55922295D01*
X284657142Y-55922295D02*
X284733333Y-55884200D01*
X284733333Y-55884200D02*
X284771428Y-55846104D01*
X284771428Y-55846104D02*
X284809523Y-55769914D01*
X284809523Y-55769914D02*
X284809523Y-55617533D01*
X284809523Y-55617533D02*
X284771428Y-55541342D01*
X284771428Y-55541342D02*
X284733333Y-55503247D01*
X284733333Y-55503247D02*
X284657142Y-55465152D01*
X292428571Y-53382295D02*
X292428571Y-52582295D01*
X292428571Y-52582295D02*
X292733333Y-52582295D01*
X292733333Y-52582295D02*
X292809523Y-52620390D01*
X292809523Y-52620390D02*
X292847618Y-52658485D01*
X292847618Y-52658485D02*
X292885714Y-52734676D01*
X292885714Y-52734676D02*
X292885714Y-52848961D01*
X292885714Y-52848961D02*
X292847618Y-52925152D01*
X292847618Y-52925152D02*
X292809523Y-52963247D01*
X292809523Y-52963247D02*
X292733333Y-53001342D01*
X292733333Y-53001342D02*
X292428571Y-53001342D01*
X293380952Y-52582295D02*
X293457142Y-52582295D01*
X293457142Y-52582295D02*
X293533333Y-52620390D01*
X293533333Y-52620390D02*
X293571428Y-52658485D01*
X293571428Y-52658485D02*
X293609523Y-52734676D01*
X293609523Y-52734676D02*
X293647618Y-52887057D01*
X293647618Y-52887057D02*
X293647618Y-53077533D01*
X293647618Y-53077533D02*
X293609523Y-53229914D01*
X293609523Y-53229914D02*
X293571428Y-53306104D01*
X293571428Y-53306104D02*
X293533333Y-53344200D01*
X293533333Y-53344200D02*
X293457142Y-53382295D01*
X293457142Y-53382295D02*
X293380952Y-53382295D01*
X293380952Y-53382295D02*
X293304761Y-53344200D01*
X293304761Y-53344200D02*
X293266666Y-53306104D01*
X293266666Y-53306104D02*
X293228571Y-53229914D01*
X293228571Y-53229914D02*
X293190475Y-53077533D01*
X293190475Y-53077533D02*
X293190475Y-52887057D01*
X293190475Y-52887057D02*
X293228571Y-52734676D01*
X293228571Y-52734676D02*
X293266666Y-52658485D01*
X293266666Y-52658485D02*
X293304761Y-52620390D01*
X293304761Y-52620390D02*
X293380952Y-52582295D01*
X294333333Y-52848961D02*
X294333333Y-53382295D01*
X294142857Y-52544200D02*
X293952380Y-53115628D01*
X293952380Y-53115628D02*
X294447619Y-53115628D01*
X292428571Y-55922295D02*
X292428571Y-55122295D01*
X292428571Y-55122295D02*
X292733333Y-55122295D01*
X292733333Y-55122295D02*
X292809523Y-55160390D01*
X292809523Y-55160390D02*
X292847618Y-55198485D01*
X292847618Y-55198485D02*
X292885714Y-55274676D01*
X292885714Y-55274676D02*
X292885714Y-55388961D01*
X292885714Y-55388961D02*
X292847618Y-55465152D01*
X292847618Y-55465152D02*
X292809523Y-55503247D01*
X292809523Y-55503247D02*
X292733333Y-55541342D01*
X292733333Y-55541342D02*
X292428571Y-55541342D01*
X293380952Y-55122295D02*
X293457142Y-55122295D01*
X293457142Y-55122295D02*
X293533333Y-55160390D01*
X293533333Y-55160390D02*
X293571428Y-55198485D01*
X293571428Y-55198485D02*
X293609523Y-55274676D01*
X293609523Y-55274676D02*
X293647618Y-55427057D01*
X293647618Y-55427057D02*
X293647618Y-55617533D01*
X293647618Y-55617533D02*
X293609523Y-55769914D01*
X293609523Y-55769914D02*
X293571428Y-55846104D01*
X293571428Y-55846104D02*
X293533333Y-55884200D01*
X293533333Y-55884200D02*
X293457142Y-55922295D01*
X293457142Y-55922295D02*
X293380952Y-55922295D01*
X293380952Y-55922295D02*
X293304761Y-55884200D01*
X293304761Y-55884200D02*
X293266666Y-55846104D01*
X293266666Y-55846104D02*
X293228571Y-55769914D01*
X293228571Y-55769914D02*
X293190475Y-55617533D01*
X293190475Y-55617533D02*
X293190475Y-55427057D01*
X293190475Y-55427057D02*
X293228571Y-55274676D01*
X293228571Y-55274676D02*
X293266666Y-55198485D01*
X293266666Y-55198485D02*
X293304761Y-55160390D01*
X293304761Y-55160390D02*
X293380952Y-55122295D01*
X294371428Y-55122295D02*
X293990476Y-55122295D01*
X293990476Y-55122295D02*
X293952380Y-55503247D01*
X293952380Y-55503247D02*
X293990476Y-55465152D01*
X293990476Y-55465152D02*
X294066666Y-55427057D01*
X294066666Y-55427057D02*
X294257142Y-55427057D01*
X294257142Y-55427057D02*
X294333333Y-55465152D01*
X294333333Y-55465152D02*
X294371428Y-55503247D01*
X294371428Y-55503247D02*
X294409523Y-55579438D01*
X294409523Y-55579438D02*
X294409523Y-55769914D01*
X294409523Y-55769914D02*
X294371428Y-55846104D01*
X294371428Y-55846104D02*
X294333333Y-55884200D01*
X294333333Y-55884200D02*
X294257142Y-55922295D01*
X294257142Y-55922295D02*
X294066666Y-55922295D01*
X294066666Y-55922295D02*
X293990476Y-55884200D01*
X293990476Y-55884200D02*
X293952380Y-55846104D01*
X283361905Y-43222295D02*
X283095238Y-42841342D01*
X282904762Y-43222295D02*
X282904762Y-42422295D01*
X282904762Y-42422295D02*
X283209524Y-42422295D01*
X283209524Y-42422295D02*
X283285714Y-42460390D01*
X283285714Y-42460390D02*
X283323809Y-42498485D01*
X283323809Y-42498485D02*
X283361905Y-42574676D01*
X283361905Y-42574676D02*
X283361905Y-42688961D01*
X283361905Y-42688961D02*
X283323809Y-42765152D01*
X283323809Y-42765152D02*
X283285714Y-42803247D01*
X283285714Y-42803247D02*
X283209524Y-42841342D01*
X283209524Y-42841342D02*
X282904762Y-42841342D01*
X283666666Y-43184200D02*
X283780952Y-43222295D01*
X283780952Y-43222295D02*
X283971428Y-43222295D01*
X283971428Y-43222295D02*
X284047619Y-43184200D01*
X284047619Y-43184200D02*
X284085714Y-43146104D01*
X284085714Y-43146104D02*
X284123809Y-43069914D01*
X284123809Y-43069914D02*
X284123809Y-42993723D01*
X284123809Y-42993723D02*
X284085714Y-42917533D01*
X284085714Y-42917533D02*
X284047619Y-42879438D01*
X284047619Y-42879438D02*
X283971428Y-42841342D01*
X283971428Y-42841342D02*
X283819047Y-42803247D01*
X283819047Y-42803247D02*
X283742857Y-42765152D01*
X283742857Y-42765152D02*
X283704762Y-42727057D01*
X283704762Y-42727057D02*
X283666666Y-42650866D01*
X283666666Y-42650866D02*
X283666666Y-42574676D01*
X283666666Y-42574676D02*
X283704762Y-42498485D01*
X283704762Y-42498485D02*
X283742857Y-42460390D01*
X283742857Y-42460390D02*
X283819047Y-42422295D01*
X283819047Y-42422295D02*
X284009524Y-42422295D01*
X284009524Y-42422295D02*
X284123809Y-42460390D01*
X284352381Y-42422295D02*
X284809524Y-42422295D01*
X284580952Y-43222295D02*
X284580952Y-42422295D01*
X282828571Y-58462295D02*
X282828571Y-57662295D01*
X282828571Y-57662295D02*
X283133333Y-57662295D01*
X283133333Y-57662295D02*
X283209523Y-57700390D01*
X283209523Y-57700390D02*
X283247618Y-57738485D01*
X283247618Y-57738485D02*
X283285714Y-57814676D01*
X283285714Y-57814676D02*
X283285714Y-57928961D01*
X283285714Y-57928961D02*
X283247618Y-58005152D01*
X283247618Y-58005152D02*
X283209523Y-58043247D01*
X283209523Y-58043247D02*
X283133333Y-58081342D01*
X283133333Y-58081342D02*
X282828571Y-58081342D01*
X284047618Y-58462295D02*
X283590475Y-58462295D01*
X283819047Y-58462295D02*
X283819047Y-57662295D01*
X283819047Y-57662295D02*
X283742856Y-57776580D01*
X283742856Y-57776580D02*
X283666666Y-57852771D01*
X283666666Y-57852771D02*
X283590475Y-57890866D01*
X284771428Y-57662295D02*
X284390476Y-57662295D01*
X284390476Y-57662295D02*
X284352380Y-58043247D01*
X284352380Y-58043247D02*
X284390476Y-58005152D01*
X284390476Y-58005152D02*
X284466666Y-57967057D01*
X284466666Y-57967057D02*
X284657142Y-57967057D01*
X284657142Y-57967057D02*
X284733333Y-58005152D01*
X284733333Y-58005152D02*
X284771428Y-58043247D01*
X284771428Y-58043247D02*
X284809523Y-58119438D01*
X284809523Y-58119438D02*
X284809523Y-58309914D01*
X284809523Y-58309914D02*
X284771428Y-58386104D01*
X284771428Y-58386104D02*
X284733333Y-58424200D01*
X284733333Y-58424200D02*
X284657142Y-58462295D01*
X284657142Y-58462295D02*
X284466666Y-58462295D01*
X284466666Y-58462295D02*
X284390476Y-58424200D01*
X284390476Y-58424200D02*
X284352380Y-58386104D01*
X282828571Y-53382295D02*
X282828571Y-52582295D01*
X282828571Y-52582295D02*
X283133333Y-52582295D01*
X283133333Y-52582295D02*
X283209523Y-52620390D01*
X283209523Y-52620390D02*
X283247618Y-52658485D01*
X283247618Y-52658485D02*
X283285714Y-52734676D01*
X283285714Y-52734676D02*
X283285714Y-52848961D01*
X283285714Y-52848961D02*
X283247618Y-52925152D01*
X283247618Y-52925152D02*
X283209523Y-52963247D01*
X283209523Y-52963247D02*
X283133333Y-53001342D01*
X283133333Y-53001342D02*
X282828571Y-53001342D01*
X284047618Y-53382295D02*
X283590475Y-53382295D01*
X283819047Y-53382295D02*
X283819047Y-52582295D01*
X283819047Y-52582295D02*
X283742856Y-52696580D01*
X283742856Y-52696580D02*
X283666666Y-52772771D01*
X283666666Y-52772771D02*
X283590475Y-52810866D01*
X284428571Y-53382295D02*
X284580952Y-53382295D01*
X284580952Y-53382295D02*
X284657142Y-53344200D01*
X284657142Y-53344200D02*
X284695238Y-53306104D01*
X284695238Y-53306104D02*
X284771428Y-53191819D01*
X284771428Y-53191819D02*
X284809523Y-53039438D01*
X284809523Y-53039438D02*
X284809523Y-52734676D01*
X284809523Y-52734676D02*
X284771428Y-52658485D01*
X284771428Y-52658485D02*
X284733333Y-52620390D01*
X284733333Y-52620390D02*
X284657142Y-52582295D01*
X284657142Y-52582295D02*
X284504761Y-52582295D01*
X284504761Y-52582295D02*
X284428571Y-52620390D01*
X284428571Y-52620390D02*
X284390476Y-52658485D01*
X284390476Y-52658485D02*
X284352380Y-52734676D01*
X284352380Y-52734676D02*
X284352380Y-52925152D01*
X284352380Y-52925152D02*
X284390476Y-53001342D01*
X284390476Y-53001342D02*
X284428571Y-53039438D01*
X284428571Y-53039438D02*
X284504761Y-53077533D01*
X284504761Y-53077533D02*
X284657142Y-53077533D01*
X284657142Y-53077533D02*
X284733333Y-53039438D01*
X284733333Y-53039438D02*
X284771428Y-53001342D01*
X284771428Y-53001342D02*
X284809523Y-52925152D01*
X292428571Y-38142295D02*
X292428571Y-37342295D01*
X292428571Y-37342295D02*
X292733333Y-37342295D01*
X292733333Y-37342295D02*
X292809523Y-37380390D01*
X292809523Y-37380390D02*
X292847618Y-37418485D01*
X292847618Y-37418485D02*
X292885714Y-37494676D01*
X292885714Y-37494676D02*
X292885714Y-37608961D01*
X292885714Y-37608961D02*
X292847618Y-37685152D01*
X292847618Y-37685152D02*
X292809523Y-37723247D01*
X292809523Y-37723247D02*
X292733333Y-37761342D01*
X292733333Y-37761342D02*
X292428571Y-37761342D01*
X293380952Y-37342295D02*
X293457142Y-37342295D01*
X293457142Y-37342295D02*
X293533333Y-37380390D01*
X293533333Y-37380390D02*
X293571428Y-37418485D01*
X293571428Y-37418485D02*
X293609523Y-37494676D01*
X293609523Y-37494676D02*
X293647618Y-37647057D01*
X293647618Y-37647057D02*
X293647618Y-37837533D01*
X293647618Y-37837533D02*
X293609523Y-37989914D01*
X293609523Y-37989914D02*
X293571428Y-38066104D01*
X293571428Y-38066104D02*
X293533333Y-38104200D01*
X293533333Y-38104200D02*
X293457142Y-38142295D01*
X293457142Y-38142295D02*
X293380952Y-38142295D01*
X293380952Y-38142295D02*
X293304761Y-38104200D01*
X293304761Y-38104200D02*
X293266666Y-38066104D01*
X293266666Y-38066104D02*
X293228571Y-37989914D01*
X293228571Y-37989914D02*
X293190475Y-37837533D01*
X293190475Y-37837533D02*
X293190475Y-37647057D01*
X293190475Y-37647057D02*
X293228571Y-37494676D01*
X293228571Y-37494676D02*
X293266666Y-37418485D01*
X293266666Y-37418485D02*
X293304761Y-37380390D01*
X293304761Y-37380390D02*
X293380952Y-37342295D01*
X294409523Y-38142295D02*
X293952380Y-38142295D01*
X294180952Y-38142295D02*
X294180952Y-37342295D01*
X294180952Y-37342295D02*
X294104761Y-37456580D01*
X294104761Y-37456580D02*
X294028571Y-37532771D01*
X294028571Y-37532771D02*
X293952380Y-37570866D01*
X283190476Y-39920390D02*
X283114286Y-39882295D01*
X283114286Y-39882295D02*
X283000000Y-39882295D01*
X283000000Y-39882295D02*
X282885714Y-39920390D01*
X282885714Y-39920390D02*
X282809524Y-39996580D01*
X282809524Y-39996580D02*
X282771429Y-40072771D01*
X282771429Y-40072771D02*
X282733333Y-40225152D01*
X282733333Y-40225152D02*
X282733333Y-40339438D01*
X282733333Y-40339438D02*
X282771429Y-40491819D01*
X282771429Y-40491819D02*
X282809524Y-40568009D01*
X282809524Y-40568009D02*
X282885714Y-40644200D01*
X282885714Y-40644200D02*
X283000000Y-40682295D01*
X283000000Y-40682295D02*
X283076191Y-40682295D01*
X283076191Y-40682295D02*
X283190476Y-40644200D01*
X283190476Y-40644200D02*
X283228572Y-40606104D01*
X283228572Y-40606104D02*
X283228572Y-40339438D01*
X283228572Y-40339438D02*
X283076191Y-40339438D01*
X283571429Y-40682295D02*
X283571429Y-39882295D01*
X283571429Y-39882295D02*
X284028572Y-40682295D01*
X284028572Y-40682295D02*
X284028572Y-39882295D01*
X284409524Y-40682295D02*
X284409524Y-39882295D01*
X284409524Y-39882295D02*
X284600000Y-39882295D01*
X284600000Y-39882295D02*
X284714286Y-39920390D01*
X284714286Y-39920390D02*
X284790476Y-39996580D01*
X284790476Y-39996580D02*
X284828571Y-40072771D01*
X284828571Y-40072771D02*
X284866667Y-40225152D01*
X284866667Y-40225152D02*
X284866667Y-40339438D01*
X284866667Y-40339438D02*
X284828571Y-40491819D01*
X284828571Y-40491819D02*
X284790476Y-40568009D01*
X284790476Y-40568009D02*
X284714286Y-40644200D01*
X284714286Y-40644200D02*
X284600000Y-40682295D01*
X284600000Y-40682295D02*
X284409524Y-40682295D01*
X282828571Y-63542295D02*
X282828571Y-62742295D01*
X282828571Y-62742295D02*
X283133333Y-62742295D01*
X283133333Y-62742295D02*
X283209523Y-62780390D01*
X283209523Y-62780390D02*
X283247618Y-62818485D01*
X283247618Y-62818485D02*
X283285714Y-62894676D01*
X283285714Y-62894676D02*
X283285714Y-63008961D01*
X283285714Y-63008961D02*
X283247618Y-63085152D01*
X283247618Y-63085152D02*
X283209523Y-63123247D01*
X283209523Y-63123247D02*
X283133333Y-63161342D01*
X283133333Y-63161342D02*
X282828571Y-63161342D01*
X284047618Y-63542295D02*
X283590475Y-63542295D01*
X283819047Y-63542295D02*
X283819047Y-62742295D01*
X283819047Y-62742295D02*
X283742856Y-62856580D01*
X283742856Y-62856580D02*
X283666666Y-62932771D01*
X283666666Y-62932771D02*
X283590475Y-62970866D01*
X284733333Y-62742295D02*
X284580952Y-62742295D01*
X284580952Y-62742295D02*
X284504761Y-62780390D01*
X284504761Y-62780390D02*
X284466666Y-62818485D01*
X284466666Y-62818485D02*
X284390476Y-62932771D01*
X284390476Y-62932771D02*
X284352380Y-63085152D01*
X284352380Y-63085152D02*
X284352380Y-63389914D01*
X284352380Y-63389914D02*
X284390476Y-63466104D01*
X284390476Y-63466104D02*
X284428571Y-63504200D01*
X284428571Y-63504200D02*
X284504761Y-63542295D01*
X284504761Y-63542295D02*
X284657142Y-63542295D01*
X284657142Y-63542295D02*
X284733333Y-63504200D01*
X284733333Y-63504200D02*
X284771428Y-63466104D01*
X284771428Y-63466104D02*
X284809523Y-63389914D01*
X284809523Y-63389914D02*
X284809523Y-63199438D01*
X284809523Y-63199438D02*
X284771428Y-63123247D01*
X284771428Y-63123247D02*
X284733333Y-63085152D01*
X284733333Y-63085152D02*
X284657142Y-63047057D01*
X284657142Y-63047057D02*
X284504761Y-63047057D01*
X284504761Y-63047057D02*
X284428571Y-63085152D01*
X284428571Y-63085152D02*
X284390476Y-63123247D01*
X284390476Y-63123247D02*
X284352380Y-63199438D01*
X282828571Y-48302295D02*
X282828571Y-47502295D01*
X282828571Y-47502295D02*
X283133333Y-47502295D01*
X283133333Y-47502295D02*
X283209523Y-47540390D01*
X283209523Y-47540390D02*
X283247618Y-47578485D01*
X283247618Y-47578485D02*
X283285714Y-47654676D01*
X283285714Y-47654676D02*
X283285714Y-47768961D01*
X283285714Y-47768961D02*
X283247618Y-47845152D01*
X283247618Y-47845152D02*
X283209523Y-47883247D01*
X283209523Y-47883247D02*
X283133333Y-47921342D01*
X283133333Y-47921342D02*
X282828571Y-47921342D01*
X283590475Y-47578485D02*
X283628571Y-47540390D01*
X283628571Y-47540390D02*
X283704761Y-47502295D01*
X283704761Y-47502295D02*
X283895237Y-47502295D01*
X283895237Y-47502295D02*
X283971428Y-47540390D01*
X283971428Y-47540390D02*
X284009523Y-47578485D01*
X284009523Y-47578485D02*
X284047618Y-47654676D01*
X284047618Y-47654676D02*
X284047618Y-47730866D01*
X284047618Y-47730866D02*
X284009523Y-47845152D01*
X284009523Y-47845152D02*
X283552380Y-48302295D01*
X283552380Y-48302295D02*
X284047618Y-48302295D01*
X284809523Y-48302295D02*
X284352380Y-48302295D01*
X284580952Y-48302295D02*
X284580952Y-47502295D01*
X284580952Y-47502295D02*
X284504761Y-47616580D01*
X284504761Y-47616580D02*
X284428571Y-47692771D01*
X284428571Y-47692771D02*
X284352380Y-47730866D01*
X292428571Y-61002295D02*
X292428571Y-60202295D01*
X292428571Y-60202295D02*
X292733333Y-60202295D01*
X292733333Y-60202295D02*
X292809523Y-60240390D01*
X292809523Y-60240390D02*
X292847618Y-60278485D01*
X292847618Y-60278485D02*
X292885714Y-60354676D01*
X292885714Y-60354676D02*
X292885714Y-60468961D01*
X292885714Y-60468961D02*
X292847618Y-60545152D01*
X292847618Y-60545152D02*
X292809523Y-60583247D01*
X292809523Y-60583247D02*
X292733333Y-60621342D01*
X292733333Y-60621342D02*
X292428571Y-60621342D01*
X293380952Y-60202295D02*
X293457142Y-60202295D01*
X293457142Y-60202295D02*
X293533333Y-60240390D01*
X293533333Y-60240390D02*
X293571428Y-60278485D01*
X293571428Y-60278485D02*
X293609523Y-60354676D01*
X293609523Y-60354676D02*
X293647618Y-60507057D01*
X293647618Y-60507057D02*
X293647618Y-60697533D01*
X293647618Y-60697533D02*
X293609523Y-60849914D01*
X293609523Y-60849914D02*
X293571428Y-60926104D01*
X293571428Y-60926104D02*
X293533333Y-60964200D01*
X293533333Y-60964200D02*
X293457142Y-61002295D01*
X293457142Y-61002295D02*
X293380952Y-61002295D01*
X293380952Y-61002295D02*
X293304761Y-60964200D01*
X293304761Y-60964200D02*
X293266666Y-60926104D01*
X293266666Y-60926104D02*
X293228571Y-60849914D01*
X293228571Y-60849914D02*
X293190475Y-60697533D01*
X293190475Y-60697533D02*
X293190475Y-60507057D01*
X293190475Y-60507057D02*
X293228571Y-60354676D01*
X293228571Y-60354676D02*
X293266666Y-60278485D01*
X293266666Y-60278485D02*
X293304761Y-60240390D01*
X293304761Y-60240390D02*
X293380952Y-60202295D01*
X293914285Y-60202295D02*
X294447619Y-60202295D01*
X294447619Y-60202295D02*
X294104761Y-61002295D01*
X292428571Y-48302295D02*
X292428571Y-47502295D01*
X292428571Y-47502295D02*
X292733333Y-47502295D01*
X292733333Y-47502295D02*
X292809523Y-47540390D01*
X292809523Y-47540390D02*
X292847618Y-47578485D01*
X292847618Y-47578485D02*
X292885714Y-47654676D01*
X292885714Y-47654676D02*
X292885714Y-47768961D01*
X292885714Y-47768961D02*
X292847618Y-47845152D01*
X292847618Y-47845152D02*
X292809523Y-47883247D01*
X292809523Y-47883247D02*
X292733333Y-47921342D01*
X292733333Y-47921342D02*
X292428571Y-47921342D01*
X293380952Y-47502295D02*
X293457142Y-47502295D01*
X293457142Y-47502295D02*
X293533333Y-47540390D01*
X293533333Y-47540390D02*
X293571428Y-47578485D01*
X293571428Y-47578485D02*
X293609523Y-47654676D01*
X293609523Y-47654676D02*
X293647618Y-47807057D01*
X293647618Y-47807057D02*
X293647618Y-47997533D01*
X293647618Y-47997533D02*
X293609523Y-48149914D01*
X293609523Y-48149914D02*
X293571428Y-48226104D01*
X293571428Y-48226104D02*
X293533333Y-48264200D01*
X293533333Y-48264200D02*
X293457142Y-48302295D01*
X293457142Y-48302295D02*
X293380952Y-48302295D01*
X293380952Y-48302295D02*
X293304761Y-48264200D01*
X293304761Y-48264200D02*
X293266666Y-48226104D01*
X293266666Y-48226104D02*
X293228571Y-48149914D01*
X293228571Y-48149914D02*
X293190475Y-47997533D01*
X293190475Y-47997533D02*
X293190475Y-47807057D01*
X293190475Y-47807057D02*
X293228571Y-47654676D01*
X293228571Y-47654676D02*
X293266666Y-47578485D01*
X293266666Y-47578485D02*
X293304761Y-47540390D01*
X293304761Y-47540390D02*
X293380952Y-47502295D01*
X293952380Y-47578485D02*
X293990476Y-47540390D01*
X293990476Y-47540390D02*
X294066666Y-47502295D01*
X294066666Y-47502295D02*
X294257142Y-47502295D01*
X294257142Y-47502295D02*
X294333333Y-47540390D01*
X294333333Y-47540390D02*
X294371428Y-47578485D01*
X294371428Y-47578485D02*
X294409523Y-47654676D01*
X294409523Y-47654676D02*
X294409523Y-47730866D01*
X294409523Y-47730866D02*
X294371428Y-47845152D01*
X294371428Y-47845152D02*
X293914285Y-48302295D01*
X293914285Y-48302295D02*
X294409523Y-48302295D01*
X282828571Y-50842295D02*
X282828571Y-50042295D01*
X282828571Y-50042295D02*
X283133333Y-50042295D01*
X283133333Y-50042295D02*
X283209523Y-50080390D01*
X283209523Y-50080390D02*
X283247618Y-50118485D01*
X283247618Y-50118485D02*
X283285714Y-50194676D01*
X283285714Y-50194676D02*
X283285714Y-50308961D01*
X283285714Y-50308961D02*
X283247618Y-50385152D01*
X283247618Y-50385152D02*
X283209523Y-50423247D01*
X283209523Y-50423247D02*
X283133333Y-50461342D01*
X283133333Y-50461342D02*
X282828571Y-50461342D01*
X283590475Y-50118485D02*
X283628571Y-50080390D01*
X283628571Y-50080390D02*
X283704761Y-50042295D01*
X283704761Y-50042295D02*
X283895237Y-50042295D01*
X283895237Y-50042295D02*
X283971428Y-50080390D01*
X283971428Y-50080390D02*
X284009523Y-50118485D01*
X284009523Y-50118485D02*
X284047618Y-50194676D01*
X284047618Y-50194676D02*
X284047618Y-50270866D01*
X284047618Y-50270866D02*
X284009523Y-50385152D01*
X284009523Y-50385152D02*
X283552380Y-50842295D01*
X283552380Y-50842295D02*
X284047618Y-50842295D01*
X284542857Y-50042295D02*
X284619047Y-50042295D01*
X284619047Y-50042295D02*
X284695238Y-50080390D01*
X284695238Y-50080390D02*
X284733333Y-50118485D01*
X284733333Y-50118485D02*
X284771428Y-50194676D01*
X284771428Y-50194676D02*
X284809523Y-50347057D01*
X284809523Y-50347057D02*
X284809523Y-50537533D01*
X284809523Y-50537533D02*
X284771428Y-50689914D01*
X284771428Y-50689914D02*
X284733333Y-50766104D01*
X284733333Y-50766104D02*
X284695238Y-50804200D01*
X284695238Y-50804200D02*
X284619047Y-50842295D01*
X284619047Y-50842295D02*
X284542857Y-50842295D01*
X284542857Y-50842295D02*
X284466666Y-50804200D01*
X284466666Y-50804200D02*
X284428571Y-50766104D01*
X284428571Y-50766104D02*
X284390476Y-50689914D01*
X284390476Y-50689914D02*
X284352380Y-50537533D01*
X284352380Y-50537533D02*
X284352380Y-50347057D01*
X284352380Y-50347057D02*
X284390476Y-50194676D01*
X284390476Y-50194676D02*
X284428571Y-50118485D01*
X284428571Y-50118485D02*
X284466666Y-50080390D01*
X284466666Y-50080390D02*
X284542857Y-50042295D01*
X292428571Y-63542295D02*
X292428571Y-62742295D01*
X292428571Y-62742295D02*
X292733333Y-62742295D01*
X292733333Y-62742295D02*
X292809523Y-62780390D01*
X292809523Y-62780390D02*
X292847618Y-62818485D01*
X292847618Y-62818485D02*
X292885714Y-62894676D01*
X292885714Y-62894676D02*
X292885714Y-63008961D01*
X292885714Y-63008961D02*
X292847618Y-63085152D01*
X292847618Y-63085152D02*
X292809523Y-63123247D01*
X292809523Y-63123247D02*
X292733333Y-63161342D01*
X292733333Y-63161342D02*
X292428571Y-63161342D01*
X293380952Y-62742295D02*
X293457142Y-62742295D01*
X293457142Y-62742295D02*
X293533333Y-62780390D01*
X293533333Y-62780390D02*
X293571428Y-62818485D01*
X293571428Y-62818485D02*
X293609523Y-62894676D01*
X293609523Y-62894676D02*
X293647618Y-63047057D01*
X293647618Y-63047057D02*
X293647618Y-63237533D01*
X293647618Y-63237533D02*
X293609523Y-63389914D01*
X293609523Y-63389914D02*
X293571428Y-63466104D01*
X293571428Y-63466104D02*
X293533333Y-63504200D01*
X293533333Y-63504200D02*
X293457142Y-63542295D01*
X293457142Y-63542295D02*
X293380952Y-63542295D01*
X293380952Y-63542295D02*
X293304761Y-63504200D01*
X293304761Y-63504200D02*
X293266666Y-63466104D01*
X293266666Y-63466104D02*
X293228571Y-63389914D01*
X293228571Y-63389914D02*
X293190475Y-63237533D01*
X293190475Y-63237533D02*
X293190475Y-63047057D01*
X293190475Y-63047057D02*
X293228571Y-62894676D01*
X293228571Y-62894676D02*
X293266666Y-62818485D01*
X293266666Y-62818485D02*
X293304761Y-62780390D01*
X293304761Y-62780390D02*
X293380952Y-62742295D01*
X294104761Y-63085152D02*
X294028571Y-63047057D01*
X294028571Y-63047057D02*
X293990476Y-63008961D01*
X293990476Y-63008961D02*
X293952380Y-62932771D01*
X293952380Y-62932771D02*
X293952380Y-62894676D01*
X293952380Y-62894676D02*
X293990476Y-62818485D01*
X293990476Y-62818485D02*
X294028571Y-62780390D01*
X294028571Y-62780390D02*
X294104761Y-62742295D01*
X294104761Y-62742295D02*
X294257142Y-62742295D01*
X294257142Y-62742295D02*
X294333333Y-62780390D01*
X294333333Y-62780390D02*
X294371428Y-62818485D01*
X294371428Y-62818485D02*
X294409523Y-62894676D01*
X294409523Y-62894676D02*
X294409523Y-62932771D01*
X294409523Y-62932771D02*
X294371428Y-63008961D01*
X294371428Y-63008961D02*
X294333333Y-63047057D01*
X294333333Y-63047057D02*
X294257142Y-63085152D01*
X294257142Y-63085152D02*
X294104761Y-63085152D01*
X294104761Y-63085152D02*
X294028571Y-63123247D01*
X294028571Y-63123247D02*
X293990476Y-63161342D01*
X293990476Y-63161342D02*
X293952380Y-63237533D01*
X293952380Y-63237533D02*
X293952380Y-63389914D01*
X293952380Y-63389914D02*
X293990476Y-63466104D01*
X293990476Y-63466104D02*
X294028571Y-63504200D01*
X294028571Y-63504200D02*
X294104761Y-63542295D01*
X294104761Y-63542295D02*
X294257142Y-63542295D01*
X294257142Y-63542295D02*
X294333333Y-63504200D01*
X294333333Y-63504200D02*
X294371428Y-63466104D01*
X294371428Y-63466104D02*
X294409523Y-63389914D01*
X294409523Y-63389914D02*
X294409523Y-63237533D01*
X294409523Y-63237533D02*
X294371428Y-63161342D01*
X294371428Y-63161342D02*
X294333333Y-63123247D01*
X294333333Y-63123247D02*
X294257142Y-63085152D01*
X282733333Y-44962295D02*
X283000000Y-45762295D01*
X283000000Y-45762295D02*
X283266666Y-44962295D01*
X283990476Y-45686104D02*
X283952380Y-45724200D01*
X283952380Y-45724200D02*
X283838095Y-45762295D01*
X283838095Y-45762295D02*
X283761904Y-45762295D01*
X283761904Y-45762295D02*
X283647618Y-45724200D01*
X283647618Y-45724200D02*
X283571428Y-45648009D01*
X283571428Y-45648009D02*
X283533333Y-45571819D01*
X283533333Y-45571819D02*
X283495237Y-45419438D01*
X283495237Y-45419438D02*
X283495237Y-45305152D01*
X283495237Y-45305152D02*
X283533333Y-45152771D01*
X283533333Y-45152771D02*
X283571428Y-45076580D01*
X283571428Y-45076580D02*
X283647618Y-45000390D01*
X283647618Y-45000390D02*
X283761904Y-44962295D01*
X283761904Y-44962295D02*
X283838095Y-44962295D01*
X283838095Y-44962295D02*
X283952380Y-45000390D01*
X283952380Y-45000390D02*
X283990476Y-45038485D01*
X284790476Y-45686104D02*
X284752380Y-45724200D01*
X284752380Y-45724200D02*
X284638095Y-45762295D01*
X284638095Y-45762295D02*
X284561904Y-45762295D01*
X284561904Y-45762295D02*
X284447618Y-45724200D01*
X284447618Y-45724200D02*
X284371428Y-45648009D01*
X284371428Y-45648009D02*
X284333333Y-45571819D01*
X284333333Y-45571819D02*
X284295237Y-45419438D01*
X284295237Y-45419438D02*
X284295237Y-45305152D01*
X284295237Y-45305152D02*
X284333333Y-45152771D01*
X284333333Y-45152771D02*
X284371428Y-45076580D01*
X284371428Y-45076580D02*
X284447618Y-45000390D01*
X284447618Y-45000390D02*
X284561904Y-44962295D01*
X284561904Y-44962295D02*
X284638095Y-44962295D01*
X284638095Y-44962295D02*
X284752380Y-45000390D01*
X284752380Y-45000390D02*
X284790476Y-45038485D01*
X292428571Y-40682295D02*
X292428571Y-39882295D01*
X292428571Y-39882295D02*
X292733333Y-39882295D01*
X292733333Y-39882295D02*
X292809523Y-39920390D01*
X292809523Y-39920390D02*
X292847618Y-39958485D01*
X292847618Y-39958485D02*
X292885714Y-40034676D01*
X292885714Y-40034676D02*
X292885714Y-40148961D01*
X292885714Y-40148961D02*
X292847618Y-40225152D01*
X292847618Y-40225152D02*
X292809523Y-40263247D01*
X292809523Y-40263247D02*
X292733333Y-40301342D01*
X292733333Y-40301342D02*
X292428571Y-40301342D01*
X293380952Y-39882295D02*
X293457142Y-39882295D01*
X293457142Y-39882295D02*
X293533333Y-39920390D01*
X293533333Y-39920390D02*
X293571428Y-39958485D01*
X293571428Y-39958485D02*
X293609523Y-40034676D01*
X293609523Y-40034676D02*
X293647618Y-40187057D01*
X293647618Y-40187057D02*
X293647618Y-40377533D01*
X293647618Y-40377533D02*
X293609523Y-40529914D01*
X293609523Y-40529914D02*
X293571428Y-40606104D01*
X293571428Y-40606104D02*
X293533333Y-40644200D01*
X293533333Y-40644200D02*
X293457142Y-40682295D01*
X293457142Y-40682295D02*
X293380952Y-40682295D01*
X293380952Y-40682295D02*
X293304761Y-40644200D01*
X293304761Y-40644200D02*
X293266666Y-40606104D01*
X293266666Y-40606104D02*
X293228571Y-40529914D01*
X293228571Y-40529914D02*
X293190475Y-40377533D01*
X293190475Y-40377533D02*
X293190475Y-40187057D01*
X293190475Y-40187057D02*
X293228571Y-40034676D01*
X293228571Y-40034676D02*
X293266666Y-39958485D01*
X293266666Y-39958485D02*
X293304761Y-39920390D01*
X293304761Y-39920390D02*
X293380952Y-39882295D01*
X294142857Y-39882295D02*
X294219047Y-39882295D01*
X294219047Y-39882295D02*
X294295238Y-39920390D01*
X294295238Y-39920390D02*
X294333333Y-39958485D01*
X294333333Y-39958485D02*
X294371428Y-40034676D01*
X294371428Y-40034676D02*
X294409523Y-40187057D01*
X294409523Y-40187057D02*
X294409523Y-40377533D01*
X294409523Y-40377533D02*
X294371428Y-40529914D01*
X294371428Y-40529914D02*
X294333333Y-40606104D01*
X294333333Y-40606104D02*
X294295238Y-40644200D01*
X294295238Y-40644200D02*
X294219047Y-40682295D01*
X294219047Y-40682295D02*
X294142857Y-40682295D01*
X294142857Y-40682295D02*
X294066666Y-40644200D01*
X294066666Y-40644200D02*
X294028571Y-40606104D01*
X294028571Y-40606104D02*
X293990476Y-40529914D01*
X293990476Y-40529914D02*
X293952380Y-40377533D01*
X293952380Y-40377533D02*
X293952380Y-40187057D01*
X293952380Y-40187057D02*
X293990476Y-40034676D01*
X293990476Y-40034676D02*
X294028571Y-39958485D01*
X294028571Y-39958485D02*
X294066666Y-39920390D01*
X294066666Y-39920390D02*
X294142857Y-39882295D01*
X292428571Y-58462295D02*
X292428571Y-57662295D01*
X292428571Y-57662295D02*
X292733333Y-57662295D01*
X292733333Y-57662295D02*
X292809523Y-57700390D01*
X292809523Y-57700390D02*
X292847618Y-57738485D01*
X292847618Y-57738485D02*
X292885714Y-57814676D01*
X292885714Y-57814676D02*
X292885714Y-57928961D01*
X292885714Y-57928961D02*
X292847618Y-58005152D01*
X292847618Y-58005152D02*
X292809523Y-58043247D01*
X292809523Y-58043247D02*
X292733333Y-58081342D01*
X292733333Y-58081342D02*
X292428571Y-58081342D01*
X293380952Y-57662295D02*
X293457142Y-57662295D01*
X293457142Y-57662295D02*
X293533333Y-57700390D01*
X293533333Y-57700390D02*
X293571428Y-57738485D01*
X293571428Y-57738485D02*
X293609523Y-57814676D01*
X293609523Y-57814676D02*
X293647618Y-57967057D01*
X293647618Y-57967057D02*
X293647618Y-58157533D01*
X293647618Y-58157533D02*
X293609523Y-58309914D01*
X293609523Y-58309914D02*
X293571428Y-58386104D01*
X293571428Y-58386104D02*
X293533333Y-58424200D01*
X293533333Y-58424200D02*
X293457142Y-58462295D01*
X293457142Y-58462295D02*
X293380952Y-58462295D01*
X293380952Y-58462295D02*
X293304761Y-58424200D01*
X293304761Y-58424200D02*
X293266666Y-58386104D01*
X293266666Y-58386104D02*
X293228571Y-58309914D01*
X293228571Y-58309914D02*
X293190475Y-58157533D01*
X293190475Y-58157533D02*
X293190475Y-57967057D01*
X293190475Y-57967057D02*
X293228571Y-57814676D01*
X293228571Y-57814676D02*
X293266666Y-57738485D01*
X293266666Y-57738485D02*
X293304761Y-57700390D01*
X293304761Y-57700390D02*
X293380952Y-57662295D01*
X294333333Y-57662295D02*
X294180952Y-57662295D01*
X294180952Y-57662295D02*
X294104761Y-57700390D01*
X294104761Y-57700390D02*
X294066666Y-57738485D01*
X294066666Y-57738485D02*
X293990476Y-57852771D01*
X293990476Y-57852771D02*
X293952380Y-58005152D01*
X293952380Y-58005152D02*
X293952380Y-58309914D01*
X293952380Y-58309914D02*
X293990476Y-58386104D01*
X293990476Y-58386104D02*
X294028571Y-58424200D01*
X294028571Y-58424200D02*
X294104761Y-58462295D01*
X294104761Y-58462295D02*
X294257142Y-58462295D01*
X294257142Y-58462295D02*
X294333333Y-58424200D01*
X294333333Y-58424200D02*
X294371428Y-58386104D01*
X294371428Y-58386104D02*
X294409523Y-58309914D01*
X294409523Y-58309914D02*
X294409523Y-58119438D01*
X294409523Y-58119438D02*
X294371428Y-58043247D01*
X294371428Y-58043247D02*
X294333333Y-58005152D01*
X294333333Y-58005152D02*
X294257142Y-57967057D01*
X294257142Y-57967057D02*
X294104761Y-57967057D01*
X294104761Y-57967057D02*
X294028571Y-58005152D01*
X294028571Y-58005152D02*
X293990476Y-58043247D01*
X293990476Y-58043247D02*
X293952380Y-58119438D01*
X283247619Y-38142295D02*
X282980952Y-37761342D01*
X282790476Y-38142295D02*
X282790476Y-37342295D01*
X282790476Y-37342295D02*
X283095238Y-37342295D01*
X283095238Y-37342295D02*
X283171428Y-37380390D01*
X283171428Y-37380390D02*
X283209523Y-37418485D01*
X283209523Y-37418485D02*
X283247619Y-37494676D01*
X283247619Y-37494676D02*
X283247619Y-37608961D01*
X283247619Y-37608961D02*
X283209523Y-37685152D01*
X283209523Y-37685152D02*
X283171428Y-37723247D01*
X283171428Y-37723247D02*
X283095238Y-37761342D01*
X283095238Y-37761342D02*
X282790476Y-37761342D01*
X283552380Y-37913723D02*
X283933333Y-37913723D01*
X283476190Y-38142295D02*
X283742857Y-37342295D01*
X283742857Y-37342295D02*
X284009523Y-38142295D01*
X284199999Y-37342295D02*
X284390475Y-38142295D01*
X284390475Y-38142295D02*
X284542856Y-37570866D01*
X284542856Y-37570866D02*
X284695237Y-38142295D01*
X284695237Y-38142295D02*
X284885714Y-37342295D01*
X292790476Y-42460390D02*
X292714286Y-42422295D01*
X292714286Y-42422295D02*
X292600000Y-42422295D01*
X292600000Y-42422295D02*
X292485714Y-42460390D01*
X292485714Y-42460390D02*
X292409524Y-42536580D01*
X292409524Y-42536580D02*
X292371429Y-42612771D01*
X292371429Y-42612771D02*
X292333333Y-42765152D01*
X292333333Y-42765152D02*
X292333333Y-42879438D01*
X292333333Y-42879438D02*
X292371429Y-43031819D01*
X292371429Y-43031819D02*
X292409524Y-43108009D01*
X292409524Y-43108009D02*
X292485714Y-43184200D01*
X292485714Y-43184200D02*
X292600000Y-43222295D01*
X292600000Y-43222295D02*
X292676191Y-43222295D01*
X292676191Y-43222295D02*
X292790476Y-43184200D01*
X292790476Y-43184200D02*
X292828572Y-43146104D01*
X292828572Y-43146104D02*
X292828572Y-42879438D01*
X292828572Y-42879438D02*
X292676191Y-42879438D01*
X293171429Y-43222295D02*
X293171429Y-42422295D01*
X293171429Y-42422295D02*
X293628572Y-43222295D01*
X293628572Y-43222295D02*
X293628572Y-42422295D01*
X294009524Y-43222295D02*
X294009524Y-42422295D01*
X294009524Y-42422295D02*
X294200000Y-42422295D01*
X294200000Y-42422295D02*
X294314286Y-42460390D01*
X294314286Y-42460390D02*
X294390476Y-42536580D01*
X294390476Y-42536580D02*
X294428571Y-42612771D01*
X294428571Y-42612771D02*
X294466667Y-42765152D01*
X294466667Y-42765152D02*
X294466667Y-42879438D01*
X294466667Y-42879438D02*
X294428571Y-43031819D01*
X294428571Y-43031819D02*
X294390476Y-43108009D01*
X294390476Y-43108009D02*
X294314286Y-43184200D01*
X294314286Y-43184200D02*
X294200000Y-43222295D01*
X294200000Y-43222295D02*
X294009524Y-43222295D01*
X292428571Y-50842295D02*
X292428571Y-50042295D01*
X292428571Y-50042295D02*
X292733333Y-50042295D01*
X292733333Y-50042295D02*
X292809523Y-50080390D01*
X292809523Y-50080390D02*
X292847618Y-50118485D01*
X292847618Y-50118485D02*
X292885714Y-50194676D01*
X292885714Y-50194676D02*
X292885714Y-50308961D01*
X292885714Y-50308961D02*
X292847618Y-50385152D01*
X292847618Y-50385152D02*
X292809523Y-50423247D01*
X292809523Y-50423247D02*
X292733333Y-50461342D01*
X292733333Y-50461342D02*
X292428571Y-50461342D01*
X293380952Y-50042295D02*
X293457142Y-50042295D01*
X293457142Y-50042295D02*
X293533333Y-50080390D01*
X293533333Y-50080390D02*
X293571428Y-50118485D01*
X293571428Y-50118485D02*
X293609523Y-50194676D01*
X293609523Y-50194676D02*
X293647618Y-50347057D01*
X293647618Y-50347057D02*
X293647618Y-50537533D01*
X293647618Y-50537533D02*
X293609523Y-50689914D01*
X293609523Y-50689914D02*
X293571428Y-50766104D01*
X293571428Y-50766104D02*
X293533333Y-50804200D01*
X293533333Y-50804200D02*
X293457142Y-50842295D01*
X293457142Y-50842295D02*
X293380952Y-50842295D01*
X293380952Y-50842295D02*
X293304761Y-50804200D01*
X293304761Y-50804200D02*
X293266666Y-50766104D01*
X293266666Y-50766104D02*
X293228571Y-50689914D01*
X293228571Y-50689914D02*
X293190475Y-50537533D01*
X293190475Y-50537533D02*
X293190475Y-50347057D01*
X293190475Y-50347057D02*
X293228571Y-50194676D01*
X293228571Y-50194676D02*
X293266666Y-50118485D01*
X293266666Y-50118485D02*
X293304761Y-50080390D01*
X293304761Y-50080390D02*
X293380952Y-50042295D01*
X293914285Y-50042295D02*
X294409523Y-50042295D01*
X294409523Y-50042295D02*
X294142857Y-50347057D01*
X294142857Y-50347057D02*
X294257142Y-50347057D01*
X294257142Y-50347057D02*
X294333333Y-50385152D01*
X294333333Y-50385152D02*
X294371428Y-50423247D01*
X294371428Y-50423247D02*
X294409523Y-50499438D01*
X294409523Y-50499438D02*
X294409523Y-50689914D01*
X294409523Y-50689914D02*
X294371428Y-50766104D01*
X294371428Y-50766104D02*
X294333333Y-50804200D01*
X294333333Y-50804200D02*
X294257142Y-50842295D01*
X294257142Y-50842295D02*
X294028571Y-50842295D01*
X294028571Y-50842295D02*
X293952380Y-50804200D01*
X293952380Y-50804200D02*
X293914285Y-50766104D01*
X292790476Y-45000390D02*
X292714286Y-44962295D01*
X292714286Y-44962295D02*
X292600000Y-44962295D01*
X292600000Y-44962295D02*
X292485714Y-45000390D01*
X292485714Y-45000390D02*
X292409524Y-45076580D01*
X292409524Y-45076580D02*
X292371429Y-45152771D01*
X292371429Y-45152771D02*
X292333333Y-45305152D01*
X292333333Y-45305152D02*
X292333333Y-45419438D01*
X292333333Y-45419438D02*
X292371429Y-45571819D01*
X292371429Y-45571819D02*
X292409524Y-45648009D01*
X292409524Y-45648009D02*
X292485714Y-45724200D01*
X292485714Y-45724200D02*
X292600000Y-45762295D01*
X292600000Y-45762295D02*
X292676191Y-45762295D01*
X292676191Y-45762295D02*
X292790476Y-45724200D01*
X292790476Y-45724200D02*
X292828572Y-45686104D01*
X292828572Y-45686104D02*
X292828572Y-45419438D01*
X292828572Y-45419438D02*
X292676191Y-45419438D01*
X293171429Y-45762295D02*
X293171429Y-44962295D01*
X293171429Y-44962295D02*
X293628572Y-45762295D01*
X293628572Y-45762295D02*
X293628572Y-44962295D01*
X294009524Y-45762295D02*
X294009524Y-44962295D01*
X294009524Y-44962295D02*
X294200000Y-44962295D01*
X294200000Y-44962295D02*
X294314286Y-45000390D01*
X294314286Y-45000390D02*
X294390476Y-45076580D01*
X294390476Y-45076580D02*
X294428571Y-45152771D01*
X294428571Y-45152771D02*
X294466667Y-45305152D01*
X294466667Y-45305152D02*
X294466667Y-45419438D01*
X294466667Y-45419438D02*
X294428571Y-45571819D01*
X294428571Y-45571819D02*
X294390476Y-45648009D01*
X294390476Y-45648009D02*
X294314286Y-45724200D01*
X294314286Y-45724200D02*
X294200000Y-45762295D01*
X294200000Y-45762295D02*
X294009524Y-45762295D01*
X282828571Y-61002295D02*
X282828571Y-60202295D01*
X282828571Y-60202295D02*
X283133333Y-60202295D01*
X283133333Y-60202295D02*
X283209523Y-60240390D01*
X283209523Y-60240390D02*
X283247618Y-60278485D01*
X283247618Y-60278485D02*
X283285714Y-60354676D01*
X283285714Y-60354676D02*
X283285714Y-60468961D01*
X283285714Y-60468961D02*
X283247618Y-60545152D01*
X283247618Y-60545152D02*
X283209523Y-60583247D01*
X283209523Y-60583247D02*
X283133333Y-60621342D01*
X283133333Y-60621342D02*
X282828571Y-60621342D01*
X284047618Y-61002295D02*
X283590475Y-61002295D01*
X283819047Y-61002295D02*
X283819047Y-60202295D01*
X283819047Y-60202295D02*
X283742856Y-60316580D01*
X283742856Y-60316580D02*
X283666666Y-60392771D01*
X283666666Y-60392771D02*
X283590475Y-60430866D01*
X284733333Y-60468961D02*
X284733333Y-61002295D01*
X284542857Y-60164200D02*
X284352380Y-60735628D01*
X284352380Y-60735628D02*
X284847619Y-60735628D01*
X292428571Y-66082295D02*
X292428571Y-65282295D01*
X292428571Y-65282295D02*
X292733333Y-65282295D01*
X292733333Y-65282295D02*
X292809523Y-65320390D01*
X292809523Y-65320390D02*
X292847618Y-65358485D01*
X292847618Y-65358485D02*
X292885714Y-65434676D01*
X292885714Y-65434676D02*
X292885714Y-65548961D01*
X292885714Y-65548961D02*
X292847618Y-65625152D01*
X292847618Y-65625152D02*
X292809523Y-65663247D01*
X292809523Y-65663247D02*
X292733333Y-65701342D01*
X292733333Y-65701342D02*
X292428571Y-65701342D01*
X293380952Y-65282295D02*
X293457142Y-65282295D01*
X293457142Y-65282295D02*
X293533333Y-65320390D01*
X293533333Y-65320390D02*
X293571428Y-65358485D01*
X293571428Y-65358485D02*
X293609523Y-65434676D01*
X293609523Y-65434676D02*
X293647618Y-65587057D01*
X293647618Y-65587057D02*
X293647618Y-65777533D01*
X293647618Y-65777533D02*
X293609523Y-65929914D01*
X293609523Y-65929914D02*
X293571428Y-66006104D01*
X293571428Y-66006104D02*
X293533333Y-66044200D01*
X293533333Y-66044200D02*
X293457142Y-66082295D01*
X293457142Y-66082295D02*
X293380952Y-66082295D01*
X293380952Y-66082295D02*
X293304761Y-66044200D01*
X293304761Y-66044200D02*
X293266666Y-66006104D01*
X293266666Y-66006104D02*
X293228571Y-65929914D01*
X293228571Y-65929914D02*
X293190475Y-65777533D01*
X293190475Y-65777533D02*
X293190475Y-65587057D01*
X293190475Y-65587057D02*
X293228571Y-65434676D01*
X293228571Y-65434676D02*
X293266666Y-65358485D01*
X293266666Y-65358485D02*
X293304761Y-65320390D01*
X293304761Y-65320390D02*
X293380952Y-65282295D01*
X294028571Y-66082295D02*
X294180952Y-66082295D01*
X294180952Y-66082295D02*
X294257142Y-66044200D01*
X294257142Y-66044200D02*
X294295238Y-66006104D01*
X294295238Y-66006104D02*
X294371428Y-65891819D01*
X294371428Y-65891819D02*
X294409523Y-65739438D01*
X294409523Y-65739438D02*
X294409523Y-65434676D01*
X294409523Y-65434676D02*
X294371428Y-65358485D01*
X294371428Y-65358485D02*
X294333333Y-65320390D01*
X294333333Y-65320390D02*
X294257142Y-65282295D01*
X294257142Y-65282295D02*
X294104761Y-65282295D01*
X294104761Y-65282295D02*
X294028571Y-65320390D01*
X294028571Y-65320390D02*
X293990476Y-65358485D01*
X293990476Y-65358485D02*
X293952380Y-65434676D01*
X293952380Y-65434676D02*
X293952380Y-65625152D01*
X293952380Y-65625152D02*
X293990476Y-65701342D01*
X293990476Y-65701342D02*
X294028571Y-65739438D01*
X294028571Y-65739438D02*
X294104761Y-65777533D01*
X294104761Y-65777533D02*
X294257142Y-65777533D01*
X294257142Y-65777533D02*
X294333333Y-65739438D01*
X294333333Y-65739438D02*
X294371428Y-65701342D01*
X294371428Y-65701342D02*
X294409523Y-65625152D01*
X282828571Y-66082295D02*
X282828571Y-65282295D01*
X282828571Y-65282295D02*
X283133333Y-65282295D01*
X283133333Y-65282295D02*
X283209523Y-65320390D01*
X283209523Y-65320390D02*
X283247618Y-65358485D01*
X283247618Y-65358485D02*
X283285714Y-65434676D01*
X283285714Y-65434676D02*
X283285714Y-65548961D01*
X283285714Y-65548961D02*
X283247618Y-65625152D01*
X283247618Y-65625152D02*
X283209523Y-65663247D01*
X283209523Y-65663247D02*
X283133333Y-65701342D01*
X283133333Y-65701342D02*
X282828571Y-65701342D01*
X284047618Y-66082295D02*
X283590475Y-66082295D01*
X283819047Y-66082295D02*
X283819047Y-65282295D01*
X283819047Y-65282295D02*
X283742856Y-65396580D01*
X283742856Y-65396580D02*
X283666666Y-65472771D01*
X283666666Y-65472771D02*
X283590475Y-65510866D01*
X284542857Y-65282295D02*
X284619047Y-65282295D01*
X284619047Y-65282295D02*
X284695238Y-65320390D01*
X284695238Y-65320390D02*
X284733333Y-65358485D01*
X284733333Y-65358485D02*
X284771428Y-65434676D01*
X284771428Y-65434676D02*
X284809523Y-65587057D01*
X284809523Y-65587057D02*
X284809523Y-65777533D01*
X284809523Y-65777533D02*
X284771428Y-65929914D01*
X284771428Y-65929914D02*
X284733333Y-66006104D01*
X284733333Y-66006104D02*
X284695238Y-66044200D01*
X284695238Y-66044200D02*
X284619047Y-66082295D01*
X284619047Y-66082295D02*
X284542857Y-66082295D01*
X284542857Y-66082295D02*
X284466666Y-66044200D01*
X284466666Y-66044200D02*
X284428571Y-66006104D01*
X284428571Y-66006104D02*
X284390476Y-65929914D01*
X284390476Y-65929914D02*
X284352380Y-65777533D01*
X284352380Y-65777533D02*
X284352380Y-65587057D01*
X284352380Y-65587057D02*
X284390476Y-65434676D01*
X284390476Y-65434676D02*
X284428571Y-65358485D01*
X284428571Y-65358485D02*
X284466666Y-65320390D01*
X284466666Y-65320390D02*
X284542857Y-65282295D01*
D11*
%TO.C,D3*%
X190250000Y-54250000D02*
X190650000Y-54250000D01*
X190650000Y-54250000D02*
X190650000Y-53700000D01*
X190650000Y-54250000D02*
X190650000Y-54800000D01*
X190650000Y-54250000D02*
X191250000Y-53850000D01*
X191250000Y-53850000D02*
X191250000Y-54650000D01*
X191250000Y-54250000D02*
X191750000Y-54250000D01*
X191250000Y-54650000D02*
X190650000Y-54250000D01*
D12*
%TO.C,ROT1*%
X279580000Y-81360000D02*
X280180000Y-81360000D01*
X279880000Y-81660000D02*
X279580000Y-81360000D01*
X280180000Y-81360000D02*
X279880000Y-81660000D01*
X281280000Y-79660000D02*
X281280000Y-91360000D01*
X285380000Y-79660000D02*
X281280000Y-79660000D01*
X285380000Y-91360000D02*
X281280000Y-91360000D01*
X286880000Y-85460000D02*
X287880000Y-85460000D01*
X287380000Y-84960000D02*
X287380000Y-85960000D01*
X289380000Y-79560000D02*
X293480000Y-79560000D01*
X293480000Y-79560000D02*
X293480000Y-82160000D01*
X293480000Y-84160000D02*
X293480000Y-86760000D01*
X293480000Y-88760000D02*
X293480000Y-91360000D01*
X293480000Y-91360000D02*
X289380000Y-91360000D01*
X290380000Y-85460000D02*
G75*
G02*
X284380000Y-85460000I-3000000J0D01*
G01*
X284380000Y-85460000D02*
G75*
G02*
X290380000Y-85460000I3000000J0D01*
G01*
D11*
%TO.C,D18*%
X278532583Y-116226825D02*
X278895106Y-116395873D01*
X278895106Y-116395873D02*
X278662666Y-116894342D01*
X278895106Y-116395873D02*
X279127546Y-115897403D01*
X278895106Y-116395873D02*
X279607938Y-116286920D01*
X279269844Y-117011967D02*
X278895106Y-116395873D01*
X279438891Y-116649444D02*
X279892045Y-116860753D01*
X279607938Y-116286920D02*
X279269844Y-117011967D01*
%TO.C,D15*%
X266250000Y-48250000D02*
X266650000Y-48250000D01*
X266650000Y-48250000D02*
X266650000Y-47700000D01*
X266650000Y-48250000D02*
X266650000Y-48800000D01*
X266650000Y-48250000D02*
X267250000Y-47850000D01*
X267250000Y-47850000D02*
X267250000Y-48650000D01*
X267250000Y-48250000D02*
X267750000Y-48250000D01*
X267250000Y-48650000D02*
X266650000Y-48250000D01*
%TO.C,D17*%
X258110959Y-109661239D02*
X258504882Y-109730698D01*
X258504882Y-109730698D02*
X258409376Y-110272342D01*
X258504882Y-109730698D02*
X258600389Y-109189054D01*
X258504882Y-109730698D02*
X259165226Y-109440964D01*
X259026308Y-110228810D02*
X258504882Y-109730698D01*
X259095767Y-109834887D02*
X259588171Y-109921711D01*
X259165226Y-109440964D02*
X259026308Y-110228810D01*
%TO.C,D8*%
X228250000Y-62250000D02*
X228650000Y-62250000D01*
X228650000Y-62250000D02*
X228650000Y-61700000D01*
X228650000Y-62250000D02*
X228650000Y-62800000D01*
X228650000Y-62250000D02*
X229250000Y-61850000D01*
X229250000Y-61850000D02*
X229250000Y-62650000D01*
X229250000Y-62250000D02*
X229750000Y-62250000D01*
X229250000Y-62650000D02*
X228650000Y-62250000D01*
%TO.C,D6*%
X209250000Y-48250000D02*
X209650000Y-48250000D01*
X209650000Y-48250000D02*
X209650000Y-47700000D01*
X209650000Y-48250000D02*
X209650000Y-48800000D01*
X209650000Y-48250000D02*
X210250000Y-47850000D01*
X210250000Y-47850000D02*
X210250000Y-48650000D01*
X210250000Y-48250000D02*
X210750000Y-48250000D01*
X210250000Y-48650000D02*
X209650000Y-48250000D01*
%TO.C,D4*%
X209250000Y-86250000D02*
X209650000Y-86250000D01*
X209650000Y-86250000D02*
X209650000Y-85700000D01*
X209650000Y-86250000D02*
X209650000Y-86800000D01*
X209650000Y-86250000D02*
X210250000Y-85850000D01*
X210250000Y-85850000D02*
X210250000Y-86650000D01*
X210250000Y-86250000D02*
X210750000Y-86250000D01*
X210250000Y-86650000D02*
X209650000Y-86250000D01*
%TO.C,D5*%
X209250000Y-67250000D02*
X209650000Y-67250000D01*
X209650000Y-67250000D02*
X209650000Y-66700000D01*
X209650000Y-67250000D02*
X209650000Y-67800000D01*
X209650000Y-67250000D02*
X210250000Y-66850000D01*
X210250000Y-66850000D02*
X210250000Y-67650000D01*
X210250000Y-67250000D02*
X210750000Y-67250000D01*
X210250000Y-67650000D02*
X209650000Y-67250000D01*
%TO.C,D12*%
X247250000Y-46250000D02*
X247650000Y-46250000D01*
X247650000Y-46250000D02*
X247650000Y-45700000D01*
X247650000Y-46250000D02*
X247650000Y-46800000D01*
X247650000Y-46250000D02*
X248250000Y-45850000D01*
X248250000Y-45850000D02*
X248250000Y-46650000D01*
X248250000Y-46250000D02*
X248750000Y-46250000D01*
X248250000Y-46650000D02*
X247650000Y-46250000D01*
D13*
%TO.C,S19*%
X296450000Y-84400000D02*
X297400000Y-84400000D01*
X296450000Y-90600000D02*
X296450000Y-84400000D01*
X297400000Y-90600000D02*
X296450000Y-90600000D01*
X299600000Y-90600000D02*
X300550000Y-90600000D01*
X300550000Y-84400000D02*
X299600000Y-84400000D01*
X300550000Y-90600000D02*
X300550000Y-84400000D01*
X297400000Y-90100000D02*
G75*
G02*
X297200000Y-90100000I-100000J0D01*
G01*
X297200000Y-90100000D02*
G75*
G02*
X297400000Y-90100000I100000J0D01*
G01*
D11*
%TO.C,D1*%
X190250000Y-92250000D02*
X190650000Y-92250000D01*
X190650000Y-92250000D02*
X190650000Y-91700000D01*
X190650000Y-92250000D02*
X190650000Y-92800000D01*
X190650000Y-92250000D02*
X191250000Y-91850000D01*
X191250000Y-91850000D02*
X191250000Y-92650000D01*
X191250000Y-92250000D02*
X191750000Y-92250000D01*
X191250000Y-92650000D02*
X190650000Y-92250000D01*
%TO.C,D9*%
X228250000Y-43250000D02*
X228650000Y-43250000D01*
X228650000Y-43250000D02*
X228650000Y-42700000D01*
X228650000Y-43250000D02*
X228650000Y-43800000D01*
X228650000Y-43250000D02*
X229250000Y-42850000D01*
X229250000Y-42850000D02*
X229250000Y-43650000D01*
X229250000Y-43250000D02*
X229750000Y-43250000D01*
X229250000Y-43650000D02*
X228650000Y-43250000D01*
%TO.C,D10*%
X247250000Y-84250000D02*
X247650000Y-84250000D01*
X247650000Y-84250000D02*
X247650000Y-83700000D01*
X247650000Y-84250000D02*
X247650000Y-84800000D01*
X247650000Y-84250000D02*
X248250000Y-83850000D01*
X248250000Y-83850000D02*
X248250000Y-84650000D01*
X248250000Y-84250000D02*
X248750000Y-84250000D01*
X248250000Y-84650000D02*
X247650000Y-84250000D01*
D10*
%TO.C,MCU1*%
X279710000Y-33970000D02*
X279710000Y-66990000D01*
X279710000Y-66990000D02*
X297490000Y-66990000D01*
X282250000Y-36510000D02*
X279710000Y-36510000D01*
X282250000Y-36510000D02*
X282250000Y-39050000D01*
X282250000Y-39050000D02*
X279710000Y-39050000D01*
X297490000Y-33970000D02*
X279710000Y-33970000D01*
X297490000Y-66990000D02*
X297490000Y-33970000D01*
D12*
%TO.C,_1*%
X285590000Y-70440000D02*
X285590000Y-71360000D01*
X285590000Y-71360000D02*
X287190000Y-71360000D01*
X285590000Y-75640000D02*
X285590000Y-76560000D01*
X285590000Y-76560000D02*
X293410000Y-76560000D01*
X287190000Y-70440000D02*
X287190000Y-71360000D01*
X287190000Y-71360000D02*
X287190000Y-71640000D01*
X287190000Y-75360000D02*
X285975000Y-75360000D01*
X287190000Y-75360000D02*
X287190000Y-75640000D01*
X287190000Y-75640000D02*
X285590000Y-75640000D01*
X287190000Y-76560000D02*
X287190000Y-75640000D01*
X289050000Y-73000000D02*
X293410000Y-73000000D01*
X289050000Y-74000000D02*
X289050000Y-73000000D01*
X289550000Y-71200000D02*
X291150000Y-71200000D01*
X289550000Y-72200000D02*
X289550000Y-71200000D01*
X289550000Y-74800000D02*
X289550000Y-75800000D01*
X289550000Y-75800000D02*
X291150000Y-75800000D01*
X291150000Y-71200000D02*
X291150000Y-72200000D01*
X291150000Y-72200000D02*
X289550000Y-72200000D01*
X291150000Y-74800000D02*
X289550000Y-74800000D01*
X291150000Y-74800000D02*
X293410000Y-74800000D01*
X291150000Y-75300000D02*
X293410000Y-75300000D01*
X291150000Y-75800000D02*
X291150000Y-74800000D01*
X293410000Y-70440000D02*
X285590000Y-70440000D01*
X293410000Y-74000000D02*
X289050000Y-74000000D01*
X293410000Y-76560000D02*
X293410000Y-70440000D01*
D11*
%TO.C,D14*%
X266250000Y-67250000D02*
X266650000Y-67250000D01*
X266650000Y-67250000D02*
X266650000Y-66700000D01*
X266650000Y-67250000D02*
X266650000Y-67800000D01*
X266650000Y-67250000D02*
X267250000Y-66850000D01*
X267250000Y-66850000D02*
X267250000Y-67650000D01*
X267250000Y-67250000D02*
X267750000Y-67250000D01*
X267250000Y-67650000D02*
X266650000Y-67250000D01*
%TO.C,D13*%
X266250000Y-86250000D02*
X266650000Y-86250000D01*
X266650000Y-86250000D02*
X266650000Y-85700000D01*
X266650000Y-86250000D02*
X266650000Y-86800000D01*
X266650000Y-86250000D02*
X267250000Y-85850000D01*
X267250000Y-85850000D02*
X267250000Y-86650000D01*
X267250000Y-86250000D02*
X267750000Y-86250000D01*
X267250000Y-86650000D02*
X266650000Y-86250000D01*
%TO.C,D7*%
X228250000Y-81250000D02*
X228650000Y-81250000D01*
X228650000Y-81250000D02*
X228650000Y-80700000D01*
X228650000Y-81250000D02*
X228650000Y-81800000D01*
X228650000Y-81250000D02*
X229250000Y-80850000D01*
X229250000Y-80850000D02*
X229250000Y-81650000D01*
X229250000Y-81250000D02*
X229750000Y-81250000D01*
X229250000Y-81650000D02*
X228650000Y-81250000D01*
%TO.C,D2*%
X190250000Y-73250000D02*
X190650000Y-73250000D01*
X190650000Y-73250000D02*
X190650000Y-72700000D01*
X190650000Y-73250000D02*
X190650000Y-73800000D01*
X190650000Y-73250000D02*
X191250000Y-72850000D01*
X191250000Y-72850000D02*
X191250000Y-73650000D01*
X191250000Y-73250000D02*
X191750000Y-73250000D01*
X191250000Y-73650000D02*
X190650000Y-73250000D01*
%TO.C,D11*%
X247250000Y-65250000D02*
X247650000Y-65250000D01*
X247650000Y-65250000D02*
X247650000Y-64700000D01*
X247650000Y-65250000D02*
X247650000Y-65800000D01*
X247650000Y-65250000D02*
X248250000Y-64850000D01*
X248250000Y-64850000D02*
X248250000Y-65650000D01*
X248250000Y-65250000D02*
X248750000Y-65250000D01*
X248250000Y-65650000D02*
X247650000Y-65250000D01*
%TO.C,D16*%
X237666386Y-109256044D02*
X238064864Y-109221183D01*
X238064864Y-109221183D02*
X238016928Y-108673274D01*
X238064864Y-109221183D02*
X238112800Y-109769089D01*
X238064864Y-109221183D02*
X238627718Y-108770410D01*
X238627718Y-108770410D02*
X238697443Y-109567366D01*
X238662581Y-109168888D02*
X239160678Y-109125310D01*
X238697443Y-109567366D02*
X238064864Y-109221183D01*
%TD*%
D14*
%TO.C,MCU1*%
X280980000Y-37780000D03*
D15*
X280980000Y-40320000D03*
X280980000Y-42860000D03*
X280980000Y-45400000D03*
X280980000Y-47940000D03*
X280980000Y-50480000D03*
X280980000Y-53020000D03*
X280980000Y-55560000D03*
X280980000Y-58100000D03*
X280980000Y-60640000D03*
X280980000Y-63180000D03*
X280980000Y-65720000D03*
X296220000Y-37780000D03*
X296220000Y-40320000D03*
X296220000Y-42860000D03*
X296220000Y-45400000D03*
X296220000Y-47940000D03*
X296220000Y-50480000D03*
X296220000Y-53020000D03*
X296220000Y-55560000D03*
X296220000Y-58100000D03*
X296220000Y-60640000D03*
X296220000Y-63180000D03*
X296220000Y-65720000D03*
X293680000Y-60640000D03*
X291140000Y-60640000D03*
X288600000Y-60640000D03*
%TD*%
M02*
